<?xml version="1.0" standalone="no"?>
<!DOCTYPE svg PUBLIC "-//W3C//DTD SVG 1.1//EN" "http://www.w3.org/Graphics/SVG/1.1/DTD/svg11.dtd" >
<svg xmlns="http://www.w3.org/2000/svg" xmlns:xlink="http://www.w3.org/1999/xlink" version="1.1">
<metadata>
Created by FontForge 20170731 at Mon Sep  7 14:19:28 2020
 By Aleksey,,,
(c)2009 Commercial Type.
</metadata>
<defs>
<font id="Graphik-Semibold" horiz-adv-x="1228" >
  <font-face 
    font-family="Graphik Semibold"
    font-weight="600"
    font-stretch="normal"
    units-per-em="2048"
    panose-1="2 11 7 3 3 2 2 6 2 3"
    ascent="1683"
    descent="-365"
    x-height="1071"
    cap-height="1464"
    bbox="-487 -467 2374 2310"
    underline-thickness="102"
    underline-position="-307"
    unicode-range="U+0020-FB02"
  />
<missing-glyph horiz-adv-x="1048" 
 />
    <glyph glyph-name="f_f" unicode="ff" horiz-adv-x="1404" 
d="M180 0v860h-141v211h141v111q0 183 100 278.5t281 95.5q78 0 152 -22v-221q-58 16 -107 16q-67 0 -99 -37.5t-32 -103.5v-117h350v123q0 184 100.5 279.5t282.5 95.5q84 0 154 -21v-223q-52 18 -109 18q-68 0 -100.5 -38t-32.5 -103v-131h234v-211h-234v-860h-295v860
h-350v-860h-295z" />
    <glyph glyph-name=".notdef" horiz-adv-x="1048" 
 />
    <glyph glyph-name=".null" horiz-adv-x="0" 
 />
    <glyph glyph-name="nonmarkingreturn" horiz-adv-x="682" 
 />
    <glyph glyph-name="space" unicode=" " horiz-adv-x="454" 
 />
    <glyph glyph-name="exclam" unicode="!" horiz-adv-x="647" 
d="M324 -18q-77 0 -132 51.5t-55 124.5q0 74 55 126t132 52t131.5 -51.5t54.5 -126.5q0 -73 -54.5 -124.5t-131.5 -51.5zM205 457l-45 1007h332l-46 -1007h-241z" />
    <glyph glyph-name="quotedbl" unicode="&#x22;" horiz-adv-x="880" 
d="M137 924l-39 540h287l-39 -540h-209zM535 924l-39 540h286l-37 -540h-210z" />
    <glyph glyph-name="numbersign" unicode="#" horiz-adv-x="1124" 
d="M541 203l47 321h-154l-47 -321h-209l47 321h-151v236h186l29 196h-164v228h197l43 280h206l-41 -280h154l43 280h207l-43 -280h160v-228h-193l-29 -196h170v-236h-204l-47 -321h-207zM498 956l-29 -196h154l28 196h-153z" />
    <glyph glyph-name="dollar" unicode="$" horiz-adv-x="1310" 
d="M588 -276v256q-254 18 -381.5 145t-140.5 332h303q12 -101 59.5 -162t159.5 -78v395q-250 39 -366 141t-116 300q0 178 131.5 296.5t350.5 133.5v182h145v-184q212 -19 332 -126t139 -302h-293q-14 82 -56.5 129.5t-121.5 62.5v-366q121 -19 208 -48.5t154 -79.5
t100.5 -126t33.5 -181q0 -191 -130 -319t-366 -145v-256h-145zM926 410q0 76 -41 116t-152 64v-373q89 15 141 66.5t52 126.5zM401 1079q0 -74 39 -114t148 -62v346q-89 -12 -138 -58t-49 -112z" />
    <glyph glyph-name="percent" unicode="%" horiz-adv-x="1660" 
d="M428 944q66 0 102.5 46.5t36.5 131.5q0 82 -36.5 129t-102.5 47t-104.5 -46.5t-38.5 -129.5q0 -86 38 -132t105 -46zM426 760q-162 0 -265.5 102t-103.5 258q0 153 107.5 256t263.5 103q155 0 261 -100.5t106 -254.5q0 -157 -104 -260.5t-265 -103.5zM254 0l973 1464h184
l-973 -1464h-184zM1235 164q67 0 104 46.5t37 129.5t-37 129.5t-104 46.5q-65 0 -103 -46t-38 -130q0 -85 37.5 -130.5t103.5 -45.5zM1235 -23q-161 0 -265 103t-104 258q0 154 107 257t262 103q157 0 263 -100t106 -254q0 -158 -104.5 -262.5t-264.5 -104.5z" />
    <glyph glyph-name="ampersand" unicode="&#x26;" horiz-adv-x="1503" 
d="M1454 760l-237 -461l243 -299h-379l-106 131q-165 -151 -400 -151q-225 0 -360 115t-135 313q0 146 84 250t242 180q-103 140 -103 276q0 171 124 268t306 97q167 0 282 -88.5t115 -239.5q0 -241 -299 -367l230 -280l131 256h262zM618 223q120 0 203 99l-278 337
q-74 -38 -113 -88.5t-39 -130.5q0 -100 60 -158.5t167 -58.5zM592 1110q0 -76 98 -195q93 43 134.5 94.5t41.5 125.5q0 57 -36 94t-93 37q-64 0 -104.5 -41t-40.5 -115z" />
    <glyph glyph-name="quotesingle" unicode="'" horiz-adv-x="491" 
d="M137 924l-39 540h295l-39 -540h-217z" />
    <glyph glyph-name="parenleft" unicode="(" horiz-adv-x="702" 
d="M430 -303q-342 404 -342 944t342 944h244q-297 -415 -297 -944q0 -525 297 -944h-244z" />
    <glyph glyph-name="parenright" unicode=")" horiz-adv-x="702" 
d="M31 -299q295 417 295 944q0 523 -295 944h243q340 -407 340 -944t-340 -944h-243z" />
    <glyph glyph-name="asterisk" unicode="*" horiz-adv-x="888" 
d="M317 786l-182 132l178 198l-243 39l61 211l229 -104l-34 260h239l-37 -260l230 104l61 -211l-246 -39l179 -198l-183 -132l-127 240z" />
    <glyph glyph-name="plus" unicode="+" horiz-adv-x="1128" 
d="M444 186v400h-368v223h368v399h242v-399h369v-223h-369v-400h-242z" />
    <glyph glyph-name="comma" unicode="," horiz-adv-x="610" 
d="M227 -252l-180 76l180 506l279 -105z" />
    <glyph glyph-name="hyphen" unicode="-" horiz-adv-x="745" 
d="M111 459v235h524v-235h-524z" />
    <glyph glyph-name="period" unicode="." horiz-adv-x="600" 
d="M299 -18q-76 0 -129 52.5t-53 127.5q0 74 53 126t129 52q78 0 131 -52t53 -126q0 -75 -53 -127.5t-131 -52.5z" />
    <glyph glyph-name="slash" unicode="/" horiz-adv-x="866" 
d="M-27 -303l629 1892h244l-631 -1892h-242z" />
    <glyph glyph-name="zero" unicode="0" horiz-adv-x="1460" 
d="M737 238q154 0 227.5 115.5t73.5 348.5v66q0 223 -77 342t-228 119q-153 0 -231 -116.5t-78 -344.5v-70q0 -229 79.5 -344.5t233.5 -115.5zM729 -23q-293 0 -465 192t-172 527v70q0 333 176 526t463 193q288 0 462.5 -189t174.5 -524v-67q0 -337 -171.5 -532.5
t-467.5 -195.5z" />
    <glyph glyph-name="one" unicode="1" horiz-adv-x="882" 
d="M362 0v1137l-296 -195v283l337 239h291v-1464h-332z" />
    <glyph glyph-name="two" unicode="2" horiz-adv-x="1214" 
d="M25 0v53l536 568q116 123 174 220t58 191q0 92 -50.5 145.5t-144.5 53.5q-100 0 -158 -63.5t-75 -204.5h-302q12 251 156.5 386.5t392.5 135.5q239 0 373.5 -121.5t134.5 -323.5q0 -138 -71.5 -261t-210.5 -257l-277 -270h569v-252h-1105z" />
    <glyph glyph-name="three" unicode="3" horiz-adv-x="1300" 
d="M641 -23q-273 0 -419.5 129.5t-155.5 358.5h299q10 -113 74 -178.5t190 -65.5q122 0 182.5 55t60.5 156q0 211 -235 211h-115v221h107q223 0 223 195q0 81 -52.5 131.5t-150.5 50.5q-103 0 -166 -58.5t-75 -162.5h-293q12 208 154 336.5t386 128.5q236 0 373 -111
t137 -287q0 -119 -63.5 -198t-177.5 -119q131 -28 207.5 -118t76.5 -226q0 -207 -151 -328t-416 -121z" />
    <glyph glyph-name="four" unicode="4" horiz-adv-x="1343" 
d="M772 0v291h-719v121l633 1052h408v-936h192v-237h-192v-291h-322zM385 528h393v686z" />
    <glyph glyph-name="five" unicode="5" horiz-adv-x="1259" 
d="M608 -23q-132 0 -234 34.5t-167 97t-100.5 145t-40.5 182.5h305q15 -102 66 -153.5t169 -51.5q110 0 170 70.5t60 190.5q0 119 -64 187.5t-174 68.5q-179 0 -281 -117h-184l21 833h927v-252h-680l-6 -366q110 135 326 135q202 0 325 -132t123 -362q0 -233 -153.5 -371.5
t-407.5 -138.5z" />
    <glyph glyph-name="six" unicode="6" horiz-adv-x="1339" 
d="M694 -23q-130 0 -232 34.5t-171 96t-114 150.5t-65 192t-20 226v37q0 182 47.5 329t132 243.5t198.5 148t249 51.5q220 0 351.5 -103.5t156.5 -302.5h-307q-16 77 -61 116.5t-136 39.5q-138 0 -217.5 -119t-85.5 -342q114 182 354 182q211 0 347 -129t136 -346
q0 -228 -152 -366t-411 -138zM690 217q108 0 175 72t67 188q0 117 -65.5 188.5t-176.5 71.5q-110 0 -180 -70.5t-70 -179.5q0 -124 69 -197t181 -73z" />
    <glyph glyph-name="seven" unicode="7" horiz-adv-x="1142" 
d="M254 0l446 1196h-645v268h1061v-37l-524 -1427h-338z" />
    <glyph glyph-name="eight" unicode="8" horiz-adv-x="1308" 
d="M655 -23q-165 0 -292.5 48.5t-204 149t-76.5 239.5q0 132 71 226.5t199 139.5q-102 42 -157.5 119.5t-55.5 185.5q0 123 73 215.5t189.5 138.5t255.5 46q142 0 257.5 -46.5t186 -138.5t70.5 -213q0 -107 -56.5 -184t-156.5 -121q130 -44 199.5 -137t69.5 -223
q0 -209 -160 -327t-412 -118zM655 219q107 0 175.5 60.5t68.5 166.5q0 104 -68 164t-174 60q-105 0 -175 -60.5t-70 -165.5t69 -165t174 -60zM659 872q91 0 148 52t57 141q0 84 -59 136t-148 52q-90 0 -149 -51.5t-59 -138.5t60.5 -139t149.5 -52z" />
    <glyph glyph-name="nine" unicode="9" horiz-adv-x="1341" 
d="M635 -20q-236 0 -375 108t-164 307h310q16 -79 67.5 -121.5t151.5 -42.5q288 0 297 453q-114 -178 -351 -178q-217 0 -353 127t-136 346q0 229 153.5 368.5t413.5 139.5q295 0 446.5 -184.5t151.5 -509.5v-66q0 -359 -158.5 -553t-453.5 -194zM645 727q112 0 181 69
t69 177q0 127 -68.5 200.5t-181.5 73.5q-108 0 -175 -72t-67 -188t66 -188t176 -72z" />
    <glyph glyph-name="colon" unicode=":" horiz-adv-x="614" 
d="M305 -18q-76 0 -128 52.5t-52 127.5q0 74 52 126t128 52q78 0 131 -52t53 -126q0 -75 -53 -127.5t-131 -52.5zM305 575q-76 0 -128 53t-52 128q0 74 52 126t128 52q78 0 131 -52t53 -126q0 -75 -53 -128t-131 -53z" />
    <glyph glyph-name="semicolon" unicode=";" horiz-adv-x="634" 
d="M207 -252l-178 76l180 506l276 -105zM342 575q-76 0 -128 53t-52 128q0 74 52 126t128 52q78 0 131 -52t53 -126q0 -75 -53 -128t-131 -53z" />
    <glyph glyph-name="less" unicode="&#x3c;" horiz-adv-x="1042" 
d="M930 147l-836 484v59l836 481v-270l-445 -239l445 -248v-267z" />
    <glyph glyph-name="equal" unicode="=" horiz-adv-x="1085" 
d="M80 365v210h926v-210h-926zM80 754v213h926v-213h-926z" />
    <glyph glyph-name="greater" unicode="&#x3e;" horiz-adv-x="1042" 
d="M115 150v270l442 239l-442 248v267l835 -484v-59z" />
    <glyph glyph-name="question" unicode="?" horiz-adv-x="1089" 
d="M354 457v61q0 46 13.5 90.5t28.5 74.5t49.5 71.5t51.5 58.5t60 59q47 45 71.5 72.5t46 68t21.5 79.5q0 151 -157 151q-84 0 -138 -57t-65 -154h-285q9 211 147 332t359 121q220 0 337.5 -100.5t117.5 -268.5q0 -96 -44 -169.5t-124 -151.5q-9 -9 -47.5 -45t-50.5 -48.5
t-40 -43t-39 -49.5t-23 -47t-15 -54v-51h-275zM489 -18q-78 0 -133 51.5t-55 124.5q0 75 55 126.5t133 51.5q77 0 132 -52t55 -126q0 -73 -55 -124.5t-132 -51.5z" />
    <glyph glyph-name="at" unicode="@" horiz-adv-x="1882" 
d="M942 -315q-162 0 -301.5 43t-243 120.5t-177.5 182t-111 229.5t-37 262q0 192 74 360t198 283.5t288.5 181.5t342.5 66q241 0 431.5 -95t297 -265.5t106.5 -386.5q0 -116 -25 -210t-66 -155.5t-96 -103.5t-113.5 -60t-120.5 -18q-127 0 -192.5 42.5t-84.5 127.5
q-42 -83 -116.5 -130.5t-170.5 -47.5q-151 0 -241 99.5t-90 270.5q0 210 116.5 345t286.5 135q175 0 233 -130l15 113h254l-66 -543q-22 -145 92 -145q94 0 161 103t67 307q0 274 -182.5 441t-493.5 167q-156 0 -291.5 -54.5t-234 -151.5t-155 -239t-56.5 -309
q0 -116 28 -219.5t86 -191t140.5 -151t198 -99t253.5 -35.5q318 0 510 176h176q-94 -143 -278.5 -229t-411.5 -86zM901 311q82 0 141.5 75t59.5 198q0 86 -42 131t-120 45q-80 0 -133 -73.5t-53 -194.5q0 -83 39.5 -132t107.5 -49z" />
    <glyph glyph-name="A" unicode="A" horiz-adv-x="1474" 
d="M43 0l481 1464h432l476 -1464h-347l-100 326h-530l-101 -326h-311zM721 1194l-195 -633h387z" />
    <glyph glyph-name="B" unicode="B" horiz-adv-x="1349" 
d="M158 0v1464h575q239 0 362.5 -96.5t123.5 -284.5v-8q0 -245 -238 -313q293 -60 293 -344v-8q0 -201 -130.5 -305.5t-383.5 -104.5h-602zM481 229h228q237 0 237 207v8q0 103 -60.5 154t-193.5 51h-211v-420zM481 862h199q119 0 171 45t52 144v8q0 92 -54 135t-171 43
h-197v-375z" />
    <glyph glyph-name="C" unicode="C" horiz-adv-x="1531" 
d="M817 -23q-353 0 -544 200.5t-191 545.5v16q0 164 55.5 304t152 237t231 152t288.5 55q179 0 317 -57t226.5 -178.5t105.5 -297.5h-340q-38 271 -307 271q-174 0 -276.5 -129t-102.5 -355v-16q0 -227 100 -353t281 -126q140 0 228 71t108 209h326q-18 -177 -107 -302
t-229 -186t-322 -61z" />
    <glyph glyph-name="D" unicode="D" horiz-adv-x="1486" 
d="M489 258h136q434 0 434 469v16q0 231 -105.5 347t-332.5 116h-132v-948zM158 0v1464h479q378 0 573 -190t195 -526v-17q0 -165 -48.5 -299t-143 -230.5t-242 -149t-336.5 -52.5h-477z" />
    <glyph glyph-name="E" unicode="E" horiz-adv-x="1218" 
d="M158 0v1464h954v-258h-625v-342h500v-241h-500v-365h658v-258h-987z" />
    <glyph glyph-name="F" unicode="F" horiz-adv-x="1161" 
d="M158 0v1464h940v-260h-609v-387h482v-250h-482v-567h-331z" />
    <glyph glyph-name="G" unicode="G" horiz-adv-x="1597" 
d="M827 -23q-176 0 -318 55.5t-235 155t-142.5 236t-49.5 299.5v16q0 163 56 302.5t154 237t236.5 153t298.5 55.5q126 0 235 -30t199 -90t147.5 -160t70.5 -232h-330q-42 250 -318 250q-189 0 -296 -132t-107 -358v-16q0 -108 24 -195.5t72 -153t127.5 -101.5t184.5 -36
q174 0 260.5 86.5t91.5 223.5h-330v241h658v-155q0 -298 -182.5 -475t-506.5 -177z" />
    <glyph glyph-name="H" unicode="H" horiz-adv-x="1564" 
d="M158 0v1464h331v-598h588v598h332v-1464h-332v604h-588v-604h-331z" />
    <glyph glyph-name="I" unicode="I" horiz-adv-x="665" 
d="M166 0v1464h334v-1464h-334z" />
    <glyph glyph-name="J" unicode="J" horiz-adv-x="935" 
d="M315 -18q-158 0 -243 45v254q95 -35 184 -35q207 0 207 231v987h334v-991q0 -244 -126 -367.5t-356 -123.5z" />
    <glyph glyph-name="K" unicode="K" horiz-adv-x="1404" 
d="M158 0v1464h331v-630l512 632h353l-580 -694l608 -772h-387l-506 657v-657h-331z" />
    <glyph glyph-name="L" unicode="L" horiz-adv-x="1146" 
d="M158 0v1464h331v-1204h596v-260h-927z" />
    <glyph glyph-name="M" unicode="M" horiz-adv-x="1865" 
d="M158 0v1464h438l342 -911l338 911h430v-1464h-330v1028l-405 -1028h-109l-407 1028v-1028h-297z" />
    <glyph glyph-name="N" unicode="N" horiz-adv-x="1552" 
d="M158 0v1464h385l557 -964v964h295v-1464h-332l-610 1042v-1042h-295z" />
    <glyph glyph-name="O" unicode="O" horiz-adv-x="1671" 
d="M840 242q185 0 294 131.5t109 353.5v16q0 217 -109 348.5t-298 131.5q-190 0 -299 -130t-109 -352v-16q0 -221 114.5 -352t297.5 -131zM834 -23q-225 0 -397 97t-263.5 266t-91.5 383v16q0 215 97.5 385.5t269.5 265.5t387 95q218 0 389.5 -92t267.5 -260t96 -385v-17
q0 -217 -92.5 -388t-265 -268.5t-397.5 -97.5z" />
    <glyph glyph-name="P" unicode="P" horiz-adv-x="1282" 
d="M158 0v1464h506q270 0 414.5 -118.5t144.5 -348.5v-8q0 -226 -145.5 -341.5t-403.5 -115.5h-187v-532h-329zM487 764h168q121 0 184.5 57t63.5 166v8q0 114 -63 165.5t-185 51.5h-168v-448z" />
    <glyph glyph-name="Q" unicode="Q" horiz-adv-x="1671" 
d="M1309 -190l-199 210q-134 -43 -276 -43q-225 0 -397 97t-263.5 266t-91.5 383v16q0 215 97.5 385.5t269.5 265.5t387 95q163 0 303 -54t239 -150t155 -233.5t56 -299.5v-17q0 -177 -62.5 -325t-178.5 -250l149 -160zM840 233q12 0 69 5l-139 151l193 180l180 -194
q100 137 100 352v16q0 217 -109 348.5t-298 131.5q-190 0 -299 -129.5t-109 -352.5v-16q0 -228 113.5 -360t298.5 -132z" />
    <glyph glyph-name="R" unicode="R" horiz-adv-x="1376" 
d="M158 0v1464h524q267 0 416 -111t149 -333v-8q0 -157 -81 -252.5t-220 -136.5l387 -623h-352l-350 565h-144v-565h-329zM487 791h187q250 0 250 210v9q0 108 -62 154t-188 46h-187v-419z" />
    <glyph glyph-name="S" unicode="S" horiz-adv-x="1310" 
d="M670 -23q-291 0 -440.5 127t-163.5 355h317q6 -54 21 -93.5t46 -74.5t86.5 -53.5t133.5 -18.5q108 0 174.5 54t66.5 141t-57 126t-219 64q-286 37 -407.5 136.5t-121.5 308.5q0 190 146.5 313t386.5 123q249 0 389 -110.5t160 -327.5h-305q-15 99 -75 146.5t-169 47.5
q-106 0 -162.5 -45t-56.5 -121q0 -82 54.5 -122t217.5 -64q140 -18 234.5 -46.5t165.5 -79t104 -129t33 -190.5q0 -200 -153 -333.5t-406 -133.5z" />
    <glyph glyph-name="T" unicode="T" horiz-adv-x="1222" 
d="M444 0v1206h-395v258h1125v-258h-396v-1206h-334z" />
    <glyph glyph-name="U" unicode="U" horiz-adv-x="1513" 
d="M750 -23q-291 0 -448 152t-157 442v893h334v-872q0 -186 62 -268t211 -82q150 0 216 82t66 280v860h334v-880q0 -297 -160 -452t-458 -155z" />
    <glyph glyph-name="V" unicode="V" horiz-adv-x="1435" 
d="M528 0l-489 1464h350l348 -1124l348 1124h312l-488 -1464h-381z" />
    <glyph glyph-name="W" unicode="W" horiz-adv-x="1988" 
d="M399 0l-356 1464h336l229 -1011l250 1011h283l260 -1018l237 1018h308l-357 -1464h-338l-264 1012l-268 -1012h-320z" />
    <glyph glyph-name="X" unicode="X" horiz-adv-x="1472" 
d="M61 0l465 752l-430 712h375l279 -487l276 487h340l-418 -702l463 -762h-377l-317 545l-316 -545h-340z" />
    <glyph glyph-name="Y" unicode="Y" horiz-adv-x="1327" 
d="M510 0v631l-483 833h364l297 -561l291 561h321l-456 -833v-631h-334z" />
    <glyph glyph-name="Z" unicode="Z" horiz-adv-x="1259" 
d="M37 0v41l698 1165h-620v258h1089v-39l-684 -1165h660v-260h-1143z" />
    <glyph glyph-name="bracketleft" unicode="[" horiz-adv-x="798" 
d="M152 -303v1892h565v-219h-268v-1454h268v-219h-565z" />
    <glyph glyph-name="backslash" unicode="\" horiz-adv-x="866" 
d="M651 -303l-631 1892h242l631 -1892h-242z" />
    <glyph glyph-name="bracketright" unicode="]" horiz-adv-x="798" 
d="M84 -303v219h266v1454h-266v219h563v-1892h-563z" />
    <glyph glyph-name="asciicircum" unicode="^" horiz-adv-x="1069" 
d="M63 817l338 647h267l340 -647h-265l-211 406l-213 -406h-256z" />
    <glyph glyph-name="underscore" unicode="_" horiz-adv-x="858" 
d="M-2 -328v162h862v-162h-862z" />
    <glyph glyph-name="grave" unicode="`" horiz-adv-x="819" 
d="M317 1217l-213 325h312l116 -325h-215z" />
    <glyph glyph-name="a" unicode="a" horiz-adv-x="1155" 
d="M420 -23q-157 0 -258 80t-101 240q0 92 40.5 159t116 107t174.5 59t226 19h121v43q0 101 -38.5 149t-135.5 48q-162 0 -182 -152h-281q9 123 75 207t169 122t238 38q209 0 328.5 -95t119.5 -303v-698h-289v129q-108 -152 -323 -152zM508 184q101 0 166 52t65 139v90h-114
q-136 0 -204.5 -34.5t-68.5 -117.5q0 -61 38.5 -95t117.5 -34z" />
    <glyph glyph-name="b" unicode="b" horiz-adv-x="1304" 
d="M770 -23q-120 0 -209.5 53t-132.5 140v-170h-297v1556h297v-653q48 82 139 137.5t203 55.5q99 0 183.5 -36.5t148 -104.5t99.5 -173t36 -235v-17q0 -130 -35.5 -235.5t-98.5 -174.5t-148 -106t-185 -37zM682 209q123 0 188.5 81.5t65.5 237.5v17q0 158 -69.5 240.5
t-186.5 82.5q-120 0 -191 -83t-71 -240v-17q0 -158 69.5 -238.5t194.5 -80.5z" />
    <glyph glyph-name="c" unicode="c" horiz-adv-x="1183" 
d="M616 -23q-118 0 -218 36.5t-174 104.5t-116 172t-42 232v17q0 168 74.5 296.5t199.5 194.5t278 66q77 0 145.5 -13.5t131.5 -45t110 -78.5t78 -118t39 -161h-280q-29 182 -217 182q-117 0 -186.5 -84t-69.5 -235v-17q0 -160 68 -242.5t194 -82.5q93 0 156 53.5t73 153.5
h268q-12 -195 -147.5 -313t-364.5 -118z" />
    <glyph glyph-name="d" unicode="d" horiz-adv-x="1304" 
d="M532 -23q-203 0 -333.5 142.5t-130.5 400.5v17q0 258 132.5 408.5t338.5 150.5q238 0 338 -185v645h294v-1556h-294v178q-43 -86 -137 -143.5t-208 -57.5zM621 209q121 0 192.5 81.5t71.5 239.5v17q0 158 -66.5 239.5t-189.5 81.5q-125 0 -191.5 -83t-66.5 -242v-17
q0 -155 68 -236t182 -81z" />
    <glyph glyph-name="e" unicode="e" horiz-adv-x="1202" 
d="M625 -23q-248 0 -403.5 146.5t-155.5 398.5v17q0 249 156.5 403t393.5 154q107 0 199 -32t165.5 -96t116 -171t42.5 -246v-82h-772q6 -134 75.5 -207.5t190.5 -73.5q193 0 223 150h281q-26 -173 -159 -267t-353 -94zM371 651h479q-15 240 -234 240q-100 0 -164 -63
t-81 -177z" />
    <glyph glyph-name="f" unicode="f" horiz-adv-x="759" 
d="M180 0v860h-141v211h141v123q0 184 100.5 279.5t282.5 95.5q83 0 154 -21v-223q-52 18 -109 18q-68 0 -100.5 -38t-32.5 -103v-131h234v-211h-234v-860h-295z" />
    <glyph glyph-name="g" unicode="g" horiz-adv-x="1302" 
d="M606 -395q-249 0 -379 98.5t-153 273.5h295q30 -155 237 -155q134 0 202.5 67.5t68.5 194.5v162q-48 -84 -140.5 -141.5t-204.5 -57.5q-200 0 -333 140t-133 372v14q0 228 135 375.5t336 147.5q236 0 340 -185v160h294v-987q-1 -235 -149 -357t-416 -122zM621 270
q118 0 191 79t73 214v15q0 137 -68.5 214.5t-189.5 77.5q-122 0 -190 -80t-68 -215v-16q0 -132 70 -210.5t182 -78.5z" />
    <glyph glyph-name="h" unicode="h" horiz-adv-x="1259" 
d="M131 0v1556h297v-655q43 86 132.5 140.5t215.5 54.5q166 0 263.5 -103.5t97.5 -310.5v-682h-297v639q0 110 -45.5 162.5t-143.5 52.5q-99 0 -161 -61t-62 -175v-618h-297z" />
    <glyph glyph-name="i" unicode="i" horiz-adv-x="575" 
d="M139 0v1071h295v-1071h-295zM285 1217q-71 0 -119.5 46t-48.5 115t48.5 115.5t119.5 46.5q72 0 121 -46.5t49 -115.5t-49 -115t-121 -46z" />
    <glyph glyph-name="j" unicode="j" horiz-adv-x="575" 
d="M-2 -383v221q75 6 108 41t33 101v1091h295v-1089q0 -87 -21.5 -151t-71 -113t-135 -74.5t-208.5 -26.5zM285 1217q-71 0 -119.5 46t-48.5 115t48.5 115.5t119.5 46.5q72 0 121 -46.5t49 -115.5t-49 -115t-121 -46z" />
    <glyph glyph-name="k" unicode="k" horiz-adv-x="1136" 
d="M131 0v1556h297v-938l344 453h315l-389 -487l420 -584h-336l-354 506v-506h-297z" />
    <glyph glyph-name="l" unicode="l" horiz-adv-x="573" 
d="M139 0v1556h295v-1556h-295z" />
    <glyph glyph-name="m" unicode="m" horiz-adv-x="1890" 
d="M131 0v1071h297v-164q43 81 129 135t199 54q224 0 299 -187q62 93 158 140t202 47q158 0 255 -103t97 -307v-686h-294v653q0 199 -168 199q-90 0 -148.5 -57t-58.5 -162v-633h-295v653q0 100 -44 149.5t-124 49.5q-90 0 -148.5 -57t-58.5 -162v-633h-297z" />
    <glyph glyph-name="n" unicode="n" horiz-adv-x="1259" 
d="M131 0v1071h297v-170q43 86 132.5 140.5t215.5 54.5q166 0 263.5 -103.5t97.5 -310.5v-682h-297v639q0 110 -45.5 162.5t-143.5 52.5q-99 0 -161 -61t-62 -175v-618h-297z" />
    <glyph glyph-name="o" unicode="o" horiz-adv-x="1261" 
d="M631 203q124 0 193 86t69 239v15q0 154 -69 240.5t-193 86.5q-123 0 -192.5 -85t-69.5 -238v-17q0 -155 68.5 -241t193.5 -86zM629 -23q-159 0 -286.5 66.5t-202 192t-74.5 288.5v17q0 165 74 292t202 195t289 68q245 0 404 -151t159 -398v-17q0 -166 -74 -292.5
t-202 -193.5t-289 -67z" />
    <glyph glyph-name="p" unicode="p" horiz-adv-x="1304" 
d="M131 -365v1436h297v-168q48 82 139 137.5t203 55.5q99 0 183.5 -36.5t148 -104.5t99.5 -173t36 -235v-17q0 -130 -35.5 -235.5t-98.5 -174.5t-148 -106t-185 -37q-119 0 -208.5 52.5t-133.5 134.5v-529h-297zM682 209q123 0 188.5 81.5t65.5 237.5v17q0 158 -69.5 240.5
t-186.5 82.5q-120 0 -191 -83t-71 -240v-17q0 -158 69.5 -238.5t194.5 -80.5z" />
    <glyph glyph-name="q" unicode="q" horiz-adv-x="1304" 
d="M877 -365v537q-44 -81 -138 -138t-207 -57q-203 0 -333.5 142.5t-130.5 400.5v17q0 258 132.5 408.5t338.5 150.5q238 0 338 -185v160h294v-1436h-294zM621 209q121 0 192.5 81.5t71.5 239.5v17q0 158 -66.5 239.5t-189.5 81.5q-125 0 -191.5 -83t-66.5 -242v-17
q0 -155 68 -236t182 -81z" />
    <glyph glyph-name="r" unicode="r" horiz-adv-x="837" 
d="M131 0v1071h297v-205q52 110 135 165t211 56v-276q-172 2 -259 -62t-87 -212v-537h-297z" />
    <glyph glyph-name="s" unicode="s" horiz-adv-x="1028" 
d="M520 -23q-217 0 -338.5 93t-128.5 266h277q10 -76 52.5 -114t135.5 -38q168 0 168 117q0 54 -49 81.5t-168 45.5q-217 33 -306 106t-89 228q0 81 35 146t95 105t135 61.5t159 21.5q406 0 442 -332h-272q-12 67 -52 98t-116 31q-71 0 -111.5 -30.5t-40.5 -80.5t44 -74
t163 -42q108 -16 179.5 -37.5t128 -59t82.5 -96.5t26 -143q0 -172 -118 -262.5t-333 -90.5z" />
    <glyph glyph-name="t" unicode="t" horiz-adv-x="772" 
d="M522 -20q-169 0 -257.5 85t-88.5 252v543h-137v211h137v232h295v-232h225v-211h-225v-516q0 -127 119 -127q60 0 112 21v-230q-82 -28 -180 -28z" />
    <glyph glyph-name="u" unicode="u" horiz-adv-x="1253" 
d="M487 -23q-165 0 -264.5 101t-99.5 303v690h295v-649q0 -109 45.5 -162t140.5 -53q98 0 160.5 60.5t62.5 174.5v629h295v-1071h-295v168q-44 -87 -129 -139t-211 -52z" />
    <glyph glyph-name="v" unicode="v" horiz-adv-x="1171" 
d="M420 0l-391 1071h317l256 -766l254 766h287l-389 -1071h-334z" />
    <glyph glyph-name="w" unicode="w" horiz-adv-x="1691" 
d="M358 0l-325 1071h311l191 -721l206 721h244l189 -721l202 721h285l-338 -1071h-291l-182 672l-197 -672h-295z" />
    <glyph glyph-name="x" unicode="x" horiz-adv-x="1175" 
d="M35 0l366 547l-342 524h340l201 -321l197 321h307l-342 -502l377 -569h-342l-226 360l-231 -360h-305z" />
    <glyph glyph-name="y" unicode="y" horiz-adv-x="1161" 
d="M266 -365l189 474l-426 962h319l260 -643l240 643h285l-580 -1436h-287z" />
    <glyph glyph-name="z" unicode="z" horiz-adv-x="1021" 
d="M29 0v33l528 809h-475v229h905v-37l-532 -805h512v-229h-938z" />
    <glyph glyph-name="braceleft" unicode="{" horiz-adv-x="829" 
d="M745 -301q-286 0 -409.5 109t-83.5 346l33 188q15 87 -37 143t-178 56v211q126 0 178 56t37 142l-33 187q-42 241 81.5 348.5t411.5 107.5v-217q-132 -5 -178 -54.5t-26 -178.5l30 -219q15 -105 -41 -177.5t-165 -99.5q111 -25 166 -97t40 -179l-30 -217
q-20 -131 26.5 -183t177.5 -57v-215z" />
    <glyph glyph-name="bar" unicode="|" horiz-adv-x="536" 
d="M162 -303v1892h213v-1892h-213z" />
    <glyph glyph-name="braceright" unicode="}" horiz-adv-x="829" 
d="M82 -301v215q133 5 179 56.5t28 183.5l-31 217q-15 107 40.5 179t166.5 97q-111 27 -166.5 99t-40.5 178l31 219q18 130 -28 179t-179 54v217q288 0 412 -107.5t84 -348.5l-33 -187q-15 -86 37 -142t176 -56v-211q-124 0 -176 -56.5t-37 -142.5l33 -188q40 -237 -85 -346
t-411 -109z" />
    <glyph glyph-name="asciitilde" unicode="~" horiz-adv-x="1007" 
d="M70 446q10 176 86.5 264.5t183.5 88.5q62 0 123 -24.5t108 -48.5t74 -24q37 0 61.5 26t30.5 75h201q-7 -170 -85 -262t-183 -92q-63 0 -124.5 24t-108.5 48t-75 24q-38 0 -62 -26.5t-30 -72.5h-200z" />
    <glyph glyph-name="uni00A0" unicode="&#xa0;" horiz-adv-x="544" 
 />
    <glyph glyph-name="exclamdown" unicode="&#xa1;" horiz-adv-x="649" 
d="M158 -240l45 1008h241l45 -1008h-331zM326 889q-77 0 -133 52t-56 126q0 73 56 124.5t133 51.5t131.5 -51.5t54.5 -124.5q0 -75 -54.5 -126.5t-131.5 -51.5z" />
    <glyph glyph-name="cent" unicode="&#xa2;" horiz-adv-x="1196" 
d="M557 -276v258q-221 21 -356 162.5t-135 377.5v17q0 155 65 276t175 190.5t251 86.5v196h145v-196q180 -14 300.5 -117.5t138.5 -294.5h-277q-10 77 -52.5 123.5t-109.5 62.5v-671q76 18 125 72t58 141h262q-12 -178 -131 -292.5t-314 -133.5v-258h-145zM360 526
q0 -136 51.5 -219t145.5 -108v665q-91 -25 -144 -108.5t-53 -212.5v-17z" />
    <glyph glyph-name="sterling" unicode="&#xa3;" horiz-adv-x="1300" 
d="M80 608v203h117q-31 114 -31 221q0 138 69 242t187 157.5t266 53.5q244 0 374 -121.5t142 -333.5h-305q-18 103 -65 152t-138 49q-90 0 -145 -58.5t-55 -154.5q0 -97 20 -207h391v-203h-350q14 -93 14 -170q0 -62 -24 -125q31 -9 87.5 -29t93.5 -30t67 -10q141 0 149 141
h295q-9 -180 -109 -291.5t-276 -111.5q-85 0 -172 28.5t-156 57t-110 28.5q-52 0 -80 -27t-33 -69h-252q8 110 63.5 199.5t153.5 122.5q19 63 19 116q0 67 -29 170h-178z" />
    <glyph glyph-name="yen" unicode="&#xa5;" horiz-adv-x="1271" 
d="M145 592v137h295l-405 735h360l264 -544l259 544h317l-383 -735h297v-137h-336v-125h336v-135h-336v-332h-332v332h-336v135h336v125h-336z" />
    <glyph glyph-name="brokenbar" unicode="&#xa6;" horiz-adv-x="544" 
d="M162 -303v917h213v-917h-213zM162 758v831h213v-831h-213z" />
    <glyph glyph-name="section" unicode="&#xa7;" horiz-adv-x="1191" 
d="M580 -281q-197 0 -310.5 96t-119.5 265h276q10 -152 156 -152q75 0 113 34.5t38 92.5q0 60 -50 93.5t-194 68.5q-104 25 -178 54.5t-133.5 73.5t-89 107t-29.5 146q0 100 60.5 172t165.5 107q-105 91 -105 245q0 162 123.5 262.5t308.5 100.5q194 0 305 -94.5t117 -262.5
h-272q-6 71 -42 107.5t-112 36.5q-73 0 -111 -35t-38 -92q0 -62 46.5 -94.5t188.5 -67.5q85 -20 145 -40t119 -51t95 -69t58 -94t22 -127q0 -95 -59.5 -168t-164.5 -112q103 -89 103 -244q0 -157 -122 -258t-310 -101zM723 430q123 29 123 131q0 61 -47.5 91.5t-173.5 68.5
l-156 47q-58 -10 -90.5 -45t-32.5 -88q0 -57 50.5 -89t174.5 -69z" />
    <glyph glyph-name="dieresis" unicode="&#xa8;" horiz-adv-x="819" 
d="M201 1229q-63 0 -107.5 43t-44.5 104t44.5 104.5t107.5 43.5t107 -43t44 -105q0 -61 -44 -104t-107 -43zM618 1229q-63 0 -107 43t-44 104q0 62 44 105t107 43t107.5 -43.5t44.5 -104.5t-44.5 -104t-107.5 -43z" />
    <glyph glyph-name="copyright" unicode="&#xa9;" horiz-adv-x="1726" 
d="M872 311q-201 0 -309 111t-108 301v16q0 185 116 299.5t295 114.5q161 0 261 -77.5t112 -229.5h-223q-19 133 -150 133q-86 0 -134 -62t-48 -178v-14q0 -116 47.5 -177t138.5 -61q68 0 111.5 36t52.5 106h213q-10 -153 -112 -235.5t-263 -82.5zM862 66q178 0 327.5 83
t240 237.5t90.5 348.5q0 192 -88.5 345t-237.5 236t-328 83q-136 0 -257.5 -49.5t-210 -136t-140 -212t-51.5 -270.5q0 -146 53 -271.5t142.5 -211t209 -134t250.5 -48.5zM862 -33q-158 0 -300.5 59t-246 160.5t-164.5 243.5t-61 301q0 126 38.5 243t110 211t166.5 164.5
t214 109t247 38.5q215 0 392.5 -101.5t278.5 -276.5t101 -384q0 -213 -103.5 -390t-281.5 -277.5t-391 -100.5z" />
    <glyph glyph-name="ordfeminine" unicode="&#xaa;" horiz-adv-x="942" 
d="M346 590q-126 0 -207.5 64t-81.5 192q0 144 115 207t330 63h96v39q0 70 -29 103.5t-96 33.5q-115 0 -133 -108h-250q10 146 117 222.5t278 76.5q177 0 275 -78t98 -244v-551h-256v101q-82 -121 -256 -121zM430 774q74 0 121 36t47 99v64h-88q-191 0 -191 -107
q0 -92 111 -92z" />
    <glyph glyph-name="guillemotleft" unicode="&#xab;" horiz-adv-x="997" 
d="M344 154l-260 381l260 380h211l-250 -380l250 -381h-211zM711 154l-260 381l260 380h211l-250 -380l250 -381h-211z" />
    <glyph glyph-name="registered" unicode="&#xae;" horiz-adv-x="1056" 
d="M360 811v449h175q88 0 135 -36t47 -106v-2q0 -86 -82 -121l108 -184h-131l-92 162h-33v-162h-127zM487 1055h41q66 0 66 55v2q0 51 -66 51h-41v-108zM528 653q162 0 269.5 105.5t107.5 271.5q0 167 -106 272t-271 105t-270.5 -106t-105.5 -273q0 -166 107.5 -270.5
t268.5 -104.5zM528 575q-194 0 -329.5 131t-135.5 322q0 190 135.5 323.5t329.5 133.5q129 0 235.5 -61t167 -165.5t60.5 -228.5q0 -126 -61.5 -230.5t-168 -164.5t-233.5 -60z" />
    <glyph glyph-name="macron" unicode="&#xaf;" horiz-adv-x="819" 
d="M111 1280v178h596v-178h-596z" />
    <glyph glyph-name="degree" unicode="&#xb0;" horiz-adv-x="907" 
d="M455 934q81 0 132.5 59t51.5 146q0 90 -51.5 149.5t-132.5 59.5q-83 0 -137 -59.5t-54 -149.5q0 -87 54 -146t137 -59zM455 799q-146 0 -249.5 100.5t-103.5 239.5q0 141 103.5 242.5t249.5 101.5t248 -101t102 -243q0 -139 -102.5 -239.5t-247.5 -100.5z" />
    <glyph glyph-name="plusminus" unicode="&#xb1;" horiz-adv-x="1128" 
d="M444 338v350h-368v221h368v353h242v-353h369v-221h-369v-350h-242zM76 0v205h981v-205h-981z" />
    <glyph glyph-name="twosuperior" unicode="&#xb2;" horiz-adv-x="673" 
d="M12 721v29l262 274q66 68 97.5 115t31.5 90q0 37 -19.5 58.5t-57.5 21.5q-83 0 -97 -117h-202q6 136 87.5 209.5t221.5 73.5q138 0 211.5 -64t73.5 -168q0 -71 -37.5 -132.5t-110.5 -131.5l-100 -98h254v-160h-615z" />
    <glyph glyph-name="threesuperior" unicode="&#xb3;" horiz-adv-x="718" 
d="M356 707q-156 0 -234 69t-83 189h197q5 -46 31.5 -73.5t76.5 -27.5q48 0 73 22.5t25 61.5q0 84 -102 84h-59v131h57q100 0 100 82q0 33 -21 53.5t-61 20.5q-41 0 -67.5 -24.5t-32.5 -67.5h-197q8 111 86 179.5t215 68.5q135 0 212 -55.5t77 -149.5q0 -123 -131 -160
q67 -12 108.5 -57t41.5 -111q0 -108 -81.5 -171.5t-230.5 -63.5z" />
    <glyph glyph-name="acute" unicode="&#xb4;" horiz-adv-x="819" 
d="M287 1217l116 325h312l-213 -325h-215z" />
    <glyph glyph-name="paragraph" unicode="&#xb6;" horiz-adv-x="1155" 
d="M539 -205v891h-21q-207 0 -327.5 98t-120.5 285q0 193 122.5 294t325.5 101h477v-1669h-151v1544h-156v-1544h-149z" />
    <glyph glyph-name="periodcentered" unicode="&#xb7;" horiz-adv-x="600" 
d="M299 489q-76 0 -129 53t-53 128q0 74 53 126t129 52q78 0 131 -52t53 -126q0 -75 -53 -128t-131 -53z" />
    <glyph glyph-name="cedilla" unicode="&#xb8;" horiz-adv-x="819" 
d="M420 -455q-102 0 -165.5 49t-74.5 136h152q5 -27 25 -45.5t53 -18.5t52 19t19 49q0 28 -18.5 45.5t-50.5 17.5q-40 0 -64 -20l-74 71l93 152h133l-60 -98q88 10 150.5 -35t62.5 -137q0 -87 -64.5 -136t-168.5 -49z" />
    <glyph glyph-name="onesuperior" unicode="&#xb9;" horiz-adv-x="544" 
d="M211 721v528l-168 -100v182l199 133h194v-743h-225z" />
    <glyph glyph-name="ordmasculine" unicode="&#xba;" horiz-adv-x="1046" 
d="M524 791q91 0 139 63t48 178v12q0 113 -48.5 175.5t-138.5 62.5q-89 0 -138.5 -62t-49.5 -176v-12q0 -116 48 -178.5t140 -62.5zM522 590q-198 0 -327 118.5t-129 315.5v12q0 202 129.5 324.5t328.5 122.5t328 -119t129 -317v-13q0 -202 -130 -323t-329 -121z" />
    <glyph glyph-name="guillemotright" unicode="&#xbb;" horiz-adv-x="997" 
d="M78 154l248 381l-248 380h211l258 -380l-258 -381h-211zM444 154l248 381l-248 380h211l258 -380l-258 -381h-211z" />
    <glyph glyph-name="onequarter" unicode="&#xbc;" horiz-adv-x="1542" 
d="M217 721v528l-168 -100v182l199 133h194v-743h-225zM123 0l1106 1464h172l-1106 -1464h-172zM1184 0v141h-371v82l317 520h269v-450h96v-152h-96v-141h-215zM1016 293h174v299z" />
    <glyph glyph-name="onehalf" unicode="&#xbd;" horiz-adv-x="1556" 
d="M96 0l1106 1464h172l-1106 -1464h-172zM217 721v528l-168 -100v182l199 133h194v-743h-225zM887 0v31l262 274q66 66 97.5 113.5t31.5 91.5q0 37 -20 58.5t-58 21.5q-81 0 -96 -119h-203q6 136 87.5 209.5t221.5 73.5q138 0 211.5 -64t73.5 -168q0 -70 -37.5 -132.5
t-109.5 -131.5l-101 -96h254v-162h-614z" />
    <glyph glyph-name="threequarters" unicode="&#xbe;" horiz-adv-x="1583" 
d="M362 707q-156 0 -234 69t-83 189h197q5 -46 31.5 -73.5t76.5 -27.5q48 0 73.5 22.5t25.5 61.5q0 84 -103 84h-59v131h57q100 0 100 82q0 33 -21 53.5t-61 20.5q-41 0 -67.5 -24.5t-32.5 -67.5h-196q8 111 86 179.5t215 68.5q135 0 211.5 -55t76.5 -150q0 -123 -131 -160
q67 -12 108.5 -57t41.5 -111q0 -108 -81.5 -171.5t-230.5 -63.5zM211 0l1106 1464h172l-1106 -1464h-172zM1221 0v141h-371v82l317 520h269v-450h96v-152h-96v-141h-215zM1053 293h174v299z" />
    <glyph glyph-name="questiondown" unicode="&#xbf;" horiz-adv-x="1089" 
d="M735 768v-61q0 -46 -13 -90.5t-29.5 -75.5t-49 -70.5t-52 -59t-59.5 -57.5q-70 -66 -104.5 -114.5t-34.5 -104.5q0 -73 39 -113t119 -40q84 0 138 57t65 154h284q-9 -210 -147 -330.5t-359 -120.5t-338.5 100.5t-117.5 268.5q0 94 44 167.5t124 151.5q13 13 56.5 54
t60.5 59t44.5 51.5t40 62.5t15.5 60v51h274zM600 1243q78 0 132 -51t54 -125t-54 -126t-132 -52q-77 0 -131.5 52.5t-54.5 125.5t54.5 124.5t131.5 51.5z" />
    <glyph glyph-name="Agrave" unicode="&#xc0;" horiz-adv-x="1474" 
d="M43 0l481 1464h432l476 -1464h-347l-100 326h-530l-101 -326h-311zM721 1194l-195 -633h387zM639 1563l-203 284h320l106 -284h-223z" />
    <glyph glyph-name="Aacute" unicode="&#xc1;" horiz-adv-x="1474" 
d="M43 0l481 1464h432l476 -1464h-347l-100 326h-530l-101 -326h-311zM721 1194l-195 -633h387zM608 1563l109 284h321l-207 -284h-223z" />
    <glyph glyph-name="Acircumflex" unicode="&#xc2;" horiz-adv-x="1474" 
d="M43 0l481 1464h432l476 -1464h-347l-100 326h-530l-101 -326h-311zM721 1194l-195 -633h387zM383 1563l229 284h252l221 -284h-213l-139 108l-141 -108h-209z" />
    <glyph glyph-name="Atilde" unicode="&#xc3;" horiz-adv-x="1474" 
d="M43 0l481 1464h432l476 -1464h-347l-100 326h-530l-101 -326h-311zM860 1565q-45 0 -91.5 18.5t-83.5 37.5t-60 19q-27 0 -46.5 -21t-25.5 -54h-176q10 137 74.5 211.5t158.5 74.5q54 0 131.5 -38.5t106.5 -38.5q27 0 45.5 21t24.5 54h178q-12 -136 -78 -210t-158 -74z
M721 1194l-195 -633h387z" />
    <glyph glyph-name="Adieresis" unicode="&#xc4;" horiz-adv-x="1474" 
d="M43 0l481 1464h432l476 -1464h-347l-100 326h-530l-101 -326h-311zM721 1194l-195 -633h387zM514 1575q-63 0 -107.5 43.5t-44.5 105.5q0 61 44.5 104.5t107.5 43.5q62 0 107 -43.5t45 -104.5t-45 -105t-107 -44zM954 1575q-62 0 -105.5 43.5t-43.5 105.5
q0 61 43.5 104.5t105.5 43.5q63 0 107.5 -43.5t44.5 -104.5q0 -62 -44.5 -105.5t-107.5 -43.5z" />
    <glyph glyph-name="Aring" unicode="&#xc5;" horiz-adv-x="1474" 
d="M43 0l481 1464h432l476 -1464h-347l-100 326h-530l-101 -326h-311zM735 1536q-97 0 -166 66.5t-69 160.5q0 95 69 162.5t166 67.5t166.5 -67.5t69.5 -162.5q0 -94 -69.5 -160.5t-166.5 -66.5zM721 1194l-195 -633h387zM735 1655q43 0 72 30.5t29 77.5t-29 79t-72 32
q-44 0 -72 -31.5t-28 -79.5q0 -47 28 -77.5t72 -30.5z" />
    <glyph glyph-name="AE" unicode="&#xc6;" horiz-adv-x="2013" 
d="M35 0l696 1464h1176v-258h-615v-342h490v-241h-490v-365h650v-258h-981v344h-447l-158 -344h-321zM911 1206l-290 -633h340v633h-50z" />
    <glyph glyph-name="Ccedilla" unicode="&#xc7;" horiz-adv-x="1531" 
d="M776 -455q-102 0 -165 49t-74 136h151q5 -27 25 -45.5t53 -18.5t52.5 19t19.5 49q0 28 -19 45.5t-51 17.5q-39 0 -63 -20l-74 71l82 136q-305 29 -468 225t-163 514v16q0 164 55.5 304t152 237t231 152t288.5 55q179 0 317 -57t226.5 -178.5t105.5 -297.5h-340
q-38 271 -307 271q-174 0 -276.5 -129t-102.5 -355v-16q0 -227 100 -353t281 -126q140 0 228 71t108 209h326q-27 -260 -196 -400.5t-437 -148.5l-45 -75q88 10 150.5 -35t62.5 -137q0 -87 -65 -136t-169 -49z" />
    <glyph glyph-name="Egrave" unicode="&#xc8;" horiz-adv-x="1218" 
d="M553 1563l-203 284h320l106 -284h-223zM158 0v1464h954v-258h-625v-342h500v-241h-500v-365h658v-258h-987z" />
    <glyph glyph-name="Eacute" unicode="&#xc9;" horiz-adv-x="1218" 
d="M522 1563l109 284h321l-207 -284h-223zM158 0v1464h954v-258h-625v-342h500v-241h-500v-365h658v-258h-987z" />
    <glyph glyph-name="Ecircumflex" unicode="&#xca;" horiz-adv-x="1218" 
d="M297 1563l229 284h252l221 -284h-213l-139 108l-141 -108h-209zM158 0v1464h954v-258h-625v-342h500v-241h-500v-365h658v-258h-987z" />
    <glyph glyph-name="Edieresis" unicode="&#xcb;" horiz-adv-x="1218" 
d="M158 0v1464h954v-258h-625v-342h500v-241h-500v-365h658v-258h-987zM428 1575q-63 0 -107.5 43.5t-44.5 105.5q0 61 44.5 104.5t107.5 43.5q62 0 107 -43.5t45 -104.5t-45 -105t-107 -44zM868 1575q-62 0 -105.5 43.5t-43.5 105.5q0 61 43.5 104.5t105.5 43.5
q63 0 107.5 -43.5t44.5 -104.5q0 -62 -44.5 -105.5t-107.5 -43.5z" />
    <glyph glyph-name="Igrave" unicode="&#xcc;" horiz-adv-x="665" 
d="M166 0v1464h334v-1464h-334zM236 1563l-203 284h319l107 -284h-223z" />
    <glyph glyph-name="Iacute" unicode="&#xcd;" horiz-adv-x="665" 
d="M166 0v1464h334v-1464h-334zM205 1563l108 284h322l-207 -284h-223z" />
    <glyph glyph-name="Icircumflex" unicode="&#xce;" horiz-adv-x="665" 
d="M166 0v1464h334v-1464h-334zM-20 1563l229 284h252l221 -284h-213l-139 108l-142 -108h-208z" />
    <glyph glyph-name="Idieresis" unicode="&#xcf;" horiz-adv-x="665" 
d="M166 0v1464h334v-1464h-334zM111 1575q-63 0 -107.5 43.5t-44.5 105.5q0 61 44.5 104.5t107.5 43.5q62 0 106.5 -43.5t44.5 -104.5t-44.5 -105t-106.5 -44zM551 1575q-62 0 -106 44t-44 105t44 104.5t106 43.5q63 0 107 -43t44 -105t-44 -105.5t-107 -43.5z" />
    <glyph glyph-name="Eth" unicode="&#xd0;" horiz-adv-x="1542" 
d="M63 621v229h134v614h479q378 0 573 -190t195 -526v-17q0 -165 -48.5 -299t-143 -230.5t-242 -149t-336.5 -52.5h-477v621h-134zM524 258h140q434 0 434 469v16q0 231 -105 347t-331 116h-138v-356h310v-229h-310v-363z" />
    <glyph glyph-name="Ntilde" unicode="&#xd1;" horiz-adv-x="1552" 
d="M932 1565q-45 0 -91.5 18.5t-84 37.5t-60.5 19q-27 0 -46 -21t-25 -54h-176q10 137 74.5 211.5t158.5 74.5q54 0 131.5 -38.5t106.5 -38.5q27 0 45 20.5t24 54.5h178q-12 -136 -77.5 -210t-157.5 -74zM158 0v1464h385l557 -964v964h295v-1464h-332l-610 1042v-1042h-295z
" />
    <glyph glyph-name="Ograve" unicode="&#xd2;" horiz-adv-x="1671" 
d="M737 1563l-202 284h319l107 -284h-224zM840 242q185 0 294 131.5t109 353.5v16q0 217 -109 348.5t-298 131.5q-190 0 -299 -130t-109 -352v-16q0 -221 114.5 -352t297.5 -131zM834 -23q-225 0 -397 97t-263.5 266t-91.5 383v16q0 215 97.5 385.5t269.5 265.5t387 95
q218 0 389.5 -92t267.5 -260t96 -385v-17q0 -217 -92.5 -388t-265 -268.5t-397.5 -97.5z" />
    <glyph glyph-name="Oacute" unicode="&#xd3;" horiz-adv-x="1671" 
d="M707 1563l108 284h322l-207 -284h-223zM840 242q185 0 294 131.5t109 353.5v16q0 217 -109 348.5t-298 131.5q-190 0 -299 -130t-109 -352v-16q0 -221 114.5 -352t297.5 -131zM834 -23q-225 0 -397 97t-263.5 266t-91.5 383v16q0 215 97.5 385.5t269.5 265.5t387 95
q218 0 389.5 -92t267.5 -260t96 -385v-17q0 -217 -92.5 -388t-265 -268.5t-397.5 -97.5z" />
    <glyph glyph-name="Ocircumflex" unicode="&#xd4;" horiz-adv-x="1671" 
d="M481 1563l230 284h252l221 -284h-213l-140 108l-141 -108h-209zM840 242q185 0 294 131.5t109 353.5v16q0 217 -109 348.5t-298 131.5q-190 0 -299 -130t-109 -352v-16q0 -221 114.5 -352t297.5 -131zM834 -23q-225 0 -397 97t-263.5 266t-91.5 383v16q0 215 97.5 385.5
t269.5 265.5t387 95q218 0 389.5 -92t267.5 -260t96 -385v-17q0 -217 -92.5 -388t-265 -268.5t-397.5 -97.5z" />
    <glyph glyph-name="Otilde" unicode="&#xd5;" horiz-adv-x="1671" 
d="M958 1565q-45 0 -91.5 18.5t-83.5 37.5t-60 19q-27 0 -46.5 -21t-25.5 -54h-176q10 137 75 211.5t159 74.5q54 0 131 -38.5t106 -38.5q27 0 45.5 21t24.5 54h178q-12 -136 -78 -210t-158 -74zM840 242q185 0 294 131.5t109 353.5v16q0 217 -109 348.5t-298 131.5
q-190 0 -299 -130t-109 -352v-16q0 -221 114.5 -352t297.5 -131zM834 -23q-225 0 -397 97t-263.5 266t-91.5 383v16q0 215 97.5 385.5t269.5 265.5t387 95q218 0 389.5 -92t267.5 -260t96 -385v-17q0 -217 -92.5 -388t-265 -268.5t-397.5 -97.5z" />
    <glyph glyph-name="Odieresis" unicode="&#xd6;" horiz-adv-x="1671" 
d="M612 1575q-63 0 -107 43.5t-44 105.5t44 105t107 43q62 0 107 -43.5t45 -104.5t-45 -105t-107 -44zM1053 1575q-62 0 -106 44t-44 105t44 104.5t106 43.5q63 0 107 -43t44 -105t-44 -105.5t-107 -43.5zM840 242q185 0 294 131.5t109 353.5v16q0 217 -109 348.5
t-298 131.5q-190 0 -299 -130t-109 -352v-16q0 -221 114.5 -352t297.5 -131zM834 -23q-225 0 -397 97t-263.5 266t-91.5 383v16q0 215 97.5 385.5t269.5 265.5t387 95q218 0 389.5 -92t267.5 -260t96 -385v-17q0 -217 -92.5 -388t-265 -268.5t-397.5 -97.5z" />
    <glyph glyph-name="multiply" unicode="&#xd7;" horiz-adv-x="1093" 
d="M233 215l-157 158l313 313l-317 315l157 160l316 -317l315 313l158 -158l-313 -313l317 -315l-162 -160l-315 317z" />
    <glyph glyph-name="Oslash" unicode="&#xd8;" horiz-adv-x="1671" 
d="M178 -66l-110 109l178 190q-164 196 -164 490v16q0 215 97.5 385.5t269.5 265.5t387 95q259 0 454 -133l156 166l110 -111l-149 -160q182 -201 182 -499v-17q0 -218 -92.5 -389t-265 -268t-397.5 -97q-281 0 -478 148zM840 242q187 0 297 131.5t110 353.5v16
q0 157 -57 271l-627 -670q108 -102 277 -102zM424 725q0 -144 47 -250l621 664q-105 84 -256 84q-192 0 -302 -129.5t-110 -352.5v-16z" />
    <glyph glyph-name="Ugrave" unicode="&#xd9;" horiz-adv-x="1513" 
d="M657 1563l-202 284h319l107 -284h-224zM750 -23q-291 0 -448 152t-157 442v893h334v-872q0 -186 62 -268t211 -82q150 0 216 82t66 280v860h334v-880q0 -297 -160 -452t-458 -155z" />
    <glyph glyph-name="Uacute" unicode="&#xda;" horiz-adv-x="1513" 
d="M627 1563l108 284h322l-207 -284h-223zM750 -23q-291 0 -448 152t-157 442v893h334v-872q0 -186 62 -268t211 -82q150 0 216 82t66 280v860h334v-880q0 -297 -160 -452t-458 -155z" />
    <glyph glyph-name="Ucircumflex" unicode="&#xdb;" horiz-adv-x="1513" 
d="M401 1563l230 284h252l221 -284h-213l-139 108l-142 -108h-209zM750 -23q-291 0 -448 152t-157 442v893h334v-872q0 -186 62 -268t211 -82q150 0 216 82t66 280v860h334v-880q0 -297 -160 -452t-458 -155z" />
    <glyph glyph-name="Udieresis" unicode="&#xdc;" horiz-adv-x="1513" 
d="M750 -23q-291 0 -448 152t-157 442v893h334v-872q0 -186 62 -268t211 -82q150 0 216 82t66 280v860h334v-880q0 -297 -160 -452t-458 -155zM532 1575q-63 0 -107 43.5t-44 105.5t44 105t107 43q62 0 107 -43.5t45 -104.5t-45 -105t-107 -44zM973 1575q-62 0 -106 44
t-44 105t44 104.5t106 43.5q63 0 107 -43t44 -105t-44 -105.5t-107 -43.5z" />
    <glyph glyph-name="Yacute" unicode="&#xdd;" horiz-adv-x="1327" 
d="M510 0v631l-483 833h364l297 -561l291 561h321l-456 -833v-631h-334zM545 1563l108 284h322l-207 -284h-223z" />
    <glyph glyph-name="Thorn" unicode="&#xde;" horiz-adv-x="1282" 
d="M158 0v1464h329v-252h177q272 0 415.5 -111.5t143.5 -340.5v-8q0 -225 -145.5 -339t-403.5 -114h-187v-299h-329zM487 532h168q122 0 185 55.5t63 164.5v8q0 112 -62.5 161.5t-185.5 49.5h-168v-439z" />
    <glyph glyph-name="germandbls" unicode="&#xdf;" horiz-adv-x="1267" 
d="M745 -20q-101 0 -192 26v230q60 -25 129 -25q221 0 221 262v12q0 146 -86.5 216.5t-238.5 68.5v225q118 -1 175.5 58t57.5 141v8q0 84 -48.5 130t-139.5 46q-90 0 -143.5 -60.5t-53.5 -164.5v-1153h-295v1130q0 111 40.5 199t111 142.5t160.5 83t194 28.5
q210 0 332.5 -98.5t122.5 -274.5v-4q0 -103 -67 -187t-177 -118q157 -37 256.5 -149.5t99.5 -280.5v-14q0 -122 -35.5 -215.5t-99 -149.5t-145 -84t-179.5 -28z" />
    <glyph glyph-name="agrave" unicode="&#xe0;" horiz-adv-x="1155" 
d="M420 -23q-157 0 -258 80t-101 240q0 92 40.5 159t116 107t174.5 59t226 19h121v43q0 101 -38.5 149t-135.5 48q-162 0 -182 -152h-281q9 123 75 207t169 122t238 38q209 0 328.5 -95t119.5 -303v-698h-289v129q-108 -152 -323 -152zM508 184q101 0 166 52t65 139v90h-114
q-136 0 -204.5 -34.5t-68.5 -117.5q0 -61 38.5 -95t117.5 -34zM485 1217l-213 325h312l116 -325h-215z" />
    <glyph glyph-name="aacute" unicode="&#xe1;" horiz-adv-x="1155" 
d="M420 -23q-157 0 -258 80t-101 240q0 92 40.5 159t116 107t174.5 59t226 19h121v43q0 101 -38.5 149t-135.5 48q-162 0 -182 -152h-281q9 123 75 207t169 122t238 38q209 0 328.5 -95t119.5 -303v-698h-289v129q-108 -152 -323 -152zM508 184q101 0 166 52t65 139v90h-114
q-136 0 -204.5 -34.5t-68.5 -117.5q0 -61 38.5 -95t117.5 -34zM463 1217l117 325h311l-213 -325h-215z" />
    <glyph glyph-name="acircumflex" unicode="&#xe2;" horiz-adv-x="1155" 
d="M420 -23q-157 0 -258 80t-101 240q0 92 40.5 159t116 107t174.5 59t226 19h121v43q0 101 -38.5 149t-135.5 48q-162 0 -182 -152h-281q9 123 75 207t169 122t238 38q209 0 328.5 -95t119.5 -303v-698h-289v129q-108 -152 -323 -152zM508 184q101 0 166 52t65 139v90h-114
q-136 0 -204.5 -34.5t-68.5 -117.5q0 -61 38.5 -95t117.5 -34zM219 1219l240 319h223l233 -319h-208l-142 129l-143 -129h-203z" />
    <glyph glyph-name="atilde" unicode="&#xe3;" horiz-adv-x="1155" 
d="M420 -23q-157 0 -258 80t-101 240q0 92 40.5 159t116 107t174.5 59t226 19h121v43q0 101 -38.5 149t-135.5 48q-162 0 -182 -152h-281q9 123 75 207t169 122t238 38q209 0 328.5 -95t119.5 -303v-698h-289v129q-108 -152 -323 -152zM508 184q101 0 166 52t65 139v90h-114
q-136 0 -204.5 -34.5t-68.5 -117.5q0 -61 38.5 -95t117.5 -34zM705 1225q-45 0 -90 19.5t-81.5 39t-60.5 19.5q-26 0 -46 -21.5t-26 -54.5h-170q10 138 71.5 213.5t154.5 75.5q54 0 130 -38t105 -38q27 0 45.5 20.5t24.5 55.5h172q-12 -138 -75 -214.5t-154 -76.5z" />
    <glyph glyph-name="adieresis" unicode="&#xe4;" horiz-adv-x="1155" 
d="M420 -23q-157 0 -258 80t-101 240q0 92 40.5 159t116 107t174.5 59t226 19h121v43q0 101 -38.5 149t-135.5 48q-162 0 -182 -152h-281q9 123 75 207t169 122t238 38q209 0 328.5 -95t119.5 -303v-698h-289v129q-108 -152 -323 -152zM508 184q101 0 166 52t65 139v90h-114
q-136 0 -204.5 -34.5t-68.5 -117.5q0 -61 38.5 -95t117.5 -34zM373 1229q-63 0 -107.5 43t-44.5 104t44.5 104.5t107.5 43.5t107 -43t44 -105q0 -61 -44 -104t-107 -43zM791 1229q-63 0 -107.5 43t-44.5 104t44.5 104.5t107.5 43.5t107 -43t44 -105q0 -61 -44 -104t-107 -43
z" />
    <glyph glyph-name="aring" unicode="&#xe5;" horiz-adv-x="1155" 
d="M420 -23q-157 0 -258 80t-101 240q0 92 40.5 159t116 107t174.5 59t226 19h121v43q0 101 -38.5 149t-135.5 48q-162 0 -182 -152h-281q9 123 75 207t169 122t238 38q209 0 328.5 -95t119.5 -303v-698h-289v129q-108 -152 -323 -152zM508 184q101 0 166 52t65 139v90h-114
q-136 0 -204.5 -34.5t-68.5 -117.5q0 -61 38.5 -95t117.5 -34zM582 1317q43 0 70.5 30.5t27.5 77.5q0 46 -28 77.5t-70 31.5t-70.5 -31.5t-28.5 -77.5q0 -47 28 -77.5t71 -30.5zM582 1198q-97 0 -165.5 66.5t-68.5 160.5q0 93 69 159.5t165 66.5t164.5 -66.5t68.5 -159.5
q0 -94 -68 -160.5t-165 -66.5z" />
    <glyph glyph-name="ae" unicode="&#xe6;" horiz-adv-x="1839" 
d="M1276 -23q-282 0 -412 199q-71 -100 -172 -149.5t-250 -49.5q-168 0 -274.5 80t-106.5 240q0 92 40 160.5t115 109.5t174 60.5t224 19.5h127v37q0 99 -40 148t-134 49q-165 0 -184 -152h-281q7 93 46 164t103 115t145 66t177 22q249 0 342 -144q135 144 351 144
q83 0 157 -19t139 -61.5t112 -105t74.5 -154.5t27.5 -205v-80h-752q8 -137 72 -210t182 -73q188 0 215 150h279q-25 -173 -154 -267t-342 -94zM508 184q104 0 168.5 51.5t64.5 139.5v94h-120q-133 0 -201 -34t-68 -116q0 -135 156 -135zM1028 647h459q-18 244 -221 244
q-98 0 -161.5 -64.5t-76.5 -179.5z" />
    <glyph glyph-name="ccedilla" unicode="&#xe7;" horiz-adv-x="1183" 
d="M578 -455q-102 0 -165.5 49t-74.5 136h151q5 -27 25 -45.5t53 -18.5t52.5 19t19.5 49q0 28 -19 45.5t-51 17.5q-39 0 -63 -20l-74 71l82 138q-203 29 -325.5 169t-122.5 367v17q0 168 74.5 296.5t199.5 194.5t278 66q77 0 145.5 -13.5t131.5 -45t110 -78.5t78 -118
t39 -161h-280q-29 182 -217 182q-117 0 -186.5 -84t-69.5 -235v-17q0 -160 68 -242.5t194 -82.5q93 0 156 53.5t73 153.5h268q-12 -190 -140 -307t-345 -124l-45 -75q88 10 150.5 -35t62.5 -137q0 -87 -64.5 -136t-168.5 -49z" />
    <glyph glyph-name="egrave" unicode="&#xe8;" horiz-adv-x="1202" 
d="M625 -23q-248 0 -403.5 146.5t-155.5 398.5v17q0 249 156.5 403t393.5 154q107 0 199 -32t165.5 -96t116 -171t42.5 -246v-82h-772q6 -134 75.5 -207.5t190.5 -73.5q193 0 223 150h281q-26 -173 -159 -267t-353 -94zM371 651h479q-15 240 -234 240q-100 0 -164 -63
t-81 -177zM514 1217l-213 325h311l117 -325h-215z" />
    <glyph glyph-name="eacute" unicode="&#xe9;" horiz-adv-x="1202" 
d="M492 1217l116 325h312l-213 -325h-215zM625 -23q-248 0 -403.5 146.5t-155.5 398.5v17q0 249 156.5 403t393.5 154q107 0 199 -32t165.5 -96t116 -171t42.5 -246v-82h-772q6 -134 75.5 -207.5t190.5 -73.5q193 0 223 150h281q-26 -173 -159 -267t-353 -94zM371 651h479
q-15 240 -234 240q-100 0 -164 -63t-81 -177z" />
    <glyph glyph-name="ecircumflex" unicode="&#xea;" horiz-adv-x="1202" 
d="M262 1219l240 319h223l233 -319h-208l-142 129l-143 -129h-203zM625 -23q-248 0 -403.5 146.5t-155.5 398.5v17q0 249 156.5 403t393.5 154q107 0 199 -32t165.5 -96t116 -171t42.5 -246v-82h-772q6 -134 75.5 -207.5t190.5 -73.5q193 0 223 150h281q-26 -173 -159 -267
t-353 -94zM371 651h479q-15 240 -234 240q-100 0 -164 -63t-81 -177z" />
    <glyph glyph-name="edieresis" unicode="&#xeb;" horiz-adv-x="1202" 
d="M401 1229q-63 0 -107 43t-44 104q0 62 44 105t107 43t107.5 -43.5t44.5 -104.5t-44.5 -104t-107.5 -43zM819 1229q-63 0 -107 43t-44 104q0 62 44 105t107 43t107.5 -43.5t44.5 -104.5t-44.5 -104t-107.5 -43zM625 -23q-248 0 -403.5 146.5t-155.5 398.5v17
q0 249 156.5 403t393.5 154q107 0 199 -32t165.5 -96t116 -171t42.5 -246v-82h-772q6 -134 75.5 -207.5t190.5 -73.5q193 0 223 150h281q-26 -173 -159 -267t-353 -94zM371 651h479q-15 240 -234 240q-100 0 -164 -63t-81 -177z" />
    <glyph glyph-name="igrave" unicode="&#xec;" horiz-adv-x="575" 
d="M139 0v1071h295v-1071h-295zM193 1217l-213 325h311l117 -325h-215z" />
    <glyph glyph-name="iacute" unicode="&#xed;" horiz-adv-x="575" 
d="M170 1217l117 325h311l-213 -325h-215zM139 0v1071h295v-1071h-295z" />
    <glyph glyph-name="icircumflex" unicode="&#xee;" horiz-adv-x="575" 
d="M-59 1219l239 319h223l234 -319h-209l-141 129l-144 -129h-202zM139 0v1071h295v-1071h-295z" />
    <glyph glyph-name="idieresis" unicode="&#xef;" horiz-adv-x="575" 
d="M82 1229q-62 0 -106 43t-44 104t44 104.5t106 43.5q63 0 107 -43t44 -105q0 -61 -44 -104t-107 -43zM489 1229q-62 0 -105.5 43t-43.5 104t43.5 104.5t105.5 43.5q63 0 107.5 -43.5t44.5 -104.5t-44.5 -104t-107.5 -43zM139 0v1071h295v-1071h-295z" />
    <glyph glyph-name="eth" unicode="&#xf0;" horiz-adv-x="1261" 
d="M322 1151l-54 117l217 94q-100 86 -252 194h338q95 -57 144 -96l203 88l51 -118l-142 -62q75 -70 137.5 -148.5t116 -174t83.5 -208t30 -229.5v-45q0 -266 -157 -426t-412 -160q-244 0 -401.5 153t-157.5 405v20q0 119 40.5 220t108 168t154.5 104.5t180 37.5
q85 0 144 -27t108 -83q-67 141 -213 291zM631 203q124 0 193 86t69 239v15q0 154 -68 240.5t-192 86.5t-194 -85t-70 -238v-17q0 -156 68 -241.5t194 -85.5z" />
    <glyph glyph-name="ntilde" unicode="&#xf1;" horiz-adv-x="1259" 
d="M131 0v1071h297v-170q43 86 132.5 140.5t215.5 54.5q166 0 263.5 -103.5t97.5 -310.5v-682h-297v639q0 110 -45.5 162.5t-143.5 52.5q-99 0 -161 -61t-62 -175v-618h-297zM752 1225q-45 0 -90 19.5t-81.5 39t-60.5 19.5q-26 0 -45.5 -21.5t-25.5 -54.5h-170
q10 138 71 213.5t154 75.5q54 0 130 -38t105 -38q27 0 45.5 20.5t24.5 55.5h172q-12 -138 -75 -214.5t-154 -76.5z" />
    <glyph glyph-name="ograve" unicode="&#xf2;" horiz-adv-x="1261" 
d="M631 203q124 0 193 86t69 239v15q0 154 -69 240.5t-193 86.5q-123 0 -192.5 -85t-69.5 -238v-17q0 -155 68.5 -241t193.5 -86zM629 -23q-159 0 -286.5 66.5t-202 192t-74.5 288.5v17q0 165 74 292t202 195t289 68q245 0 404 -151t159 -398v-17q0 -166 -74 -292.5
t-202 -193.5t-289 -67zM532 1217l-213 325h312l117 -325h-216z" />
    <glyph glyph-name="oacute" unicode="&#xf3;" horiz-adv-x="1261" 
d="M510 1217l117 325h311l-213 -325h-215zM631 203q124 0 193 86t69 239v15q0 154 -69 240.5t-193 86.5q-123 0 -192.5 -85t-69.5 -238v-17q0 -155 68.5 -241t193.5 -86zM629 -23q-159 0 -286.5 66.5t-202 192t-74.5 288.5v17q0 165 74 292t202 195t289 68q245 0 404 -151
t159 -398v-17q0 -166 -74 -292.5t-202 -193.5t-289 -67z" />
    <glyph glyph-name="ocircumflex" unicode="&#xf4;" horiz-adv-x="1261" 
d="M281 1219l239 319h223l234 -319h-209l-141 129l-144 -129h-202zM631 203q124 0 193 86t69 239v15q0 154 -69 240.5t-193 86.5q-123 0 -192.5 -85t-69.5 -238v-17q0 -155 68.5 -241t193.5 -86zM629 -23q-159 0 -286.5 66.5t-202 192t-74.5 288.5v17q0 165 74 292t202 195
t289 68q245 0 404 -151t159 -398v-17q0 -166 -74 -292.5t-202 -193.5t-289 -67z" />
    <glyph glyph-name="otilde" unicode="&#xf5;" horiz-adv-x="1261" 
d="M631 203q124 0 193 86t69 239v15q0 154 -69 240.5t-193 86.5q-123 0 -192.5 -85t-69.5 -238v-17q0 -155 68.5 -241t193.5 -86zM629 -23q-159 0 -286.5 66.5t-202 192t-74.5 288.5v17q0 165 74 292t202 195t289 68q245 0 404 -151t159 -398v-17q0 -166 -74 -292.5
t-202 -193.5t-289 -67zM752 1225q-45 0 -90 19.5t-81.5 39t-60.5 19.5q-26 0 -45.5 -21.5t-25.5 -54.5h-170q10 138 71 213.5t154 75.5q54 0 130 -38t105 -38q27 0 45.5 20.5t24.5 55.5h172q-12 -138 -75 -214.5t-154 -76.5z" />
    <glyph glyph-name="odieresis" unicode="&#xf6;" horiz-adv-x="1261" 
d="M420 1229q-63 0 -107.5 43t-44.5 104t44.5 104.5t107.5 43.5t107 -43t44 -105q0 -61 -44 -104t-107 -43zM838 1229q-63 0 -107.5 43t-44.5 104t44.5 104.5t107.5 43.5t107 -43t44 -105q0 -61 -44 -104t-107 -43zM631 203q124 0 193 86t69 239v15q0 154 -69 240.5
t-193 86.5q-123 0 -192.5 -85t-69.5 -238v-17q0 -155 68.5 -241t193.5 -86zM629 -23q-159 0 -286.5 66.5t-202 192t-74.5 288.5v17q0 165 74 292t202 195t289 68q245 0 404 -151t159 -398v-17q0 -166 -74 -292.5t-202 -193.5t-289 -67z" />
    <glyph glyph-name="divide" unicode="&#xf7;" horiz-adv-x="1132" 
d="M565 123q-71 0 -120.5 49t-49.5 119q0 69 50 118.5t120 49.5q71 0 121.5 -49.5t50.5 -118.5q0 -70 -50.5 -119t-121.5 -49zM76 592v213h981v-213h-981zM565 938q-71 0 -120.5 49t-49.5 119t49.5 119t120.5 49t121.5 -49t50.5 -119t-50.5 -119t-121.5 -49z" />
    <glyph glyph-name="oslash" unicode="&#xf8;" horiz-adv-x="1261" 
d="M145 -78l-100 90l143 154q-122 144 -122 358v17q0 165 74 292t202 195t289 68q190 0 330 -95l135 146l100 -90l-133 -144q131 -147 131 -366v-17q0 -166 -74 -292.5t-202 -193.5t-289 -67q-195 0 -340 99zM631 201q125 0 194.5 87t69.5 240v15q0 83 -27 159l-409 -442
q65 -59 172 -59zM367 530q0 -88 20 -149l404 436q-62 53 -160 53q-125 0 -194.5 -85t-69.5 -238v-17z" />
    <glyph glyph-name="ugrave" unicode="&#xf9;" horiz-adv-x="1253" 
d="M487 -23q-165 0 -264.5 101t-99.5 303v690h295v-649q0 -109 45.5 -162t140.5 -53q98 0 160.5 60.5t62.5 174.5v629h295v-1071h-295v168q-44 -87 -129 -139t-211 -52zM528 1217l-213 325h312l116 -325h-215z" />
    <glyph glyph-name="uacute" unicode="&#xfa;" horiz-adv-x="1253" 
d="M506 1217l117 325h311l-213 -325h-215zM487 -23q-165 0 -264.5 101t-99.5 303v690h295v-649q0 -109 45.5 -162t140.5 -53q98 0 160.5 60.5t62.5 174.5v629h295v-1071h-295v168q-44 -87 -129 -139t-211 -52z" />
    <glyph glyph-name="ucircumflex" unicode="&#xfb;" horiz-adv-x="1253" 
d="M276 1219l240 319h223l234 -319h-209l-141 129l-144 -129h-203zM487 -23q-165 0 -264.5 101t-99.5 303v690h295v-649q0 -109 45.5 -162t140.5 -53q98 0 160.5 60.5t62.5 174.5v629h295v-1071h-295v168q-44 -87 -129 -139t-211 -52z" />
    <glyph glyph-name="udieresis" unicode="&#xfc;" horiz-adv-x="1253" 
d="M416 1229q-63 0 -107.5 43t-44.5 104t44.5 104.5t107.5 43.5t107 -43t44 -105q0 -61 -44 -104t-107 -43zM834 1229q-63 0 -107.5 43t-44.5 104t44.5 104.5t107.5 43.5t107 -43t44 -105q0 -61 -44 -104t-107 -43zM487 -23q-165 0 -264.5 101t-99.5 303v690h295v-649
q0 -109 45.5 -162t140.5 -53q98 0 160.5 60.5t62.5 174.5v629h295v-1071h-295v168q-44 -87 -129 -139t-211 -52z" />
    <glyph glyph-name="yacute" unicode="&#xfd;" horiz-adv-x="1161" 
d="M266 -365l189 474l-426 962h319l260 -643l240 643h285l-580 -1436h-287zM481 1217l117 325h311l-213 -325h-215z" />
    <glyph glyph-name="thorn" unicode="&#xfe;" horiz-adv-x="1304" 
d="M131 -365v1921h297v-653q48 82 139 137.5t203 55.5q99 0 183.5 -36.5t148 -104.5t99.5 -173t36 -235v-17q0 -130 -35.5 -235.5t-98.5 -174.5t-148 -106t-185 -37q-119 0 -208.5 52.5t-133.5 134.5v-529h-297zM682 209q123 0 188.5 81.5t65.5 237.5v17q0 158 -69.5 240.5
t-186.5 82.5q-120 0 -191 -83t-71 -240v-17q0 -158 69.5 -238.5t194.5 -80.5z" />
    <glyph glyph-name="ydieresis" unicode="&#xff;" horiz-adv-x="1161" 
d="M266 -365l189 474l-426 962h319l260 -643l240 643h285l-580 -1436h-287zM391 1229q-63 0 -107 43t-44 104q0 62 44 105t107 43t107.5 -43.5t44.5 -104.5t-44.5 -104t-107.5 -43zM809 1229q-63 0 -107.5 43t-44.5 104t44.5 104.5t107.5 43.5t107.5 -43.5t44.5 -104.5
t-44.5 -104t-107.5 -43z" />
    <glyph glyph-name="Amacron" unicode="&#x100;" horiz-adv-x="1474" 
d="M43 0l481 1464h432l476 -1464h-347l-100 326h-530l-101 -326h-311zM721 1194l-195 -633h387zM426 1591v187h618v-187h-618z" />
    <glyph glyph-name="amacron" unicode="&#x101;" horiz-adv-x="1155" 
d="M420 -23q-157 0 -258 80t-101 240q0 92 40.5 159t116 107t174.5 59t226 19h121v43q0 101 -38.5 149t-135.5 48q-162 0 -182 -152h-281q9 123 75 207t169 122t238 38q209 0 328.5 -95t119.5 -303v-698h-289v129q-108 -152 -323 -152zM508 184q101 0 166 52t65 139v90h-114
q-136 0 -204.5 -34.5t-68.5 -117.5q0 -61 38.5 -95t117.5 -34zM283 1280v178h596v-178h-596z" />
    <glyph glyph-name="Abreve" unicode="&#x102;" horiz-adv-x="1474" 
d="M43 0l481 1464h432l476 -1464h-347l-100 326h-530l-101 -326h-311zM733 1550q-136 0 -220.5 81.5t-92.5 217.5h198q16 -106 115 -106q50 0 81 28t40 78h197q-9 -135 -96.5 -217t-221.5 -82zM721 1194l-195 -633h387z" />
    <glyph glyph-name="abreve" unicode="&#x103;" horiz-adv-x="1155" 
d="M420 -23q-157 0 -258 80t-101 240q0 92 40.5 159t116 107t174.5 59t226 19h121v43q0 101 -38.5 149t-135.5 48q-162 0 -182 -152h-281q9 123 75 207t169 122t238 38q209 0 328.5 -95t119.5 -303v-698h-289v129q-108 -152 -323 -152zM508 184q101 0 166 52t65 139v90h-114
q-136 0 -204.5 -34.5t-68.5 -117.5q0 -61 38.5 -95t117.5 -34zM580 1225q-134 0 -219.5 82.5t-92.5 222.5h195q13 -111 117 -111q105 0 125 111h190q-7 -139 -95 -222t-220 -83z" />
    <glyph glyph-name="Aogonek" unicode="&#x104;" horiz-adv-x="1474" 
d="M1266 -373q-110 0 -175 45t-65 121q0 65 48 117.5t122 89.5h-111l-100 326h-530l-101 -326h-311l481 1464h432l469 -1444q-139 -81 -139 -161q0 -62 68 -62q44 0 78 15v-154q-72 -31 -166 -31zM721 1194l-195 -633h387z" />
    <glyph glyph-name="aogonek" unicode="&#x105;" horiz-adv-x="1155" 
d="M881 -373q-105 0 -167.5 44t-62.5 120q0 68 48 121t122 88h-78v129q-108 -152 -323 -152q-157 0 -258 80t-101 240q0 92 40.5 159t116 107t174.5 59t226 19h121v43q0 101 -38.5 149t-135.5 48q-162 0 -182 -152h-281q9 123 75 207t169 122t238 38q209 0 328.5 -95
t119.5 -303v-682q-131 -84 -131 -161q0 -64 68 -64q46 0 78 14v-147q-72 -31 -166 -31zM508 184q101 0 166 52t65 139v90h-114q-136 0 -204.5 -34.5t-68.5 -117.5q0 -61 38.5 -95t117.5 -34z" />
    <glyph glyph-name="Cacute" unicode="&#x106;" horiz-adv-x="1531" 
d="M817 -23q-353 0 -544 200.5t-191 545.5v16q0 164 55.5 304t152 237t231 152t288.5 55q179 0 317 -57t226.5 -178.5t105.5 -297.5h-340q-38 271 -307 271q-174 0 -276.5 -129t-102.5 -355v-16q0 -227 100 -353t281 -126q140 0 228 71t108 209h326q-18 -177 -107 -302
t-229 -186t-322 -61zM680 1563l108 284h322l-207 -284h-223z" />
    <glyph glyph-name="cacute" unicode="&#x107;" horiz-adv-x="1183" 
d="M492 1217l116 325h312l-213 -325h-215zM616 -23q-118 0 -218 36.5t-174 104.5t-116 172t-42 232v17q0 168 74.5 296.5t199.5 194.5t278 66q77 0 145.5 -13.5t131.5 -45t110 -78.5t78 -118t39 -161h-280q-29 182 -217 182q-117 0 -186.5 -84t-69.5 -235v-17
q0 -160 68 -242.5t194 -82.5q93 0 156 53.5t73 153.5h268q-12 -195 -147.5 -313t-364.5 -118z" />
    <glyph glyph-name="Ccircumflex" unicode="&#x108;" horiz-adv-x="1531" 
d="M455 1563l229 284h252l221 -284h-213l-139 108l-141 -108h-209zM817 -23q-353 0 -544 200.5t-191 545.5v16q0 164 55.5 304t152 237t231 152t288.5 55q179 0 317 -57t226.5 -178.5t105.5 -297.5h-340q-38 271 -307 271q-174 0 -276.5 -129t-102.5 -355v-16
q0 -227 100 -353t281 -126q140 0 228 71t108 209h326q-18 -177 -107 -302t-229 -186t-322 -61z" />
    <glyph glyph-name="ccircumflex" unicode="&#x109;" horiz-adv-x="1183" 
d="M264 1219l240 319h223l234 -319h-209l-142 129l-143 -129h-203zM616 -23q-118 0 -218 36.5t-174 104.5t-116 172t-42 232v17q0 168 74.5 296.5t199.5 194.5t278 66q77 0 145.5 -13.5t131.5 -45t110 -78.5t78 -118t39 -161h-280q-29 182 -217 182q-117 0 -186.5 -84
t-69.5 -235v-17q0 -160 68 -242.5t194 -82.5q93 0 156 53.5t73 153.5h268q-12 -195 -147.5 -313t-364.5 -118z" />
    <glyph glyph-name="Cdotaccent" unicode="&#x10a;" horiz-adv-x="1531" 
d="M817 -23q-353 0 -544 200.5t-191 545.5v16q0 164 55.5 304t152 237t231 152t288.5 55q179 0 317 -57t226.5 -178.5t105.5 -297.5h-340q-38 271 -307 271q-174 0 -276.5 -129t-102.5 -355v-16q0 -227 100 -353t281 -126q140 0 228 71t108 209h326q-18 -177 -107 -302
t-229 -186t-322 -61zM803 1573q-70 0 -118 46t-48 112t48 111.5t118 45.5q69 0 116.5 -45.5t47.5 -111.5t-47.5 -112t-116.5 -46z" />
    <glyph glyph-name="cdotaccent" unicode="&#x10b;" horiz-adv-x="1183" 
d="M616 -23q-118 0 -218 36.5t-174 104.5t-116 172t-42 232v17q0 168 74.5 296.5t199.5 194.5t278 66q77 0 145.5 -13.5t131.5 -45t110 -78.5t78 -118t39 -161h-280q-29 182 -217 182q-117 0 -186.5 -84t-69.5 -235v-17q0 -160 68 -242.5t194 -82.5q93 0 156 53.5t73 153.5
h268q-12 -195 -147.5 -313t-364.5 -118zM614 1225q-70 0 -117.5 45.5t-47.5 111.5q0 68 47.5 113t117.5 45q69 0 117.5 -45.5t48.5 -112.5q0 -66 -48.5 -111.5t-117.5 -45.5z" />
    <glyph glyph-name="Ccaron" unicode="&#x10c;" horiz-adv-x="1531" 
d="M676 1563l-221 284h213l141 -106l139 106h209l-229 -284h-252zM817 -23q-353 0 -544 200.5t-191 545.5v16q0 164 55.5 304t152 237t231 152t288.5 55q179 0 317 -57t226.5 -178.5t105.5 -297.5h-340q-38 271 -307 271q-174 0 -276.5 -129t-102.5 -355v-16
q0 -227 100 -353t281 -126q140 0 228 71t108 209h326q-18 -177 -107 -302t-229 -186t-322 -61z" />
    <glyph glyph-name="ccaron" unicode="&#x10d;" horiz-adv-x="1183" 
d="M498 1219l-234 319h209l141 -129l142 129h205l-240 -319h-223zM616 -23q-118 0 -218 36.5t-174 104.5t-116 172t-42 232v17q0 168 74.5 296.5t199.5 194.5t278 66q77 0 145.5 -13.5t131.5 -45t110 -78.5t78 -118t39 -161h-280q-29 182 -217 182q-117 0 -186.5 -84
t-69.5 -235v-17q0 -160 68 -242.5t194 -82.5q93 0 156 53.5t73 153.5h268q-12 -195 -147.5 -313t-364.5 -118z" />
    <glyph glyph-name="Dcaron" unicode="&#x10e;" horiz-adv-x="1486" 
d="M543 1563l-221 284h213l141 -106l139 106h209l-229 -284h-252zM489 258h136q434 0 434 469v16q0 231 -105.5 347t-332.5 116h-132v-948zM158 0v1464h479q378 0 573 -190t195 -526v-17q0 -165 -48.5 -299t-143 -230.5t-242 -149t-336.5 -52.5h-477z" />
    <glyph glyph-name="dcaron" unicode="&#x10f;" horiz-adv-x="1304" 
d="M1255 1200l21 356h244l-101 -356h-164zM532 -23q-203 0 -333.5 142.5t-130.5 400.5v17q0 258 132.5 408.5t338.5 150.5q238 0 338 -185v645h294v-1556h-294v178q-43 -86 -137 -143.5t-208 -57.5zM621 209q121 0 192.5 81.5t71.5 239.5v17q0 158 -66.5 239.5t-189.5 81.5
q-125 0 -191.5 -83t-66.5 -242v-17q0 -155 68 -236t182 -81z" />
    <glyph glyph-name="Dcroat" unicode="&#x110;" horiz-adv-x="1542" 
d="M63 621v229h134v614h479q378 0 573 -190t195 -526v-17q0 -165 -48.5 -299t-143 -230.5t-242 -149t-336.5 -52.5h-477v621h-134zM524 258h140q434 0 434 469v16q0 231 -105 347t-331 116h-138v-356h310v-229h-310v-363z" />
    <glyph glyph-name="dcroat" unicode="&#x111;" horiz-adv-x="1304" 
d="M543 1223v170h334v163h294v-163h132v-170h-132v-1223h-294v178q-43 -86 -137 -143.5t-208 -57.5q-203 0 -333.5 142.5t-130.5 400.5v17q0 258 132.5 408.5t338.5 150.5q238 0 338 -185v312h-334zM621 209q121 0 192.5 81.5t71.5 239.5v17q0 158 -66.5 239.5t-189.5 81.5
q-125 0 -191.5 -83t-66.5 -242v-17q0 -155 68 -236t182 -81z" />
    <glyph glyph-name="Emacron" unicode="&#x112;" horiz-adv-x="1218" 
d="M158 0v1464h954v-258h-625v-342h500v-241h-500v-365h658v-258h-987zM340 1591v187h618v-187h-618z" />
    <glyph glyph-name="emacron" unicode="&#x113;" horiz-adv-x="1202" 
d="M625 -23q-248 0 -403.5 146.5t-155.5 398.5v17q0 249 156.5 403t393.5 154q107 0 199 -32t165.5 -96t116 -171t42.5 -246v-82h-772q6 -134 75.5 -207.5t190.5 -73.5q193 0 223 150h281q-26 -173 -159 -267t-353 -94zM371 651h479q-15 240 -234 240q-100 0 -164 -63
t-81 -177zM311 1280v178h596v-178h-596z" />
    <glyph glyph-name="Ebreve" unicode="&#x114;" horiz-adv-x="1218" 
d="M158 0v1464h954v-258h-625v-342h500v-241h-500v-365h658v-258h-987zM651 1550q-136 0 -220.5 81.5t-92.5 217.5h199q16 -106 114 -106q50 0 81 28t40 78h197q-9 -135 -96.5 -217t-221.5 -82z" />
    <glyph glyph-name="ebreve" unicode="&#x115;" horiz-adv-x="1202" 
d="M625 -23q-248 0 -403.5 146.5t-155.5 398.5v17q0 249 156.5 403t393.5 154q107 0 199 -32t165.5 -96t116 -171t42.5 -246v-82h-772q6 -134 75.5 -207.5t190.5 -73.5q193 0 223 150h281q-26 -173 -159 -267t-353 -94zM371 651h479q-15 240 -234 240q-100 0 -164 -63
t-81 -177zM596 1225q-134 0 -219 82.5t-92 222.5h194q13 -111 117 -111q105 0 125 111h190q-7 -139 -95 -222t-220 -83z" />
    <glyph glyph-name="Edotaccent" unicode="&#x116;" horiz-adv-x="1218" 
d="M649 1573q-70 0 -118 46t-48 112t48 111.5t118 45.5q69 0 116.5 -45.5t47.5 -111.5t-47.5 -112t-116.5 -46zM158 0v1464h954v-258h-625v-342h500v-241h-500v-365h658v-258h-987z" />
    <glyph glyph-name="edotaccent" unicode="&#x117;" horiz-adv-x="1202" 
d="M625 -23q-248 0 -403.5 146.5t-155.5 398.5v17q0 249 156.5 403t393.5 154q107 0 199 -32t165.5 -96t116 -171t42.5 -246v-82h-772q6 -134 75.5 -207.5t190.5 -73.5q193 0 223 150h281q-26 -173 -159 -267t-353 -94zM371 651h479q-15 240 -234 240q-100 0 -164 -63
t-81 -177zM612 1225q-70 0 -118 45.5t-48 111.5q0 67 47.5 112.5t118.5 45.5q69 0 117.5 -45.5t48.5 -112.5q0 -66 -48.5 -111.5t-117.5 -45.5z" />
    <glyph glyph-name="Eogonek" unicode="&#x118;" horiz-adv-x="1218" 
d="M946 -373q-108 0 -171.5 45t-63.5 121q0 65 48 117.5t122 89.5h-723v1464h954v-258h-625v-342h500v-241h-500v-365h658v-258h-70q-54 -39 -79 -72t-25 -69q0 -62 67 -62q44 0 78 15v-154q-72 -31 -170 -31z" />
    <glyph glyph-name="eogonek" unicode="&#x119;" horiz-adv-x="1202" 
d="M817 -373q-105 0 -168 43t-63 119q0 109 157 197q-53 -9 -118 -9q-248 0 -403.5 146.5t-155.5 398.5v17q0 249 156.5 403t393.5 154q107 0 199 -32t165.5 -96t116 -171t42.5 -246v-82h-772q6 -134 75.5 -207.5t190.5 -73.5q193 0 223 150h281q-11 -68 -41.5 -127.5
t-56 -88.5t-64.5 -65q-73 -69 -107 -114.5t-34 -87.5q0 -64 67 -64q46 0 78 14v-147q-68 -31 -162 -31zM371 651h479q-15 240 -234 240q-100 0 -164 -63t-81 -177z" />
    <glyph glyph-name="Ecaron" unicode="&#x11a;" horiz-adv-x="1218" 
d="M522 1563l-221 284h213l141 -106l140 106h209l-230 -284h-252zM158 0v1464h954v-258h-625v-342h500v-241h-500v-365h658v-258h-987z" />
    <glyph glyph-name="ecaron" unicode="&#x11b;" horiz-adv-x="1202" 
d="M496 1219l-234 319h209l141 -129l142 129h204l-239 -319h-223zM625 -23q-248 0 -403.5 146.5t-155.5 398.5v17q0 249 156.5 403t393.5 154q107 0 199 -32t165.5 -96t116 -171t42.5 -246v-82h-772q6 -134 75.5 -207.5t190.5 -73.5q193 0 223 150h281q-26 -173 -159 -267
t-353 -94zM371 651h479q-15 240 -234 240q-100 0 -164 -63t-81 -177z" />
    <glyph glyph-name="Gcircumflex" unicode="&#x11c;" horiz-adv-x="1597" 
d="M827 -23q-176 0 -318 55.5t-235 155t-142.5 236t-49.5 299.5v16q0 163 56 302.5t154 237t236.5 153t298.5 55.5q126 0 235 -30t199 -90t147.5 -160t70.5 -232h-330q-42 250 -318 250q-189 0 -296 -132t-107 -358v-16q0 -108 24 -195.5t72 -153t127.5 -101.5t184.5 -36
q174 0 260.5 86.5t91.5 223.5h-330v241h658v-155q0 -298 -182.5 -475t-506.5 -177zM467 1563l229 284h252l221 -284h-213l-139 108l-141 -108h-209z" />
    <glyph glyph-name="gcircumflex" unicode="&#x11d;" horiz-adv-x="1302" 
d="M268 1219l240 319h223l234 -319h-209l-142 129l-143 -129h-203zM606 -395q-249 0 -379 98.5t-153 273.5h295q30 -155 237 -155q134 0 202.5 67.5t68.5 194.5v162q-48 -84 -140.5 -141.5t-204.5 -57.5q-200 0 -333 140t-133 372v14q0 228 135 375.5t336 147.5
q236 0 340 -185v160h294v-987q-1 -235 -149 -357t-416 -122zM621 270q118 0 191 79t73 214v15q0 137 -68.5 214.5t-189.5 77.5q-122 0 -190 -80t-68 -215v-16q0 -132 70 -210.5t182 -78.5z" />
    <glyph glyph-name="Gbreve" unicode="&#x11e;" horiz-adv-x="1597" 
d="M827 -23q-176 0 -318 55.5t-235 155t-142.5 236t-49.5 299.5v16q0 163 56 302.5t154 237t236.5 153t298.5 55.5q126 0 235 -30t199 -90t147.5 -160t70.5 -232h-330q-42 250 -318 250q-189 0 -296 -132t-107 -358v-16q0 -108 24 -195.5t72 -153t127.5 -101.5t184.5 -36
q174 0 260.5 86.5t91.5 223.5h-330v241h658v-155q0 -298 -182.5 -475t-506.5 -177zM817 1550q-136 0 -220.5 81.5t-92.5 217.5h198q16 -106 115 -106q50 0 81 28t40 78h197q-9 -135 -96.5 -217t-221.5 -82z" />
    <glyph glyph-name="gbreve" unicode="&#x11f;" horiz-adv-x="1302" 
d="M606 -395q-249 0 -379 98.5t-153 273.5h295q30 -155 237 -155q134 0 202.5 67.5t68.5 194.5v162q-48 -84 -140.5 -141.5t-204.5 -57.5q-200 0 -333 140t-133 372v14q0 228 135 375.5t336 147.5q236 0 340 -185v160h294v-987q-1 -235 -149 -357t-416 -122zM621 270
q118 0 191 79t73 214v15q0 137 -68.5 214.5t-189.5 77.5q-122 0 -190 -80t-68 -215v-16q0 -132 70 -210.5t182 -78.5zM614 1225q-134 0 -219 82.5t-92 222.5h195q13 -111 116 -111q105 0 125 111h191q-7 -139 -95.5 -222t-220.5 -83z" />
    <glyph glyph-name="Gdotaccent" unicode="&#x120;" horiz-adv-x="1597" 
d="M827 -23q-176 0 -318 55.5t-235 155t-142.5 236t-49.5 299.5v16q0 163 56 302.5t154 237t236.5 153t298.5 55.5q126 0 235 -30t199 -90t147.5 -160t70.5 -232h-330q-42 250 -318 250q-189 0 -296 -132t-107 -358v-16q0 -108 24 -195.5t72 -153t127.5 -101.5t184.5 -36
q174 0 260.5 86.5t91.5 223.5h-330v241h658v-155q0 -298 -182.5 -475t-506.5 -177zM819 1573q-70 0 -118 46t-48 112t48 111.5t118 45.5q69 0 116.5 -45.5t47.5 -111.5t-47.5 -112t-116.5 -46z" />
    <glyph glyph-name="gdotaccent" unicode="&#x121;" horiz-adv-x="1302" 
d="M606 -395q-249 0 -379 98.5t-153 273.5h295q30 -155 237 -155q134 0 202.5 67.5t68.5 194.5v162q-48 -84 -140.5 -141.5t-204.5 -57.5q-200 0 -333 140t-133 372v14q0 228 135 375.5t336 147.5q236 0 340 -185v160h294v-987q-1 -235 -149 -357t-416 -122zM621 270
q118 0 191 79t73 214v15q0 137 -68.5 214.5t-189.5 77.5q-122 0 -190 -80t-68 -215v-16q0 -132 70 -210.5t182 -78.5zM616 1225q-70 0 -117.5 45.5t-47.5 111.5q0 68 47.5 113t117.5 45q69 0 117.5 -45.5t48.5 -112.5q0 -66 -48.5 -111.5t-117.5 -45.5z" />
    <glyph glyph-name="Gcommaaccent" unicode="&#x122;" horiz-adv-x="1597" 
d="M827 -23q-176 0 -318 55.5t-235 155t-142.5 236t-49.5 299.5v16q0 163 56 302.5t154 237t236.5 153t298.5 55.5q126 0 235 -30t199 -90t147.5 -160t70.5 -232h-330q-42 250 -318 250q-189 0 -296 -132t-107 -358v-16q0 -108 24 -195.5t72 -153t127.5 -101.5t184.5 -36
q174 0 260.5 86.5t91.5 223.5h-330v241h658v-155q0 -298 -182.5 -475t-506.5 -177zM774 -467l-168 55l96 349l267 -43z" />
    <glyph glyph-name="gcommaaccent" unicode="&#x123;" horiz-adv-x="1302" 
d="M754 1186l-267 43l195 358l168 -53zM606 -395q-249 0 -379 98.5t-153 273.5h295q30 -155 237 -155q134 0 202.5 67.5t68.5 194.5v162q-48 -84 -140.5 -141.5t-204.5 -57.5q-200 0 -333 140t-133 372v14q0 228 135 375.5t336 147.5q236 0 340 -185v160h294v-987
q-1 -235 -149 -357t-416 -122zM621 270q118 0 191 79t73 214v15q0 137 -68.5 214.5t-189.5 77.5q-122 0 -190 -80t-68 -215v-16q0 -132 70 -210.5t182 -78.5z" />
    <glyph glyph-name="Hcircumflex" unicode="&#x124;" horiz-adv-x="1564" 
d="M158 0v1464h331v-598h588v598h332v-1464h-332v604h-588v-604h-331zM430 1563l229 284h252l222 -284h-213l-140 108l-141 -108h-209z" />
    <glyph glyph-name="hcircumflex" unicode="&#x125;" horiz-adv-x="1259" 
d="M131 0v1556h297v-655q43 86 132.5 140.5t215.5 54.5q166 0 263.5 -103.5t97.5 -310.5v-682h-297v639q0 110 -45.5 162.5t-143.5 52.5q-99 0 -161 -61t-62 -175v-618h-297z" />
    <glyph glyph-name="Hbar" unicode="&#x126;" horiz-adv-x="1564" 
d="M27 1047v174h131v243h331v-243h588v243h332v-243h131v-174h-131v-1047h-332v604h-588v-604h-331v1047h-131zM489 866h588v181h-588v-181z" />
    <glyph glyph-name="hbar" unicode="&#x127;" horiz-adv-x="1259" 
d="M2 1223v170h129v163h297v-163h334v-170h-334v-322q43 86 132.5 140.5t215.5 54.5q166 0 263.5 -103.5t97.5 -310.5v-682h-297v639q0 110 -45.5 162.5t-143.5 52.5q-99 0 -161 -61t-62 -175v-618h-297v1223h-129z" />
    <glyph glyph-name="Itilde" unicode="&#x128;" horiz-adv-x="665" 
d="M166 0v1464h334v-1464h-334zM461 1565q-45 0 -91.5 18.5t-84 37.5t-60.5 19q-27 0 -46 -21t-25 -54h-177q10 137 75 211.5t159 74.5q54 0 131.5 -38.5t106.5 -38.5q27 0 45 20.5t24 54.5h178q-12 -136 -77.5 -210t-157.5 -74z" />
    <glyph glyph-name="itilde" unicode="&#x129;" horiz-adv-x="575" 
d="M139 0v1071h295v-1071h-295zM412 1225q-45 0 -90 19.5t-81.5 39t-60.5 19.5q-26 0 -45.5 -21.5t-25.5 -54.5h-170q10 138 71 213.5t154 75.5q54 0 130 -38t105 -38q27 0 45.5 20.5t24.5 55.5h172q-12 -138 -75 -214.5t-154 -76.5z" />
    <glyph glyph-name="Imacron" unicode="&#x12a;" horiz-adv-x="665" 
d="M166 0v1464h334v-1464h-334zM23 1591v187h618v-187h-618z" />
    <glyph glyph-name="imacron" unicode="&#x12b;" horiz-adv-x="575" 
d="M55 1280v178h463v-178h-463zM139 0v1071h295v-1071h-295z" />
    <glyph glyph-name="Ibreve" unicode="&#x12c;" horiz-adv-x="665" 
d="M166 0v1464h334v-1464h-334zM334 1550q-136 0 -221 81.5t-93 217.5h199q16 -106 115 -106q50 0 81 28t40 78h196q-9 -135 -96 -217t-221 -82z" />
    <glyph glyph-name="ibreve" unicode="&#x12d;" horiz-adv-x="575" 
d="M139 0v1071h295v-1071h-295zM287 1225q-134 0 -219.5 82.5t-92.5 222.5h195q13 -111 117 -111q105 0 125 111h190q-7 -139 -95 -222t-220 -83z" />
    <glyph glyph-name="Iogonek" unicode="&#x12e;" horiz-adv-x="665" 
d="M348 -373q-109 0 -173 45t-64 121q0 65 48 117.5t122 89.5h-115v1464h334v-1446q-129 -83 -129 -159q0 -62 67 -62q44 0 78 15v-154q-72 -31 -168 -31z" />
    <glyph glyph-name="iogonek" unicode="&#x12f;" horiz-adv-x="575" 
d="M291 -373q-105 0 -167.5 44.5t-62.5 121.5q0 124 170 207h-92v1071h295v-1057q-67 -45 -96 -82.5t-29 -76.5q0 -64 70 -64q48 0 76 14v-147q-68 -31 -164 -31zM285 1217q-71 0 -119.5 46t-48.5 115t48.5 115.5t119.5 46.5q72 0 121 -46.5t49 -115.5t-49 -115t-121 -46z
" />
    <glyph glyph-name="Idotaccent" unicode="&#x130;" horiz-adv-x="665" 
d="M166 0v1464h334v-1464h-334zM334 1573q-70 0 -118 46t-48 112t48 111.5t118 45.5q69 0 116.5 -45.5t47.5 -111.5t-47.5 -112t-116.5 -46z" />
    <glyph glyph-name="dotlessi" unicode="&#x131;" horiz-adv-x="575" 
d="M139 0v1071h295v-1071h-295z" />
    <glyph glyph-name="IJ" unicode="&#x132;" horiz-adv-x="1536" 
d="M166 0v1464h334v-1464h-334zM915 -18q-158 0 -243 45v254q95 -35 184 -35q207 0 207 231v987h334v-991q0 -244 -126 -367.5t-356 -123.5z" />
    <glyph glyph-name="ij" unicode="&#x133;" horiz-adv-x="1148" 
d="M139 0v1071h295v-1071h-295zM285 1217q-71 0 -119.5 46t-48.5 115t48.5 115.5t119.5 46.5q72 0 121 -46.5t49 -115.5t-49 -115t-121 -46zM571 -383v221q75 6 108.5 41t33.5 101v1091h295v-1089q0 -87 -21.5 -151t-71 -113t-135.5 -74.5t-209 -26.5zM858 1217
q-71 0 -119.5 46t-48.5 115t48.5 115.5t119.5 46.5q72 0 121 -46.5t49 -115.5t-49 -115t-121 -46z" />
    <glyph glyph-name="Jcircumflex" unicode="&#x134;" horiz-adv-x="935" 
d="M272 1563l230 284h252l221 -284h-213l-139 108l-142 -108h-209zM315 -18q-158 0 -243 45v254q95 -35 184 -35q207 0 207 231v987h334v-991q0 -244 -126 -367.5t-356 -123.5z" />
    <glyph glyph-name="jcircumflex" unicode="&#x135;" horiz-adv-x="575" 
d="M-2 -383v221q75 6 108 41t33 101v1091h295v-1089q0 -87 -21.5 -151t-71 -113t-135 -74.5t-208.5 -26.5zM-61 1219l239 319h223l234 -319h-209l-141 129l-144 -129h-202z" />
    <glyph glyph-name="Kcommaaccent" unicode="&#x136;" horiz-adv-x="1404" 
d="M158 0v1464h331v-630l512 632h353l-580 -694l608 -772h-387l-506 657v-657h-331zM680 -467l-168 55l96 349l266 -43z" />
    <glyph glyph-name="kcommaaccent" unicode="&#x137;" horiz-adv-x="1136" 
d="M131 0v1556h297v-938l344 453h315l-389 -487l420 -584h-336l-354 506v-506h-297zM549 -467l-168 55l96 349l266 -43z" />
    <glyph glyph-name="Lacute" unicode="&#x139;" horiz-adv-x="1146" 
d="M203 1563l108 284h322l-207 -284h-223zM158 0v1464h331v-1204h596v-260h-927z" />
    <glyph glyph-name="lacute" unicode="&#x13a;" horiz-adv-x="573" 
d="M139 0v1556h295v-1556h-295z" />
    <glyph glyph-name="Lcommaaccent" unicode="&#x13b;" horiz-adv-x="1146" 
d="M573 -467l-167 55l96 349l266 -43zM158 0v1464h331v-1204h596v-260h-927z" />
    <glyph glyph-name="lcommaaccent" unicode="&#x13c;" horiz-adv-x="573" 
d="M244 -467l-168 55l96 349l266 -43zM139 0v1556h295v-1556h-295z" />
    <glyph glyph-name="Lcaron" unicode="&#x13d;" horiz-adv-x="1146" 
d="M666 1118l39 346h262l-123 -346h-178zM158 0v1464h331v-1204h596v-260h-927z" />
    <glyph glyph-name="lcaron" unicode="&#x13e;" horiz-adv-x="573" 
d="M518 1200l21 356h243l-100 -356h-164zM139 0v1556h295v-1556h-295z" />
    <glyph glyph-name="Ldot" unicode="&#x13f;" horiz-adv-x="1181" 
d="M158 0v1464h331v-1204h596v-260h-927zM915 629q-76 0 -129 52.5t-53 127.5q0 74 53 126t129 52q78 0 131.5 -52t53.5 -126q0 -75 -53.5 -127.5t-131.5 -52.5z" />
    <glyph glyph-name="ldot" unicode="&#x140;" horiz-adv-x="837" 
d="M139 0v1556h295v-1556h-295zM700 561q-76 0 -129 52.5t-53 127.5q0 74 53 126.5t129 52.5q78 0 131.5 -52.5t53.5 -126.5q0 -75 -53.5 -127.5t-131.5 -52.5z" />
    <glyph glyph-name="Lslash" unicode="&#x141;" horiz-adv-x="1185" 
d="M63 485v191l134 47v741h331v-624l383 137v-193l-383 -135v-389h596v-260h-927v532z" />
    <glyph glyph-name="lslash" unicode="&#x142;" horiz-adv-x="641" 
d="M37 571v203l135 68v714h295v-563l143 74v-203l-143 -73v-791h-295v639z" />
    <glyph glyph-name="Nacute" unicode="&#x143;" horiz-adv-x="1552" 
d="M680 1563l108 284h322l-207 -284h-223zM158 0v1464h385l557 -964v964h295v-1464h-332l-610 1042v-1042h-295z" />
    <glyph glyph-name="nacute" unicode="&#x144;" horiz-adv-x="1259" 
d="M510 1217l117 325h311l-213 -325h-215zM131 0v1071h297v-170q43 86 132.5 140.5t215.5 54.5q166 0 263.5 -103.5t97.5 -310.5v-682h-297v639q0 110 -45.5 162.5t-143.5 52.5q-99 0 -161 -61t-62 -175v-618h-297z" />
    <glyph glyph-name="Ncommaaccent" unicode="&#x145;" horiz-adv-x="1552" 
d="M717 -467l-168 55l96 349l266 -43zM158 0v1464h385l557 -964v964h295v-1464h-332l-610 1042v-1042h-295z" />
    <glyph glyph-name="ncommaaccent" unicode="&#x146;" horiz-adv-x="1259" 
d="M584 -467l-168 55l96 349l266 -43zM131 0v1071h297v-170q43 86 132.5 140.5t215.5 54.5q166 0 263.5 -103.5t97.5 -310.5v-682h-297v639q0 110 -45.5 162.5t-143.5 52.5q-99 0 -161 -61t-62 -175v-618h-297z" />
    <glyph glyph-name="Ncaron" unicode="&#x147;" horiz-adv-x="1552" 
d="M676 1563l-221 284h213l141 -106l139 106h209l-229 -284h-252zM158 0v1464h385l557 -964v964h295v-1464h-332l-610 1042v-1042h-295z" />
    <glyph glyph-name="ncaron" unicode="&#x148;" horiz-adv-x="1259" 
d="M514 1219l-233 319h208l142 -129l141 129h205l-240 -319h-223zM131 0v1071h297v-170q43 86 132.5 140.5t215.5 54.5q166 0 263.5 -103.5t97.5 -310.5v-682h-297v639q0 110 -45.5 162.5t-143.5 52.5q-99 0 -161 -61t-62 -175v-618h-297z" />
    <glyph glyph-name="napostrophe" unicode="&#x149;" horiz-adv-x="1413" 
d="M96 922l-170 69l170 498l264 -94zM285 0v1071h297v-170q43 86 132.5 140.5t215.5 54.5q166 0 263 -103.5t97 -310.5v-682h-297v639q0 110 -45.5 162.5t-142.5 52.5q-99 0 -161 -61t-62 -175v-618h-297z" />
    <glyph glyph-name="Eng" unicode="&#x14a;" horiz-adv-x="1552" 
d="M934 -395q-144 0 -236 45v244q34 -13 50.5 -18t50.5 -11t71 -6q84 0 135 40t60 121l-606 1043v-1063h-301v1464h389l547 -960v960h301v-1427q0 -205 -122 -318.5t-339 -113.5z" />
    <glyph glyph-name="eng" unicode="&#x14b;" horiz-adv-x="1259" 
d="M700 -383v221q75 6 107.5 41t32.5 101v659q0 110 -45.5 162.5t-143.5 52.5q-99 0 -161 -61t-62 -175v-618h-297v1071h297v-170q43 86 132.5 140.5t215.5 54.5q166 0 263.5 -103.5t97.5 -310.5v-700q0 -87 -21.5 -151t-71 -113t-135.5 -74.5t-209 -26.5z" />
    <glyph glyph-name="Omacron" unicode="&#x14c;" horiz-adv-x="1671" 
d="M524 1591v187h619v-187h-619zM840 242q185 0 294 131.5t109 353.5v16q0 217 -109 348.5t-298 131.5q-190 0 -299 -130t-109 -352v-16q0 -221 114.5 -352t297.5 -131zM834 -23q-225 0 -397 97t-263.5 266t-91.5 383v16q0 215 97.5 385.5t269.5 265.5t387 95
q218 0 389.5 -92t267.5 -260t96 -385v-17q0 -217 -92.5 -388t-265 -268.5t-397.5 -97.5z" />
    <glyph glyph-name="omacron" unicode="&#x14d;" horiz-adv-x="1261" 
d="M330 1280v178h596v-178h-596zM631 203q124 0 193 86t69 239v15q0 154 -69 240.5t-193 86.5q-123 0 -192.5 -85t-69.5 -238v-17q0 -155 68.5 -241t193.5 -86zM629 -23q-159 0 -286.5 66.5t-202 192t-74.5 288.5v17q0 165 74 292t202 195t289 68q245 0 404 -151t159 -398
v-17q0 -166 -74 -292.5t-202 -193.5t-289 -67z" />
    <glyph glyph-name="Obreve" unicode="&#x14e;" horiz-adv-x="1671" 
d="M831 1550q-136 0 -220.5 81.5t-92.5 217.5h199q16 -106 114 -106q50 0 81 28t40 78h197q-9 -135 -96.5 -217t-221.5 -82zM840 242q185 0 294 131.5t109 353.5v16q0 217 -109 348.5t-298 131.5q-190 0 -299 -130t-109 -352v-16q0 -221 114.5 -352t297.5 -131zM834 -23
q-225 0 -397 97t-263.5 266t-91.5 383v16q0 215 97.5 385.5t269.5 265.5t387 95q218 0 389.5 -92t267.5 -260t96 -385v-17q0 -217 -92.5 -388t-265 -268.5t-397.5 -97.5z" />
    <glyph glyph-name="obreve" unicode="&#x14f;" horiz-adv-x="1261" 
d="M631 203q124 0 193 86t69 239v15q0 154 -69 240.5t-193 86.5q-123 0 -192.5 -85t-69.5 -238v-17q0 -155 68.5 -241t193.5 -86zM629 -23q-159 0 -286.5 66.5t-202 192t-74.5 288.5v17q0 165 74 292t202 195t289 68q245 0 404 -151t159 -398v-17q0 -166 -74 -292.5
t-202 -193.5t-289 -67zM627 1225q-134 0 -219.5 82.5t-92.5 222.5h195q13 -111 117 -111q105 0 125 111h190q-7 -139 -95 -222t-220 -83z" />
    <glyph glyph-name="Ohungarumlaut" unicode="&#x150;" horiz-adv-x="1671" 
d="M530 1563l80 284h271l-150 -284h-201zM899 1563l80 284h270l-151 -284h-199zM840 242q185 0 294 131.5t109 353.5v16q0 217 -109 348.5t-298 131.5q-190 0 -299 -130t-109 -352v-16q0 -221 114.5 -352t297.5 -131zM834 -23q-225 0 -397 97t-263.5 266t-91.5 383v16
q0 215 97.5 385.5t269.5 265.5t387 95q218 0 389.5 -92t267.5 -260t96 -385v-17q0 -217 -92.5 -388t-265 -268.5t-397.5 -97.5z" />
    <glyph glyph-name="ohungarumlaut" unicode="&#x151;" horiz-adv-x="1261" 
d="M346 1217l86 325h252l-156 -325h-182zM690 1217l86 325h254l-156 -325h-184zM631 203q124 0 193 86t69 239v15q0 154 -69 240.5t-193 86.5q-123 0 -192.5 -85t-69.5 -238v-17q0 -155 68.5 -241t193.5 -86zM629 -23q-159 0 -286.5 66.5t-202 192t-74.5 288.5v17
q0 165 74 292t202 195t289 68q245 0 404 -151t159 -398v-17q0 -166 -74 -292.5t-202 -193.5t-289 -67z" />
    <glyph glyph-name="OE" unicode="&#x152;" horiz-adv-x="1986" 
d="M82 733q0 165 49 299t143.5 230.5t241 149t334.5 52.5h1030v-258h-592v-342h467v-241h-467v-365h627v-258h-1067q-375 0 -570.5 190.5t-195.5 526.5v16zM958 1206h-98q-432 0 -432 -469v-16q0 -231 104.5 -347t331.5 -116h94v948z" />
    <glyph glyph-name="oe" unicode="&#x153;" horiz-adv-x="2025" 
d="M629 -23q-159 0 -286.5 66.5t-202 192t-74.5 288.5v17q0 165 74 292t202 195t289 68q130 0 235.5 -49.5t173.5 -139.5q68 90 171 139.5t229 49.5q85 0 160.5 -19.5t142.5 -62.5t115 -105.5t76 -154t28 -203.5v-82h-774q8 -134 77 -207.5t191 -73.5q194 0 221 150h281
q-25 -173 -157.5 -267t-352.5 -94q-272 0 -412 185q-143 -185 -407 -185zM631 203q124 0 193 86t69 239v15q0 154 -69 240.5t-193 86.5q-123 0 -192.5 -85t-69.5 -238v-17q0 -156 68 -241.5t194 -85.5zM1194 651h477q-15 240 -231 240q-100 0 -165.5 -63.5t-80.5 -176.5z
" />
    <glyph glyph-name="Racute" unicode="&#x154;" horiz-adv-x="1376" 
d="M543 1563l108 284h322l-207 -284h-223zM158 0v1464h524q267 0 416 -111t149 -333v-8q0 -157 -81 -252.5t-220 -136.5l387 -623h-352l-350 565h-144v-565h-329zM487 791h187q250 0 250 210v9q0 108 -62 154t-188 46h-187v-419z" />
    <glyph glyph-name="racute" unicode="&#x155;" horiz-adv-x="837" 
d="M338 1217l117 325h311l-213 -325h-215zM131 0v1071h297v-205q52 110 135 165t211 56v-276q-172 2 -259 -62t-87 -212v-537h-297z" />
    <glyph glyph-name="Rcommaaccent" unicode="&#x156;" horiz-adv-x="1376" 
d="M664 -467l-168 55l96 349l266 -43zM158 0v1464h524q267 0 416 -111t149 -333v-8q0 -157 -81 -252.5t-220 -136.5l387 -623h-352l-350 565h-144v-565h-329zM487 791h187q250 0 250 210v9q0 108 -62 154t-188 46h-187v-419z" />
    <glyph glyph-name="rcommaaccent" unicode="&#x157;" horiz-adv-x="837" 
d="M238 -467l-168 55l96 349l266 -43zM131 0v1071h297v-205q52 110 135 165t211 56v-276q-172 2 -259 -62t-87 -212v-537h-297z" />
    <glyph glyph-name="Rcaron" unicode="&#x158;" horiz-adv-x="1376" 
d="M539 1563l-222 284h213l142 -106l139 106h209l-229 -284h-252zM158 0v1464h524q267 0 416 -111t149 -333v-8q0 -157 -81 -252.5t-220 -136.5l387 -623h-352l-350 565h-144v-565h-329zM487 791h187q250 0 250 210v9q0 108 -62 154t-188 46h-187v-419z" />
    <glyph glyph-name="rcaron" unicode="&#x159;" horiz-adv-x="837" 
d="M342 1219l-233 319h208l142 -129l141 129h205l-240 -319h-223zM131 0v1071h297v-205q52 110 135 165t211 56v-276q-172 2 -259 -62t-87 -212v-537h-297z" />
    <glyph glyph-name="Sacute" unicode="&#x15a;" horiz-adv-x="1310" 
d="M670 -23q-291 0 -440.5 127t-163.5 355h317q6 -54 21 -93.5t46 -74.5t86.5 -53.5t133.5 -18.5q108 0 174.5 54t66.5 141t-57 126t-219 64q-286 37 -407.5 136.5t-121.5 308.5q0 190 146.5 313t386.5 123q249 0 389 -110.5t160 -327.5h-305q-15 99 -75 146.5t-169 47.5
q-106 0 -162.5 -45t-56.5 -121q0 -82 54.5 -122t217.5 -64q140 -18 234.5 -46.5t165.5 -79t104 -129t33 -190.5q0 -200 -153 -333.5t-406 -133.5zM516 1563l109 284h321l-207 -284h-223z" />
    <glyph glyph-name="sacute" unicode="&#x15b;" horiz-adv-x="1028" 
d="M391 1217l117 325h311l-213 -325h-215zM520 -23q-217 0 -338.5 93t-128.5 266h277q10 -76 52.5 -114t135.5 -38q168 0 168 117q0 54 -49 81.5t-168 45.5q-217 33 -306 106t-89 228q0 81 35 146t95 105t135 61.5t159 21.5q406 0 442 -332h-272q-12 67 -52 98t-116 31
q-71 0 -111.5 -30.5t-40.5 -80.5t44 -74t163 -42q108 -16 179.5 -37.5t128 -59t82.5 -96.5t26 -143q0 -172 -118 -262.5t-333 -90.5z" />
    <glyph glyph-name="Scircumflex" unicode="&#x15c;" horiz-adv-x="1310" 
d="M291 1563l229 284h252l221 -284h-213l-139 108l-141 -108h-209zM670 -23q-291 0 -440.5 127t-163.5 355h317q6 -54 21 -93.5t46 -74.5t86.5 -53.5t133.5 -18.5q108 0 174.5 54t66.5 141t-57 126t-219 64q-286 37 -407.5 136.5t-121.5 308.5q0 190 146.5 313t386.5 123
q249 0 389 -110.5t160 -327.5h-305q-15 99 -75 146.5t-169 47.5q-106 0 -162.5 -45t-56.5 -121q0 -82 54.5 -122t217.5 -64q140 -18 234.5 -46.5t165.5 -79t104 -129t33 -190.5q0 -200 -153 -333.5t-406 -133.5z" />
    <glyph glyph-name="scircumflex" unicode="&#x15d;" horiz-adv-x="1028" 
d="M160 1219l239 319h224l233 -319h-209l-141 129l-144 -129h-202zM520 -23q-217 0 -338.5 93t-128.5 266h277q10 -76 52.5 -114t135.5 -38q168 0 168 117q0 54 -49 81.5t-168 45.5q-217 33 -306 106t-89 228q0 81 35 146t95 105t135 61.5t159 21.5q406 0 442 -332h-272
q-12 67 -52 98t-116 31q-71 0 -111.5 -30.5t-40.5 -80.5t44 -74t163 -42q108 -16 179.5 -37.5t128 -59t82.5 -96.5t26 -143q0 -172 -118 -262.5t-333 -90.5z" />
    <glyph glyph-name="Scedilla" unicode="&#x15e;" horiz-adv-x="1310" 
d="M612 -455q-102 0 -165 49t-74 136h151q5 -27 25 -45.5t53 -18.5t52.5 19t19.5 49q0 28 -19 45.5t-51 17.5q-39 0 -63 -20l-74 71l82 136q-231 26 -351 149t-132 326h317q6 -54 21 -93.5t46 -74.5t86.5 -53.5t133.5 -18.5q108 0 174.5 54t66.5 141t-57 126t-219 64
q-286 37 -407.5 136.5t-121.5 308.5q0 190 146.5 313t386.5 123q249 0 389 -110.5t160 -327.5h-305q-15 99 -75 146.5t-169 47.5q-106 0 -162.5 -45t-56.5 -121q0 -82 54.5 -122t217.5 -64q140 -18 234.5 -46.5t165.5 -79t104 -129t33 -190.5q0 -97 -38.5 -181.5
t-108.5 -147.5t-174.5 -100t-229.5 -38l-45 -75q88 10 150.5 -35t62.5 -137q0 -87 -65 -136t-169 -49z" />
    <glyph glyph-name="scedilla" unicode="&#x15f;" horiz-adv-x="1028" 
d="M481 -455q-102 0 -165 49t-74 136h151q5 -27 25 -45.5t53 -18.5t52.5 19t19.5 49q0 28 -19 45.5t-51 17.5q-39 0 -63 -20l-74 71l82 136q-170 20 -264.5 110.5t-100.5 241.5h277q10 -76 52.5 -114t135.5 -38q168 0 168 117q0 54 -49 81.5t-168 45.5q-217 33 -306 106
t-89 228q0 81 35 146t95 105t135 61.5t159 21.5q406 0 442 -332h-272q-12 67 -52 98t-116 31q-71 0 -111.5 -30.5t-40.5 -80.5t44 -74t163 -42q108 -16 179.5 -37.5t128 -59t82.5 -96.5t26 -143q0 -166 -111 -256.5t-313 -96.5l-45 -75q88 10 150.5 -35t62.5 -137
q0 -87 -65 -136t-169 -49z" />
    <glyph glyph-name="Scaron" unicode="&#x160;" horiz-adv-x="1310" 
d="M512 1563l-221 284h213l141 -106l139 106h209l-229 -284h-252zM670 -23q-291 0 -440.5 127t-163.5 355h317q6 -54 21 -93.5t46 -74.5t86.5 -53.5t133.5 -18.5q108 0 174.5 54t66.5 141t-57 126t-219 64q-286 37 -407.5 136.5t-121.5 308.5q0 190 146.5 313t386.5 123
q249 0 389 -110.5t160 -327.5h-305q-15 99 -75 146.5t-169 47.5q-106 0 -162.5 -45t-56.5 -121q0 -82 54.5 -122t217.5 -64q140 -18 234.5 -46.5t165.5 -79t104 -129t33 -190.5q0 -200 -153 -333.5t-406 -133.5z" />
    <glyph glyph-name="scaron" unicode="&#x161;" horiz-adv-x="1028" 
d="M389 1219l-233 319h209l141 -129l141 129h205l-240 -319h-223zM520 -23q-217 0 -338.5 93t-128.5 266h277q10 -76 52.5 -114t135.5 -38q168 0 168 117q0 54 -49 81.5t-168 45.5q-217 33 -306 106t-89 228q0 81 35 146t95 105t135 61.5t159 21.5q406 0 442 -332h-272
q-12 67 -52 98t-116 31q-71 0 -111.5 -30.5t-40.5 -80.5t44 -74t163 -42q108 -16 179.5 -37.5t128 -59t82.5 -96.5t26 -143q0 -172 -118 -262.5t-333 -90.5z" />
    <glyph glyph-name="Tcommaaccent" unicode="&#x162;" horiz-adv-x="1224" 
d="M565 -467l-168 55l97 349l266 -43zM444 0v1206h-395v258h1125v-258h-396v-1206h-334z" />
    <glyph glyph-name="tcommaaccent" unicode="&#x163;" horiz-adv-x="772" 
d="M371 -467l-168 55l96 349l266 -43zM522 -20q-169 0 -257.5 85t-88.5 252v543h-137v211h137v232h295v-232h225v-211h-225v-516q0 -127 119 -127q60 0 112 21v-230q-82 -28 -180 -28z" />
    <glyph glyph-name="Tcaron" unicode="&#x164;" horiz-adv-x="1222" 
d="M479 1563l-221 284h213l141 -106l140 106h209l-230 -284h-252zM444 0v1206h-395v258h1125v-258h-396v-1206h-334z" />
    <glyph glyph-name="tcaron" unicode="&#x165;" horiz-adv-x="772" 
d="M584 1200l20 356h244l-100 -356h-164zM522 -20q-169 0 -257.5 85t-88.5 252v543h-137v211h137v232h295v-232h225v-211h-225v-516q0 -127 119 -127q60 0 112 21v-230q-82 -28 -180 -28z" />
    <glyph glyph-name="Tbar" unicode="&#x166;" horiz-adv-x="1222" 
d="M172 614v217h272v375h-395v258h1125v-258h-396v-375h273v-217h-273v-614h-334v614h-272z" />
    <glyph glyph-name="tbar" unicode="&#x167;" horiz-adv-x="772" 
d="M39 512v174h137v174h-137v211h137v232h295v-232h225v-211h-225v-174h225v-174h-225v-168q0 -127 119 -127q60 0 112 19v-230q-93 -26 -182 -26q-168 0 -256 85.5t-88 251.5v195h-137z" />
    <glyph glyph-name="Utilde" unicode="&#x168;" horiz-adv-x="1513" 
d="M750 -23q-291 0 -448 152t-157 442v893h334v-872q0 -186 62 -268t211 -82q150 0 216 82t66 280v860h334v-880q0 -297 -160 -452t-458 -155zM879 1565q-45 0 -91.5 18.5t-84 37.5t-60.5 19q-27 0 -46.5 -21t-25.5 -54h-176q10 137 75 211.5t159 74.5q54 0 131 -38.5
t106 -38.5q27 0 45.5 21t24.5 54h178q-12 -136 -77.5 -210t-157.5 -74z" />
    <glyph glyph-name="utilde" unicode="&#x169;" horiz-adv-x="1253" 
d="M487 -23q-165 0 -264.5 101t-99.5 303v690h295v-649q0 -109 45.5 -162t140.5 -53q98 0 160.5 60.5t62.5 174.5v629h295v-1071h-295v168q-44 -87 -129 -139t-211 -52zM748 1225q-45 0 -90 19.5t-81.5 39t-60.5 19.5q-26 0 -46 -21.5t-26 -54.5h-170q10 138 71.5 213.5
t154.5 75.5q54 0 130 -38t105 -38q27 0 45.5 20.5t24.5 55.5h172q-12 -138 -75 -214.5t-154 -76.5z" />
    <glyph glyph-name="Umacron" unicode="&#x16a;" horiz-adv-x="1513" 
d="M750 -23q-291 0 -448 152t-157 442v893h334v-872q0 -186 62 -268t211 -82q150 0 216 82t66 280v860h334v-880q0 -297 -160 -452t-458 -155zM444 1591v187h619v-187h-619z" />
    <glyph glyph-name="umacron" unicode="&#x16b;" horiz-adv-x="1253" 
d="M487 -23q-165 0 -264.5 101t-99.5 303v690h295v-649q0 -109 45.5 -162t140.5 -53q98 0 160.5 60.5t62.5 174.5v629h295v-1071h-295v168q-44 -87 -129 -139t-211 -52zM326 1280v178h596v-178h-596z" />
    <glyph glyph-name="Ubreve" unicode="&#x16c;" horiz-adv-x="1513" 
d="M750 -23q-291 0 -448 152t-157 442v893h334v-872q0 -186 62 -268t211 -82q150 0 216 82t66 280v860h334v-880q0 -297 -160 -452t-458 -155zM752 1550q-136 0 -221 81.5t-93 217.5h199q16 -106 115 -106q101 0 120 106h197q-9 -135 -96 -217t-221 -82z" />
    <glyph glyph-name="ubreve" unicode="&#x16d;" horiz-adv-x="1253" 
d="M487 -23q-165 0 -264.5 101t-99.5 303v690h295v-649q0 -109 45.5 -162t140.5 -53q98 0 160.5 60.5t62.5 174.5v629h295v-1071h-295v168q-44 -87 -129 -139t-211 -52zM623 1225q-134 0 -219.5 82.5t-92.5 222.5h195q13 -111 117 -111q105 0 125 111h190q-7 -139 -95 -222
t-220 -83z" />
    <glyph glyph-name="Uring" unicode="&#x16e;" horiz-adv-x="1513" 
d="M750 -23q-291 0 -448 152t-157 442v893h334v-872q0 -186 62 -268t211 -82q150 0 216 82t66 280v860h334v-880q0 -297 -160 -452t-458 -155zM754 1614q43 0 71.5 30.5t28.5 77.5t-28.5 79t-71.5 32q-44 0 -72.5 -31.5t-28.5 -79.5q0 -47 28.5 -77.5t72.5 -30.5zM754 1495
q-97 0 -166.5 66.5t-69.5 160.5q0 95 69.5 162.5t166.5 67.5t166 -67.5t69 -162.5q0 -94 -69 -160.5t-166 -66.5z" />
    <glyph glyph-name="uring" unicode="&#x16f;" horiz-adv-x="1253" 
d="M621 1266q43 0 70.5 30.5t27.5 77.5q0 46 -28 77.5t-70 31.5t-70.5 -31.5t-28.5 -77.5q0 -47 28 -77.5t71 -30.5zM621 1147q-97 0 -165.5 66.5t-68.5 160.5q0 92 68.5 158.5t165.5 66.5q96 0 164.5 -66t68.5 -159q0 -94 -68 -160.5t-165 -66.5zM487 -23
q-165 0 -264.5 101t-99.5 303v690h295v-649q0 -109 45.5 -162t140.5 -53q98 0 160.5 60.5t62.5 174.5v629h295v-1071h-295v168q-44 -87 -129 -139t-211 -52z" />
    <glyph glyph-name="Uhungarumlaut" unicode="&#x170;" horiz-adv-x="1513" 
d="M451 1563l79 284h271l-150 -284h-200zM819 1563l80 284h270l-151 -284h-199zM750 -23q-291 0 -448 152t-157 442v893h334v-872q0 -186 62 -268t211 -82q150 0 216 82t66 280v860h334v-880q0 -297 -160 -452t-458 -155z" />
    <glyph glyph-name="uhungarumlaut" unicode="&#x171;" horiz-adv-x="1253" 
d="M487 -23q-165 0 -264.5 101t-99.5 303v690h295v-649q0 -109 45.5 -162t140.5 -53q98 0 160.5 60.5t62.5 174.5v629h295v-1071h-295v168q-44 -87 -129 -139t-211 -52zM342 1217l86 325h252l-156 -325h-182zM686 1217l86 325h254l-156 -325h-184z" />
    <glyph glyph-name="Uogonek" unicode="&#x172;" horiz-adv-x="1513" 
d="M834 -373q-107 0 -170.5 44t-63.5 120q0 107 129 186q-282 5 -433 157t-151 437v893h334v-872q0 -186 62 -268t211 -82q150 0 216 82t66 280v860h334v-880q0 -207 -77.5 -344t-223.5 -203q-116 -55 -149 -78q-60 -43 -60 -100q0 -30 18.5 -46t49.5 -16q44 0 78 15v-154
q-68 -31 -170 -31z" />
    <glyph glyph-name="uogonek" unicode="&#x173;" horiz-adv-x="1253" 
d="M975 -373q-105 0 -167.5 44.5t-62.5 121.5q0 124 170 207h-88v168q-44 -87 -129 -139t-211 -52q-165 0 -264.5 101t-99.5 303v690h295v-649q0 -109 45.5 -162t140.5 -53q98 0 160.5 60.5t62.5 174.5v629h295v-1053q-69 -50 -99 -87.5t-30 -75.5q0 -64 70 -64q48 0 76 14
v-147q-68 -31 -164 -31z" />
    <glyph glyph-name="Wcircumflex" unicode="&#x174;" horiz-adv-x="1988" 
d="M643 1563l229 284h252l222 -284h-213l-140 108l-141 -108h-209zM399 0l-356 1464h336l229 -1011l250 1011h283l260 -1018l237 1018h308l-357 -1464h-338l-264 1012l-268 -1012h-320z" />
    <glyph glyph-name="wcircumflex" unicode="&#x175;" horiz-adv-x="1691" 
d="M496 1219l239 319h223l234 -319h-209l-141 129l-144 -129h-202zM358 0l-325 1071h311l191 -721l206 721h244l189 -721l202 721h285l-338 -1071h-291l-182 672l-197 -672h-295z" />
    <glyph glyph-name="Ycircumflex" unicode="&#x176;" horiz-adv-x="1327" 
d="M510 0v631l-483 833h364l297 -561l291 561h321l-456 -833v-631h-334zM319 1563l230 284h252l221 -284h-213l-139 108l-142 -108h-209z" />
    <glyph glyph-name="ycircumflex" unicode="&#x177;" horiz-adv-x="1161" 
d="M266 -365l189 474l-426 962h319l260 -643l240 643h285l-580 -1436h-287zM242 1219l239 319h224l233 -319h-209l-141 129l-144 -129h-202z" />
    <glyph glyph-name="Ydieresis" unicode="&#x178;" horiz-adv-x="1327" 
d="M510 0v631l-483 833h364l297 -561l291 561h321l-456 -833v-631h-334zM451 1575q-63 0 -107.5 43.5t-44.5 105.5q0 61 44.5 104.5t107.5 43.5q62 0 106.5 -43.5t44.5 -104.5t-44.5 -105t-106.5 -44zM891 1575q-62 0 -106 44t-44 105t44 104.5t106 43.5q63 0 107 -43
t44 -105t-44 -105.5t-107 -43.5z" />
    <glyph glyph-name="Zacute" unicode="&#x179;" horiz-adv-x="1259" 
d="M510 1563l108 284h322l-207 -284h-223zM37 0v41l698 1165h-620v258h1089v-39l-684 -1165h660v-260h-1143z" />
    <glyph glyph-name="zacute" unicode="&#x17a;" horiz-adv-x="1021" 
d="M403 1217l117 325h311l-213 -325h-215zM29 0v33l528 809h-475v229h905v-37l-532 -805h512v-229h-938z" />
    <glyph glyph-name="Zdotaccent" unicode="&#x17b;" horiz-adv-x="1259" 
d="M37 0v41l698 1165h-620v258h1089v-39l-684 -1165h660v-260h-1143zM639 1573q-70 0 -118 46t-48 112t48 111.5t118 45.5q69 0 116.5 -45.5t47.5 -111.5t-47.5 -112t-116.5 -46z" />
    <glyph glyph-name="zdotaccent" unicode="&#x17c;" horiz-adv-x="1021" 
d="M29 0v33l528 809h-475v229h905v-37l-532 -805h512v-229h-938zM524 1225q-70 0 -118 45.5t-48 111.5q0 67 47.5 112.5t118.5 45.5q69 0 117.5 -45.5t48.5 -112.5q0 -66 -48.5 -111.5t-117.5 -45.5z" />
    <glyph glyph-name="Zcaron" unicode="&#x17d;" horiz-adv-x="1259" 
d="M506 1563l-221 284h213l141 -106l139 106h209l-229 -284h-252zM37 0v41l698 1165h-620v258h1089v-39l-684 -1165h660v-260h-1143z" />
    <glyph glyph-name="zcaron" unicode="&#x17e;" horiz-adv-x="1021" 
d="M408 1219l-234 319h209l141 -129l142 129h204l-239 -319h-223zM29 0v33l528 809h-475v229h905v-37l-532 -805h512v-229h-938z" />
    <glyph glyph-name="florin" unicode="&#x192;" horiz-adv-x="878" 
d="M51 639v209h191l41 274q50 361 411 361q86 0 154 -23v-225q-52 18 -117 18q-138 0 -158 -153l-36 -252h245v-209h-276l-148 -1012h-295l148 1012h-160z" />
    <glyph glyph-name="Aringacute" unicode="&#x1fa;" horiz-adv-x="1474" 
d="M43 0l481 1464h432l476 -1464h-347l-100 326h-530l-101 -326h-311zM745 1526q-97 0 -166 66.5t-69 160.5q0 95 69 162t166 67t166.5 -67t69.5 -162q0 -94 -69.5 -160.5t-166.5 -66.5zM721 1194l-195 -633h387zM631 2025l108 285h322l-207 -285h-223zM745 1645
q43 0 72 30.5t29 77.5t-29 79t-72 32q-44 0 -72 -31.5t-28 -79.5q0 -47 28 -77.5t72 -30.5z" />
    <glyph glyph-name="aringacute" unicode="&#x1fb;" horiz-adv-x="1155" 
d="M420 -23q-157 0 -258 80t-101 240q0 92 40.5 159t116 107t174.5 59t226 19h121v43q0 101 -38.5 149t-135.5 48q-162 0 -182 -152h-281q9 123 75 207t169 122t238 38q209 0 328.5 -95t119.5 -303v-698h-289v129q-108 -152 -323 -152zM508 184q101 0 166 52t65 139v90h-114
q-136 0 -204.5 -34.5t-68.5 -117.5q0 -61 38.5 -95t117.5 -34zM584 1294q43 0 70.5 31t27.5 78q0 46 -28 77t-70 31q-43 0 -71 -31t-28 -77q0 -47 28 -78t71 -31zM584 1176q-97 0 -165.5 66.5t-68.5 160.5q0 92 68.5 158.5t165.5 66.5q96 0 164.5 -66t68.5 -159
q0 -94 -68 -160.5t-165 -66.5zM481 1696l109 284h321l-206 -284h-224z" />
    <glyph glyph-name="AEacute" unicode="&#x1fc;" horiz-adv-x="2013" 
d="M35 0l696 1464h1176v-258h-615v-342h490v-241h-490v-365h650v-258h-981v344h-447l-158 -344h-321zM911 1206l-290 -633h340v633h-50zM1126 1563l109 284h321l-206 -284h-224z" />
    <glyph glyph-name="aeacute" unicode="&#x1fd;" horiz-adv-x="1839" 
d="M1276 -23q-282 0 -412 199q-71 -100 -172 -149.5t-250 -49.5q-168 0 -274.5 80t-106.5 240q0 92 40 160.5t115 109.5t174 60.5t224 19.5h127v37q0 99 -40 148t-134 49q-165 0 -184 -152h-281q7 93 46 164t103 115t145 66t177 22q249 0 342 -144q135 144 351 144
q83 0 157 -19t139 -61.5t112 -105t74.5 -154.5t27.5 -205v-80h-752q8 -137 72 -210t182 -73q188 0 215 150h279q-25 -173 -154 -267t-342 -94zM508 184q104 0 168.5 51.5t64.5 139.5v94h-120q-133 0 -201 -34t-68 -116q0 -135 156 -135zM1028 647h459q-18 244 -221 244
q-98 0 -161.5 -64.5t-76.5 -179.5zM823 1217l117 325h311l-213 -325h-215z" />
    <glyph glyph-name="Oslashacute" unicode="&#x1fe;" horiz-adv-x="1671" 
d="M178 -66l-110 109l178 190q-164 196 -164 490v16q0 215 97.5 385.5t269.5 265.5t387 95q259 0 454 -133l156 166l110 -111l-149 -160q182 -201 182 -499v-17q0 -218 -92.5 -389t-265 -268t-397.5 -97q-281 0 -478 148zM840 242q187 0 297 131.5t110 353.5v16
q0 157 -57 271l-627 -670q108 -102 277 -102zM424 725q0 -144 47 -250l621 664q-105 84 -256 84q-192 0 -302 -129.5t-110 -352.5v-16zM709 1563l108 284h322l-207 -284h-223z" />
    <glyph glyph-name="oslashacute" unicode="&#x1ff;" horiz-adv-x="1261" 
d="M145 -78l-100 90l143 154q-122 144 -122 358v17q0 165 74 292t202 195t289 68q190 0 330 -95l135 146l100 -90l-133 -144q131 -147 131 -366v-17q0 -166 -74 -292.5t-202 -193.5t-289 -67q-195 0 -340 99zM631 201q125 0 194.5 87t69.5 240v15q0 83 -27 159l-409 -442
q65 -59 172 -59zM367 530q0 -88 20 -149l404 436q-62 53 -160 53q-125 0 -194.5 -85t-69.5 -238v-17zM510 1217l117 325h311l-213 -325h-215z" />
    <glyph glyph-name="Scommaaccent" unicode="&#x218;" horiz-adv-x="1314" 
d="M598 -467l-168 55l96 349l267 -43zM670 -23q-291 0 -440.5 127t-163.5 355h317q6 -54 21 -93.5t46 -74.5t86.5 -53.5t133.5 -18.5q108 0 174.5 54t66.5 141t-57 126t-219 64q-286 37 -407.5 136.5t-121.5 308.5q0 190 146.5 313t386.5 123q249 0 389 -110.5t160 -327.5
h-305q-15 99 -75 146.5t-169 47.5q-106 0 -162.5 -45t-56.5 -121q0 -82 54.5 -122t217.5 -64q140 -18 234.5 -46.5t165.5 -79t104 -129t33 -190.5q0 -200 -153 -333.5t-406 -133.5z" />
    <glyph glyph-name="scommaaccent" unicode="&#x219;" horiz-adv-x="1028" 
d="M463 -467l-168 55l96 349l266 -43zM518 -23q-217 0 -338.5 93t-128.5 266h277q10 -76 52.5 -114t135.5 -38q168 0 168 117q0 54 -49 81.5t-168 45.5q-217 33 -306 106t-89 228q0 81 35 146t95 105t135 61.5t159 21.5q406 0 442 -332h-272q-12 67 -52 98t-116 31
q-71 0 -111.5 -30.5t-40.5 -80.5t44 -74t163 -42q108 -16 179.5 -37.5t128 -59t82.5 -96.5t26 -143q0 -172 -118 -262.5t-333 -90.5z" />
    <glyph glyph-name="uni0237" unicode="&#x237;" horiz-adv-x="575" 
d="M-2 -383v221q75 6 108 41t33 101v1091h295v-1089q0 -87 -21.5 -151t-71 -113t-135 -74.5t-208.5 -26.5z" />
    <glyph glyph-name="circumflex" unicode="&#x2c6;" horiz-adv-x="819" 
d="M61 1219l240 319h223l234 -319h-209l-141 129l-144 -129h-203z" />
    <glyph glyph-name="caron" unicode="&#x2c7;" horiz-adv-x="819" 
d="M295 1219l-234 319h209l142 -129l141 129h205l-240 -319h-223z" />
    <glyph glyph-name="breve" unicode="&#x2d8;" horiz-adv-x="819" 
d="M408 1225q-134 0 -219.5 82.5t-92.5 222.5h195q13 -111 117 -111t124 111h191q-7 -139 -95 -222t-220 -83z" />
    <glyph glyph-name="dotaccent" unicode="&#x2d9;" horiz-adv-x="819" 
d="M410 1225q-70 0 -118 45.5t-48 111.5q0 67 47.5 112.5t118.5 45.5q69 0 117 -45.5t48 -112.5q0 -66 -48 -111.5t-117 -45.5z" />
    <glyph glyph-name="ring" unicode="&#x2da;" horiz-adv-x="819" 
d="M410 1317q43 0 70.5 30.5t27.5 77.5q0 46 -28 77.5t-70 31.5t-70.5 -31.5t-28.5 -77.5q0 -47 28 -77.5t71 -30.5zM410 1198q-97 0 -165.5 66.5t-68.5 160.5q0 93 69 159.5t165 66.5t164.5 -66.5t68.5 -159.5q0 -94 -68 -160.5t-165 -66.5z" />
    <glyph glyph-name="ogonek" unicode="&#x2db;" horiz-adv-x="819" 
d="M424 -373q-100 0 -164.5 43.5t-64.5 118.5q0 127 172 211h184q-55 -39 -81 -73.5t-26 -71.5q0 -31 18 -47.5t50 -16.5q46 0 78 14v-147q-68 -31 -166 -31z" />
    <glyph glyph-name="tilde" unicode="&#x2dc;" horiz-adv-x="819" 
d="M532 1225q-45 0 -89.5 19.5t-81 39t-60.5 19.5q-26 0 -46 -21.5t-26 -54.5h-170q10 138 71.5 213.5t154.5 75.5q54 0 130 -38t105 -38q27 0 45.5 20.5t24.5 55.5h172q-12 -138 -75.5 -214.5t-154.5 -76.5z" />
    <glyph glyph-name="hungarumlaut" unicode="&#x2dd;" horiz-adv-x="819" 
d="M143 1217l86 325h252l-155 -325h-183zM487 1217l86 325h254l-155 -325h-185z" />
    <glyph glyph-name="Wgrave" unicode="&#x1e80;" horiz-adv-x="1988" 
d="M903 1563l-203 284h320l106 -284h-223zM399 0l-356 1464h336l229 -1011l250 1011h283l260 -1018l237 1018h308l-357 -1464h-338l-264 1012l-268 -1012h-320z" />
    <glyph glyph-name="wgrave" unicode="&#x1e81;" horiz-adv-x="1691" 
d="M358 0l-325 1071h311l191 -721l206 721h244l189 -721l202 721h285l-338 -1071h-291l-182 672l-197 -672h-295zM766 1217l-213 325h311l117 -325h-215z" />
    <glyph glyph-name="Wacute" unicode="&#x1e82;" horiz-adv-x="1988" 
d="M887 1563l108 284h322l-207 -284h-223zM399 0l-356 1464h336l229 -1011l250 1011h283l260 -1018l237 1018h308l-357 -1464h-338l-264 1012l-268 -1012h-320z" />
    <glyph glyph-name="wacute" unicode="&#x1e83;" horiz-adv-x="1691" 
d="M754 1217l116 325h312l-213 -325h-215zM358 0l-325 1071h311l191 -721l206 721h244l189 -721l202 721h285l-338 -1071h-291l-182 672l-197 -672h-295z" />
    <glyph glyph-name="Wdieresis" unicode="&#x1e84;" horiz-adv-x="1988" 
d="M778 1575q-63 0 -107 43.5t-44 105.5t44 105t107 43q62 0 107 -43.5t45 -104.5t-45 -105t-107 -44zM1219 1575q-62 0 -106 44t-44 105t44 104.5t106 43.5q63 0 107 -43t44 -105t-44 -105.5t-107 -43.5zM399 0l-356 1464h336l229 -1011l250 1011h283l260 -1018l237 1018
h308l-357 -1464h-338l-264 1012l-268 -1012h-320z" />
    <glyph glyph-name="wdieresis" unicode="&#x1e85;" horiz-adv-x="1691" 
d="M651 1229q-63 0 -107 43t-44 104q0 62 44 105t107 43t107.5 -43.5t44.5 -104.5t-44.5 -104t-107.5 -43zM1069 1229q-63 0 -107 43t-44 104q0 62 44 105t107 43t107.5 -43.5t44.5 -104.5t-44.5 -104t-107.5 -43zM358 0l-325 1071h311l191 -721l206 721h244l189 -721
l202 721h285l-338 -1071h-291l-182 672l-197 -672h-295z" />
    <glyph glyph-name="Ygrave" unicode="&#x1ef2;" horiz-adv-x="1327" 
d="M510 0v631l-483 833h364l297 -561l291 561h321l-456 -833v-631h-334zM586 1563l-203 284h319l107 -284h-223z" />
    <glyph glyph-name="ygrave" unicode="&#x1ef3;" horiz-adv-x="1161" 
d="M266 -365l189 474l-426 962h319l260 -643l240 643h285l-580 -1436h-287zM500 1217l-213 325h311l117 -325h-215z" />
    <glyph glyph-name="uni2009" unicode="&#x2009;" horiz-adv-x="194" 
 />
    <glyph glyph-name="endash" unicode="&#x2013;" horiz-adv-x="1095" 
d="M92 492v188h912v-188h-912z" />
    <glyph glyph-name="emdash" unicode="&#x2014;" horiz-adv-x="1892" 
d="M92 492v188h1708v-188h-1708z" />
    <glyph glyph-name="quoteleft" unicode="&#x2018;" horiz-adv-x="593" 
d="M334 922l-264 96l264 471l170 -70z" />
    <glyph glyph-name="quoteright" unicode="&#x2019;" horiz-adv-x="593" 
d="M260 922l-170 69l170 498l264 -94z" />
    <glyph glyph-name="quotesinglbase" unicode="&#x201a;" horiz-adv-x="591" 
d="M254 -223l-168 69l170 500l264 -96z" />
    <glyph glyph-name="quotedblleft" unicode="&#x201c;" horiz-adv-x="1019" 
d="M334 922l-264 96l264 471l170 -70zM762 922l-264 96l264 471l170 -70z" />
    <glyph glyph-name="quotedblright" unicode="&#x201d;" horiz-adv-x="1019" 
d="M260 922l-170 69l170 498l264 -94zM686 922l-168 69l170 498l264 -94z" />
    <glyph glyph-name="quotedblbase" unicode="&#x201e;" horiz-adv-x="1019" 
d="M254 -223l-168 69l170 500l264 -96zM682 -223l-170 69l172 500l264 -96z" />
    <glyph glyph-name="dagger" unicode="&#x2020;" horiz-adv-x="806" 
d="M281 436v565h-226v216h226v247h245v-247h224v-216h-224v-565h-245z" />
    <glyph glyph-name="daggerdbl" unicode="&#x2021;" horiz-adv-x="806" 
d="M281 862v176h-226v199h226v227h245v-227h224v-199h-224v-176h224v-198h-224v-228h-245v228h-226v198h226z" />
    <glyph glyph-name="bullet" unicode="&#x2022;" horiz-adv-x="731" 
d="M367 346q-118 0 -198.5 80.5t-80.5 196.5t80.5 196t198.5 80q119 0 197.5 -79.5t78.5 -196.5t-78.5 -197t-197.5 -80z" />
    <glyph glyph-name="ellipsis" unicode="&#x2026;" horiz-adv-x="1763" 
d="M299 -18q-76 0 -129 52.5t-53 127.5q0 74 53 126t129 52q78 0 131 -52t53 -126q0 -75 -53 -127.5t-131 -52.5zM881 -18q-76 0 -128.5 52.5t-52.5 127.5q0 74 52.5 126t128.5 52q78 0 131 -52t53 -126q0 -75 -53 -127.5t-131 -52.5zM1462 -18q-76 0 -128 52.5t-52 127.5
q0 74 52 126t128 52q78 0 131.5 -52t53.5 -126q0 -75 -53.5 -127.5t-131.5 -52.5z" />
    <glyph glyph-name="perthousand" unicode="&#x2030;" horiz-adv-x="2430" 
d="M422 956q63 0 99 46t36 126q0 78 -36 124t-99 46t-100 -45.5t-37 -124.5q0 -81 36.5 -126.5t100.5 -45.5zM420 774q-159 0 -261 100t-102 252q0 151 106 252t259 101q154 0 258 -97.5t104 -248.5q0 -154 -103 -256.5t-261 -102.5zM244 0l973 1464h184l-973 -1464h-184z
M1210 162q64 0 100 46t36 126q0 79 -36 124.5t-100 45.5q-63 0 -100 -45.5t-37 -124.5q0 -82 36.5 -127t100.5 -45zM1210 -23q-160 0 -261 100.5t-101 254.5q0 151 104.5 251.5t257.5 100.5q154 0 258.5 -98.5t104.5 -247.5q0 -155 -103 -258t-260 -103zM2011 162
q64 0 100.5 46t36.5 126q0 78 -36.5 124t-100.5 46q-63 0 -100 -45.5t-37 -124.5q0 -82 36.5 -127t100.5 -45zM2011 -23q-160 0 -261 100.5t-101 254.5q0 151 104.5 251.5t257.5 100.5q154 0 258.5 -98.5t104.5 -247.5q0 -155 -103 -258t-260 -103z" />
    <glyph glyph-name="uni2032" unicode="&#x2032;" horiz-adv-x="483" 
d="M80 924l45 540h287l-123 -540h-209z" />
    <glyph glyph-name="uni2033" unicode="&#x2033;" horiz-adv-x="880" 
d="M80 924l45 540h287l-123 -540h-209zM477 924l45 540h287l-121 -540h-211z" />
    <glyph glyph-name="guilsinglleft" unicode="&#x2039;" horiz-adv-x="638" 
d="M344 154l-260 381l260 380h219l-250 -380l250 -381h-219z" />
    <glyph glyph-name="guilsinglright" unicode="&#x203a;" horiz-adv-x="638" 
d="M78 154l248 381l-248 380h219l258 -380l-258 -381h-219z" />
    <glyph glyph-name="fraction" unicode="&#x2044;" horiz-adv-x="303" 
d="M-487 0l1105 1464h173l-1106 -1464h-172z" />
    <glyph glyph-name="Euro" unicode="&#x20ac;" horiz-adv-x="1439" 
d="M53 791v135h137q33 249 194.5 404t410.5 155q246 0 391 -128.5t170 -371.5h-309q-15 120 -81 184t-173 64q-119 0 -189.5 -81t-91.5 -226h381l-25 -135h-362v-127h340l-25 -136h-309q42 -292 283 -292q118 0 183.5 68t84.5 206h305q-30 -255 -177.5 -394t-402.5 -139
t-410.5 150.5t-187.5 400.5h-137v136h129v127h-129z" />
    <glyph glyph-name="trademark" unicode="&#x2122;" horiz-adv-x="1523" 
d="M700 805v659h224l143 -374l145 374h228v-659h-183v426l-172 -426h-57l-170 426v-426h-158zM244 805v516h-181v143h543v-143h-180v-516h-182z" />
    <glyph glyph-name="onethird" unicode="&#x2153;" horiz-adv-x="1597" 
d="M1227 -12q-157 0 -235 68.5t-83 187.5h197q5 -46 31.5 -73.5t76.5 -27.5q49 0 74 22.5t25 63.5q0 84 -103 84h-59v131h57q101 0 101 80q0 33 -21 53.5t-61 20.5q-41 0 -68 -23.5t-33 -66.5h-196q8 111 86 178.5t215 67.5q135 0 212 -55.5t77 -149.5q0 -120 -131 -160
q68 -12 108.5 -56.5t40.5 -111.5q0 -108 -80.5 -170.5t-230.5 -62.5zM217 721v528l-168 -100v182l199 133h194v-743h-225zM109 0l1105 1464h172l-1105 -1464h-172z" />
    <glyph glyph-name="twothirds" unicode="&#x2154;" horiz-adv-x="1687" 
d="M1317 -12q-157 0 -235 68.5t-83 187.5h197q5 -46 32 -73.5t77 -27.5q48 0 73 22.5t25 63.5q0 84 -103 84h-59v131h57q101 0 101 80q0 33 -21 53.5t-61 20.5q-41 0 -67.5 -23.5t-32.5 -66.5h-197q8 111 86 178.5t215 67.5q135 0 212 -55.5t77 -149.5q0 -120 -131 -160
q68 -12 108.5 -56.5t40.5 -111.5q0 -108 -80.5 -170.5t-230.5 -62.5zM18 721v29l263 274q66 68 97.5 115t31.5 90q0 37 -20 58.5t-58 21.5q-82 0 -96 -117h-203q6 136 87.5 209.5t221.5 73.5q138 0 211.5 -64t73.5 -168q0 -71 -37.5 -132.5t-110.5 -131.5l-100 -98h254v-160
h-615zM229 0l1106 1464h172l-1106 -1464h-172z" />
    <glyph glyph-name="oneeighth" unicode="&#x215b;" horiz-adv-x="1583" 
d="M1210 -12q-149 0 -234 57t-85 164q0 65 35 113t102 69q-106 47 -106 154q0 97 83 153t207 56q127 0 208 -55t81 -152q0 -111 -106 -154q66 -21 100.5 -67.5t34.5 -110.5q0 -108 -85.5 -167.5t-234.5 -59.5zM1210 139q44 0 72.5 25.5t28.5 68.5q0 42 -28 67.5t-73 25.5
q-43 0 -71.5 -26t-28.5 -69q0 -42 28.5 -67t71.5 -25zM1212 446q37 0 61.5 23t24.5 59t-25 58t-61 22t-62 -23t-26 -59t26 -58t62 -22zM217 721v528l-168 -100v182l199 133h194v-743h-225zM98 0l1106 1464h172l-1106 -1464h-172z" />
    <glyph glyph-name="threeeighths" unicode="&#x215c;" horiz-adv-x="1658" 
d="M1286 -12q-149 0 -234 57t-85 164q0 65 35 113t102 69q-107 47 -107 154q0 97 83 153t208 56q127 0 208 -55t81 -152q0 -110 -107 -154q67 -21 101.5 -67.5t34.5 -110.5q0 -108 -85.5 -167.5t-234.5 -59.5zM1286 139q44 0 72 25.5t28 68.5q0 42 -27.5 67.5t-72.5 25.5
q-43 0 -71.5 -26t-28.5 -69q0 -42 28.5 -67t71.5 -25zM1288 446q37 0 61.5 23t24.5 59t-25 58t-61 22t-62 -23t-26 -59t26 -58t62 -22zM197 0l1106 1464h172l-1106 -1464h-172zM362 707q-156 0 -234 69t-83 189h197q5 -46 31.5 -73.5t76.5 -27.5q48 0 73.5 22.5t25.5 61.5
q0 84 -103 84h-59v131h57q100 0 100 82q0 33 -21 53.5t-61 20.5q-41 0 -67.5 -24.5t-32.5 -67.5h-196q8 111 86 179.5t215 68.5q135 0 211.5 -55t76.5 -150q0 -123 -131 -160q67 -12 108.5 -57t41.5 -111q0 -108 -81.5 -171.5t-230.5 -63.5z" />
    <glyph glyph-name="fiveeighths" unicode="&#x215d;" horiz-adv-x="1634" 
d="M1264 -12q-149 0 -234.5 57t-85.5 164q0 65 35 113t102 69q-106 47 -106 154q0 97 83 153t208 56q127 0 207.5 -55t80.5 -152q0 -111 -106 -154q66 -21 100.5 -67.5t34.5 -110.5q0 -108 -85 -167.5t-234 -59.5zM1264 139q44 0 72 25.5t28 68.5q0 42 -27.5 67.5
t-72.5 25.5q-43 0 -72 -26t-29 -69q0 -42 29 -67t72 -25zM1266 446q37 0 61.5 23t24.5 59t-25 58t-61 22t-62 -23t-26 -59t26 -58t62 -22zM348 707q-147 0 -222.5 66t-78.5 175h203q7 -38 27.5 -58t66.5 -20q42 0 66 29t24 76q0 46 -25 73t-69 27q-73 0 -104 -53h-160
l16 442h522v-159h-364l-6 -172q61 84 184 84q105 0 167 -63t62 -177q0 -125 -82.5 -197.5t-226.5 -72.5zM172 0l1106 1464h172l-1106 -1464h-172z" />
    <glyph glyph-name="seveneighths" unicode="&#x215e;" horiz-adv-x="1574" 
d="M1202 -12q-149 0 -234 57t-85 164q0 65 35 113t102 69q-107 47 -107 154q0 97 83 153t208 56q127 0 208 -55t81 -152q0 -110 -107 -154q67 -21 101.5 -67.5t34.5 -110.5q0 -108 -85.5 -167.5t-234.5 -59.5zM1202 139q44 0 72.5 25.5t28.5 68.5q0 42 -28 67.5t-73 25.5
q-43 0 -71.5 -26t-28.5 -69q0 -42 28.5 -67t71.5 -25zM1204 446q37 0 61.5 23t24.5 59t-25 58t-61 22t-62 -23t-26 -59t26 -58t62 -22zM139 721l215 567h-311v176h590v-22l-271 -721h-223zM72 0l1106 1464h172l-1106 -1464h-172z" />
    <glyph glyph-name="minus" unicode="&#x2212;" horiz-adv-x="1132" 
d="M76 582v231h981v-231h-981z" />
    <glyph glyph-name="approxequal" unicode="&#x2248;" horiz-adv-x="1124" 
d="M82 281q10 160 83.5 240.5t180.5 80.5q88 0 233.5 -43t190.5 -43q36 0 61 23.5t31 68.5h180q-7 -155 -81 -237t-179 -82q-91 0 -237 42t-189 42q-37 0 -62 -24t-32 -68h-180zM82 700q10 160 83.5 240t180.5 80q88 0 233.5 -42t190.5 -42q36 0 61 23.5t31 66.5h180
q-7 -155 -81 -237t-179 -82q-71 0 -156 21.5t-157 43t-113 21.5q-37 0 -62 -24.5t-32 -68.5h-180z" />
    <glyph glyph-name="notequal" unicode="&#x2260;" horiz-adv-x="1085" 
d="M80 754v213h477l80 202h207l-80 -202h242v-213h-324l-68 -179h392v-210h-474l-77 -203h-207l78 203h-246v210h328l67 179h-395z" />
    <glyph glyph-name="lessequal" unicode="&#x2264;" horiz-adv-x="1042" 
d="M930 274l-836 447v59l836 447v-266l-412 -209l412 -207v-271zM94 0v205h836v-205h-836z" />
    <glyph glyph-name="greaterequal" unicode="&#x2265;" horiz-adv-x="1042" 
d="M115 274v271l409 207l-409 209v266l835 -447v-59zM115 0v205h835v-205h-835z" />
    <glyph glyph-name="uni24C5" unicode="&#x24c5;" horiz-adv-x="1726" 
d="M590 326v821h303q161 0 243.5 -69t82.5 -201v-7q0 -129 -82 -194.5t-234 -65.5h-92v-284h-221zM811 760h74q60 0 92.5 28t32.5 82v7q0 102 -125 102h-74v-219zM862 66q178 0 327.5 83t240 237.5t90.5 348.5q0 192 -88.5 345t-237.5 236t-328 83q-136 0 -257.5 -49.5
t-210 -136t-140 -212t-51.5 -270.5q0 -146 53 -271.5t142.5 -211t209 -134t250.5 -48.5zM862 -33q-158 0 -300.5 59t-246 160.5t-164.5 243.5t-61 301q0 126 38.5 243t110 211t166.5 164.5t214 109t247 38.5q215 0 392.5 -101.5t278.5 -276.5t101 -384q0 -213 -103.5 -390
t-281.5 -277.5t-391 -100.5z" />
    <glyph glyph-name="f_i" unicode="&#xfb01;" horiz-adv-x="1325" 
d="M887 0v1071h295v-1071h-295zM1032 1217q-71 0 -119.5 46t-48.5 115t48.5 115.5t119.5 46.5q72 0 121 -46.5t49 -115.5t-49 -115t-121 -46zM180 0v860h-141v211h141v123q0 185 100 280t281 95q81 0 146 -19v-223q-43 16 -101 16q-66 0 -98.5 -38t-32.5 -103v-131h232v-211
h-232v-860h-295z" />
    <glyph glyph-name="f_l" unicode="&#xfb02;" horiz-adv-x="1323" 
d="M180 0v860h-141v211h141v123q0 185 100 280t281 95q81 0 146 -19v-223q-43 16 -101 16q-66 0 -98.5 -38t-32.5 -103v-131h232v-211h-232v-860h-295zM887 0v1556h295v-1556h-295z" />
    <glyph glyph-name="space_uni0326" horiz-adv-x="819" 
d="M389 -467l-168 55l96 349l267 -43z" />
    <glyph glyph-name="caron.alt" horiz-adv-x="819" 
d="M332 1200l20 356h244l-100 -356h-164z" />
    <glyph glyph-name="space_uni0326.alt" horiz-adv-x="819" 
d="M530 1186l-266 43l195 358l168 -53z" />
    <glyph glyph-name="grave.uc" horiz-adv-x="819" 
d="M317 1563l-202 284h319l107 -284h-224z" />
    <glyph glyph-name="dieresis.uc" horiz-adv-x="819" 
d="M188 1575q-63 0 -107 43.5t-44 105.5t44 105t107 43q62 0 107 -43.5t45 -104.5t-45 -105t-107 -44zM629 1575q-62 0 -106 44t-44 105t44 104.5t106 43.5q63 0 107 -43t44 -105t-44 -105.5t-107 -43.5z" />
    <glyph glyph-name="macron.uc" horiz-adv-x="819" 
d="M100 1591v187h619v-187h-619z" />
    <glyph glyph-name="acute.uc" horiz-adv-x="819" 
d="M279 1563l108 284h322l-207 -284h-223z" />
    <glyph glyph-name="circumflex.uc" horiz-adv-x="819" 
d="M57 1563l230 284h252l221 -284h-213l-139 108l-142 -108h-209z" />
    <glyph glyph-name="caron.uc" horiz-adv-x="819" 
d="M279 1563l-222 284h213l142 -106l139 106h209l-230 -284h-251z" />
    <glyph glyph-name="breve.uc" horiz-adv-x="819" 
d="M408 1550q-136 0 -221 81.5t-93 217.5h199q16 -106 115 -106q101 0 120 106h197q-9 -135 -96 -217t-221 -82z" />
    <glyph glyph-name="dotaccent.uc" horiz-adv-x="819" 
d="M410 1573q-70 0 -118 46t-48 112t48 111.5t118 45.5q69 0 116 -45.5t47 -111.5t-47 -112t-116 -46z" />
    <glyph glyph-name="ring.uc" horiz-adv-x="819" 
d="M410 1655q43 0 71.5 30.5t28.5 77.5t-28.5 79t-71.5 32q-44 0 -72.5 -31.5t-28.5 -79.5q0 -47 28.5 -77.5t72.5 -30.5zM410 1536q-97 0 -166.5 66.5t-69.5 160.5q0 95 69.5 162.5t166.5 67.5t166 -67.5t69 -162.5q0 -94 -69 -160.5t-166 -66.5z" />
    <glyph glyph-name="tilde.uc" horiz-adv-x="819" 
d="M535 1565q-45 0 -91.5 18.5t-84 37.5t-60.5 19q-27 0 -46.5 -21t-25.5 -54h-176q10 137 75 211.5t159 74.5q54 0 131 -38.5t106 -38.5q27 0 45.5 21t24.5 54h178q-12 -136 -77.5 -210t-157.5 -74z" />
    <glyph glyph-name="hungarumlaut.uc" horiz-adv-x="819" 
d="M123 1563l80 284h270l-149 -284h-201zM492 1563l79 284h271l-152 -284h-198z" />
    <glyph glyph-name="idotaccent" horiz-adv-x="575" 
d="M285 1217q-71 0 -119.5 46t-48.5 115t48.5 115.5t119.5 46.5q72 0 121 -46.5t49 -115.5t-49 -115t-121 -46zM139 0v1071h295v-1071h-295z" />
    <glyph glyph-name="registered.alt" horiz-adv-x="1726" 
d="M553 328v821h313q159 0 243.5 -64.5t84.5 -191.5v-4q0 -163 -154 -217l203 -344h-227l-176 301h-68v-301h-219zM772 774h84q123 0 123 105v6q0 51 -30 73.5t-91 22.5h-86v-207zM862 66q178 0 327.5 83t240 237.5t90.5 348.5q0 192 -88.5 345t-237.5 236t-328 83
q-136 0 -257.5 -49.5t-210 -136t-140 -212t-51.5 -270.5q0 -146 53 -271.5t142.5 -211t209 -134t250.5 -48.5zM862 -33q-158 0 -300.5 59t-246 160.5t-164.5 243.5t-61 301q0 126 38.5 243t110 211t166.5 164.5t214 109t247 38.5q215 0 392.5 -101.5t278.5 -276.5t101 -384
q0 -213 -103.5 -390t-281.5 -277.5t-391 -100.5z" />
    <glyph glyph-name="dollar.old" horiz-adv-x="1286" 
d="M567 -268v250q-244 18 -367 140t-137 320h295q12 -98 57 -156.5t152 -74.5v385q-240 38 -350.5 136t-110.5 290q0 170 126 285.5t335 130.5v178h146v-180q419 -39 456 -414h-284q-14 79 -54.5 124t-117.5 60v-352q117 -19 201 -48t149 -77.5t97 -123t32 -175.5
q0 -184 -125.5 -308.5t-353.5 -141.5v-248h-146zM897 397q0 74 -38.5 112t-145.5 62v-362q86 15 135 65.5t49 122.5zM389 1047q0 -71 37 -109.5t141 -60.5v333q-86 -12 -132 -56t-46 -107z" />
    <glyph glyph-name="Euro.old" horiz-adv-x="1396" 
d="M51 766v131h133q33 243 189 393t399 150q238 0 378.5 -125t162.5 -359h-297q-15 115 -79.5 177.5t-168.5 62.5q-117 0 -185 -79t-87 -220h370l-24 -131h-353v-121h330l-22 -133h-301q40 -283 276 -283q223 0 258 265h297q-28 -247 -171 -382t-390 -135q-248 0 -399 146
t-183 389h-133v133h127v121h-127z" />
    <glyph glyph-name="sterling.old" horiz-adv-x="1277" 
d="M78 590v196h112q-28 110 -28 215q0 201 143 320t363 119q237 0 362.5 -118t136.5 -325h-295q-18 102 -62.5 148.5t-133.5 46.5q-87 0 -141 -56.5t-54 -150.5q0 -89 21 -199h379v-196h-342q14 -93 14 -166q0 -60 -23 -121q26 -8 84 -28.5t93 -29.5t63 -9q137 0 145 137
h287q-8 -174 -106.5 -282.5t-268.5 -108.5q-64 0 -132 17.5t-114.5 38.5t-96.5 38.5t-83 17.5q-49 0 -75 -26.5t-31 -67.5h-246q5 68 28.5 128.5t70 110t110.5 72.5q18 59 18 113q0 64 -26 166h-172z" />
    <glyph glyph-name="yen.old" horiz-adv-x="1232" 
d="M141 575v132h287l-393 714h346l258 -530l252 530h309l-375 -714h289v-132h-326v-122h326v-131h-326v-322h-321v322h-326v131h326v122h-326z" />
    <glyph glyph-name="zero.old" horiz-adv-x="1357" 
d="M682 221q139 0 209 98.5t70 288.5v56q0 187 -72 287t-209 100q-138 0 -210.5 -98t-72.5 -287v-58q0 -190 72.5 -288.5t212.5 -98.5zM678 -23q-269 0 -433.5 168.5t-164.5 458.5v58q0 290 166.5 459t433.5 169q130 0 240 -42t189.5 -120t124 -195.5t44.5 -262.5v-58
q0 -293 -164.5 -464t-435.5 -171z" />
    <glyph glyph-name="one.old" horiz-adv-x="856" 
d="M358 0v958l-290 -188v268l329 230h273v-1268h-312z" />
    <glyph glyph-name="two.old" horiz-adv-x="1167" 
d="M31 0v51l483 457q65 62 100.5 99t73.5 85.5t54 92t16 89.5q0 81 -49.5 129t-139.5 48q-192 0 -225 -250h-281q12 226 151 357.5t372 131.5q224 0 354.5 -109t130.5 -286q0 -53 -15.5 -104t-39.5 -93t-66 -92t-81 -88t-99 -94l-205 -191h518v-233h-1052z" />
    <glyph glyph-name="three.old" horiz-adv-x="1249" 
d="M623 -215q-267 0 -410 130t-152 353h285q24 -248 264 -248q124 0 185 59.5t61 164.5q0 211 -246 211h-112v211h104q116 0 171.5 52.5t55.5 147.5q0 88 -51 139.5t-147 51.5q-103 0 -167.5 -60.5t-76.5 -165.5h-281q11 202 151 330.5t382 128.5q228 0 357.5 -109.5
t129.5 -283.5q0 -233 -235 -322q278 -69 278 -348q0 -200 -144.5 -321t-401.5 -121z" />
    <glyph glyph-name="four.old" horiz-adv-x="1331" 
d="M772 -193v289h-731v105l643 1065h397v-955h195v-215h-195v-289h-309zM362 311h416v717z" />
    <glyph glyph-name="five.old" horiz-adv-x="1222" 
d="M596 -215q-252 0 -388 122t-147 322h291q15 -98 69.5 -151t172.5 -53q108 0 171.5 73t63.5 191q0 115 -66.5 184.5t-176.5 69.5q-180 0 -277 -119h-176l19 844h907v-248h-672l-6 -387q109 129 324 129q196 0 317 -126.5t121 -346.5q0 -230 -149.5 -367t-397.5 -137z" />
    <glyph glyph-name="six.old" horiz-adv-x="1302" 
d="M672 -23q-126 0 -225 33.5t-166 93.5t-110.5 146.5t-63 187.5t-19.5 221v66q0 358 169 559t443 201q212 0 339.5 -102.5t152.5 -297.5h-295q-18 78 -65 119t-136 41q-136 0 -211.5 -124t-81.5 -369q51 82 138.5 131t210.5 49q206 0 339.5 -125.5t133.5 -337.5
q0 -223 -150 -357.5t-403 -134.5zM670 209q109 0 176 71t67 185q0 115 -66 186.5t-177 71.5q-110 0 -181 -70t-71 -178q0 -121 70 -193.5t182 -72.5z" />
    <glyph glyph-name="seven.old" horiz-adv-x="1134" 
d="M217 -193l479 1205h-647v254h1053v-35l-555 -1424h-330z" />
    <glyph glyph-name="eight.old" horiz-adv-x="1275" 
d="M637 -23q-118 0 -220 28.5t-178 82t-119.5 136.5t-43.5 186q0 131 76 224.5t206 139.5q-103 42 -163 119.5t-60 187.5q0 125 71.5 218.5t185 139.5t249.5 46q138 0 251 -46.5t182 -139t69 -214.5q0 -110 -60 -187.5t-163 -121.5q129 -45 203.5 -137.5t74.5 -218.5
q0 -138 -74 -239.5t-200 -152.5t-287 -51zM639 211q108 0 177 61.5t69 165.5t-68.5 165t-175.5 61t-178.5 -61t-71.5 -165t71 -165.5t177 -61.5zM643 866q91 0 149 54t58 145q0 86 -60 140.5t-149 54.5q-90 0 -150.5 -53.5t-60.5 -143.5q0 -88 62 -142.5t151 -54.5z" />
    <glyph glyph-name="nine.old" horiz-adv-x="1302" 
d="M608 -215q-225 0 -359 109t-157 305h297q16 -77 72 -125.5t155 -48.5q149 0 213 114t72 379q-118 -182 -348 -182q-207 0 -340 124.5t-133 332.5q0 227 149 362t404 135q126 0 224.5 -34t165 -94t110 -147t62.5 -189.5t19 -225.5v-61q0 -362 -156 -558t-450 -196z
M633 545q111 0 181.5 70.5t70.5 177.5q0 123 -69 194.5t-183 71.5q-109 0 -176.5 -70.5t-67.5 -183.5q0 -117 66 -188.5t178 -71.5z" />
    <glyph glyph-name="dollar.tab" 
d="M547 -276v256q-244 18 -367.5 145t-136.5 332h291q5 -48 16.5 -85t35 -70.5t64 -55.5t97.5 -31v397q-240 39 -351.5 141.5t-111.5 299.5q0 178 126.5 296.5t336.5 133.5v182h143v-184q203 -19 319 -127t136 -301h-283q-14 82 -54.5 130t-117.5 62v-366q118 -19 201 -49
t148 -80t96.5 -126.5t31.5 -181.5q0 -188 -124.5 -316t-352.5 -146v-256h-143zM874 410q0 75 -39 114.5t-145 63.5v-373q87 15 135.5 67t48.5 128zM365 1079q0 -74 38 -114t144 -62v346q-88 -12 -135 -57.5t-47 -112.5z" />
    <glyph glyph-name="Euro.tab" 
d="M27 791v137h108q12 260 154 408.5t373 148.5q214 0 338 -118.5t139 -356.5h-277q-12 120 -59.5 175.5t-140.5 55.5q-217 0 -232 -313h354l-24 -137h-330v-125h307l-24 -136h-283q8 -158 64 -231.5t172 -73.5q97 0 149.5 60.5t65.5 191.5h272q-13 -249 -141.5 -374.5
t-356.5 -125.5q-232 0 -369.5 144t-150.5 409h-108v136h108v125h-108z" />
    <glyph glyph-name="sterling.tab" 
d="M78 616v187h108q-28 119 -28 229q0 209 138.5 331t350.5 122q231 0 351.5 -116.5t129.5 -336.5h-276q-15 105 -60 152t-135 47q-89 0 -141.5 -56t-52.5 -157q0 -90 22 -215h369v-187h-336q17 -97 17 -180q0 -62 -23 -123q24 -8 82.5 -28.5t93 -29.5t62.5 -9
q136 0 147 139h268q-6 -186 -100.5 -294.5t-259.5 -108.5q-63 0 -128 18t-109 39t-92 39t-81 18q-49 0 -75 -27t-29 -69h-240q8 108 57 194.5t138 122.5q18 49 18 121q0 68 -26 178h-160z" />
    <glyph glyph-name="yen.tab" 
d="M143 592v137h297l-377 735h336l240 -518l229 518h297l-362 -735h305v-137h-324v-125h324v-135h-324v-332h-323v332h-318v135h318v125h-318z" />
    <glyph glyph-name="zero.tab" 
d="M621 236q119 0 167 79.5t48 270.5v297q0 181 -52 264.5t-168 83.5q-117 0 -170 -84t-53 -270v-293q0 -186 55 -267t173 -81zM614 -23q-250 0 -392 156.5t-142 448.5v292q0 294 146 452.5t390 158.5q246 0 389.5 -152t143.5 -446v-297q0 -296 -141.5 -454.5t-393.5 -158.5
z" />
    <glyph glyph-name="one.tab" 
d="M563 0v1135l-377 -273v283l408 319h301v-1464h-332z" />
    <glyph glyph-name="two.tab" 
d="M61 0v53l500 565q117 137 171 233t54 191q0 91 -46 141t-130 50q-95 0 -145.5 -62.5t-63.5 -207.5h-303q12 246 142.5 384t380.5 138q237 0 365 -115.5t128 -312.5q0 -135 -75 -262t-218 -277l-260 -260h555v-258h-1055z" />
    <glyph glyph-name="three.tab" 
d="M610 -23q-262 0 -402 128.5t-149 359.5h293q20 -242 246 -242q116 0 171.5 55t55.5 154q0 106 -54.5 158.5t-168.5 52.5h-115v221h111q106 0 159.5 50t53.5 143q0 82 -47.5 131t-142.5 49q-99 0 -160 -57.5t-70 -161.5h-287q11 211 150 339t373 128q226 0 355.5 -110.5
t129.5 -287.5q0 -119 -62.5 -199t-172.5 -118q126 -28 199 -117.5t73 -224.5q0 -208 -143.5 -329.5t-395.5 -121.5z" />
    <glyph glyph-name="four.tab" 
d="M709 0v291h-654v110l570 1063h383v-946h155v-227h-155v-291h-299zM350 518h363v690z" />
    <glyph glyph-name="five.tab" 
d="M596 -23q-252 0 -379.5 120t-138.5 343h291q13 -104 62 -154t163 -50q106 0 162.5 69.5t56.5 192.5q0 116 -62 183t-169 67q-171 0 -265 -119h-178l19 835h891v-252h-652l-6 -372q108 137 309 137q199 0 316 -128.5t117 -350.5q0 -241 -145 -381t-392 -140z" />
    <glyph glyph-name="six.tab" 
d="M637 -23q-147 0 -256 48.5t-174.5 138.5t-97 208.5t-31.5 268.5v98q0 356 162.5 551t431.5 195q207 0 328.5 -101t138.5 -305h-285q-16 81 -59 122.5t-127 41.5q-133 0 -207.5 -118.5t-77.5 -352.5q48 81 131 129.5t199 48.5q198 0 323 -125t125 -342q0 -229 -141 -367.5
t-383 -138.5zM633 223q103 0 168 70t65 182q0 116 -64.5 185t-170.5 69q-107 0 -175.5 -67t-68.5 -173q0 -125 68 -195.5t178 -70.5z" />
    <glyph glyph-name="seven.tab" 
d="M268 0l465 1200h-631v264h1043v-37l-543 -1427h-334z" />
    <glyph glyph-name="eight.tab" 
d="M614 -23q-153 0 -273 48.5t-192.5 149t-72.5 239.5q0 131 67.5 225t188.5 141q-96 42 -148.5 119t-52.5 184q0 123 68.5 216t178 139.5t240.5 46.5q133 0 242 -46.5t175.5 -139t66.5 -214.5q0 -209 -203 -303q123 -44 189.5 -137t66.5 -223q0 -140 -71.5 -242
t-192.5 -152.5t-277 -50.5zM616 225q103 0 168.5 59t65.5 162t-65 162.5t-167 59.5t-169.5 -59.5t-67.5 -164.5q0 -102 67 -160.5t168 -58.5zM621 872q87 0 142.5 51.5t55.5 139.5q0 83 -57.5 134.5t-143.5 51.5t-143 -51t-57 -135q0 -87 58.5 -139t144.5 -52z" />
    <glyph glyph-name="nine.tab" 
d="M578 -20q-225 0 -352.5 105t-147.5 310h287q16 -84 64.5 -129t143.5 -45q139 0 206.5 114.5t70.5 354.5q-49 -80 -133 -128t-201 -48q-197 0 -322.5 123.5t-125.5 341.5q0 230 141 369t383 139q276 0 417.5 -170.5t141.5 -489.5v-127q0 -346 -150 -533t-423 -187z
M598 737q107 0 175.5 65.5t68.5 172.5q0 124 -68.5 196t-177.5 72q-103 0 -168.5 -69.5t-65.5 -182.5q0 -116 65 -185t171 -69z" />
    <glyph glyph-name="cent.tab" 
d="M573 -276v258q-221 21 -356 162.5t-135 377.5v17q0 155 65 276t175 190.5t251 86.5v196h146v-196q87 -8 160.5 -36t133 -76.5t97 -125t45.5 -174.5h-274q-10 77 -52.5 123.5t-109.5 62.5v-671q76 18 124.5 72t55.5 141h262q-11 -178 -129 -292.5t-313 -133.5v-258h-146z
M377 526q0 -136 51 -219t145 -108v665q-91 -25 -143.5 -108.5t-52.5 -212.5v-17z" />
    <glyph glyph-name="percent.tab" horiz-adv-x="1638" 
d="M430 961q63 0 99 46t36 128q0 79 -36 125.5t-99 46.5t-99 -45.5t-36 -126.5q0 -84 35.5 -129t99.5 -45zM428 784q-154 0 -254 99.5t-100 249.5q0 148 103 247t253 99t252 -97t102 -245q0 -153 -100.5 -253t-255.5 -100zM252 0l954 1464h185l-955 -1464h-184zM1210 156
q63 0 98 45t35 127q0 80 -35 126t-98 46q-64 0 -100.5 -45.5t-36.5 -126.5q0 -83 36.5 -127.5t100.5 -44.5zM1208 -23q-154 0 -254 99.5t-100 249.5q0 148 103 248t253 100q151 0 253 -97t102 -245q0 -153 -101 -254t-256 -101z" />
    <glyph glyph-name="perthousand.tab" horiz-adv-x="2048" 
d="M365 967q96 0 96 174t-96 174q-99 0 -99 -174t99 -174zM362 799q-132 0 -216.5 92.5t-84.5 247.5q0 154 87 247t217 93t215.5 -90t85.5 -244q0 -158 -85 -252t-219 -94zM129 0l954 1464h181l-955 -1464h-180zM1020 145q49 0 72.5 43t23.5 134q0 174 -96 174t-96 -174
q0 -177 96 -177zM1020 -23q-133 0 -217 93.5t-84 248.5q0 154 86.5 247t214.5 93q130 0 215.5 -90t85.5 -245q0 -158 -84.5 -252.5t-216.5 -94.5zM1686 145q96 0 96 177q0 174 -96 174q-99 0 -99 -174q0 -177 99 -177zM1683 -23q-133 0 -217 93.5t-84 248.5q0 154 87 247
t217 93q129 0 215 -90t86 -245q0 -157 -85.5 -252t-218.5 -95z" />
    <glyph glyph-name="plus.tab" 
d="M494 195v391h-359v223h359v391h241v-391h361v-223h-361v-391h-241z" />
    <glyph glyph-name="minus.tab" 
d="M133 582v231h965v-231h-965z" />
    <glyph glyph-name="multiply.tab" 
d="M301 215l-158 158l314 313l-316 315l158 160l315 -317l314 313l159 -158l-315 -313l318 -315l-160 -160l-316 317z" />
    <glyph glyph-name="divide.tab" 
d="M614 123q-71 0 -120.5 49t-49.5 119q0 69 50 118.5t120 49.5t120 -49.5t50 -118.5q0 -70 -49.5 -119t-120.5 -49zM125 592v213h981v-213h-981zM614 938q-71 0 -120.5 49t-49.5 119t49.5 119t120.5 49t120.5 -49t49.5 -119t-49.5 -119t-120.5 -49z" />
    <glyph glyph-name="equal.tab" 
d="M160 365v210h909v-210h-909zM160 754v213h909v-213h-909z" />
    <glyph glyph-name="less.tab" 
d="M1040 147l-862 484v59l862 481v-270l-462 -239l462 -248v-267z" />
    <glyph glyph-name="greater.tab" 
d="M190 150v270l461 239l-461 248v267l861 -484v-59z" />
    <glyph glyph-name="florin.tab" 
d="M195 639v209h223l41 274q50 361 411 361q86 0 154 -23v-225q-52 18 -117 18q-134 0 -157 -153l-37 -252h266v-209h-297l-147 -1012h-295l147 1012h-192z" />
    <glyph glyph-name="plusminus.tab" 
d="M494 338v350h-369v221h369v353h241v-353h369v-221h-369v-350h-241zM125 0v205h983v-205h-983z" />
    <glyph glyph-name="notequal.tab" 
d="M152 754v213h477l80 202h206l-79 -202h241v-213h-323l-68 -179h391v-210h-473l-78 -203h-207l78 203h-245v210h327l68 179h-395z" />
    <glyph glyph-name="approxequal.tab" 
d="M137 281q10 160 84 240.5t180 80.5q88 0 230.5 -43t187.5 -43q36 0 61 23.5t31 68.5h181q-7 -154 -82 -236.5t-179 -82.5q-71 0 -154 21t-153.5 42t-111.5 21q-37 0 -62.5 -24t-32.5 -68h-180zM137 700q10 160 84 240t180 80q88 0 230.5 -42t187.5 -42q36 0 61 23.5
t31 66.5h181q-7 -154 -82 -236.5t-179 -82.5q-71 0 -154 21.5t-153.5 43t-111.5 21.5q-37 0 -62.5 -24.5t-32.5 -68.5h-180z" />
    <glyph glyph-name="lessequal.tab" 
d="M1022 274l-836 447v59l836 447v-266l-410 -209l410 -207v-271zM186 0v205h836v-205h-836z" />
    <glyph glyph-name="greaterequal.tab" 
d="M207 274v271l409 207l-409 209v266l835 -447v-59zM207 0v205h835v-205h-835z" />
    <glyph glyph-name="parenleft.tab" horiz-adv-x="614" 
d="M373 -303q-291 427 -291 944t291 944h225q-244 -427 -244 -944q0 -514 244 -944h-225z" />
    <glyph glyph-name="parenright.tab" horiz-adv-x="614" 
d="M16 -303q244 430 244 944q0 517 -244 944h226q290 -425 290 -944t-290 -944h-226z" />
    <glyph glyph-name="bracketleft.tab" horiz-adv-x="614" 
d="M111 -303v1892h456v-203h-184v-1486h184v-203h-456z" />
    <glyph glyph-name="bracketright.tab" horiz-adv-x="614" 
d="M47 -303v203h184v1486h-184v203h457v-1892h-457z" />
    <glyph glyph-name="braceleft.tab" horiz-adv-x="614" 
d="M567 -301q-259 0 -359.5 110t-53.5 351l39 190q16 85 -17 134t-137 67v192q103 16 136.5 65t17.5 132l-39 193q-49 244 52 352t361 108v-200q-107 -3 -141.5 -53.5t-13.5 -180.5l37 -213q21 -114 -29 -184.5t-174 -114.5q124 -42 174 -112t29 -185l-37 -213
q-21 -132 13.5 -183t141.5 -56v-199z" />
    <glyph glyph-name="braceright.tab" horiz-adv-x="614" 
d="M47 -301v199q107 5 142 56t14 183l-37 213q-21 115 29 185t174 112q-124 44 -174 114.5t-29 184.5l37 213q21 130 -14 180.5t-142 53.5v200q261 0 362 -108t52 -352l-39 -193q-16 -84 17 -132.5t136 -64.5v-192q-103 -18 -136 -67t-17 -134l39 -190q47 -241 -54 -351
t-360 -110z" />
    <glyph glyph-name="period.tab" horiz-adv-x="614" 
d="M305 -18q-76 0 -128 52.5t-52 127.5q0 74 52 126t128 52q78 0 131 -52t53 -126q0 -75 -53 -127.5t-131 -52.5z" />
    <glyph glyph-name="comma.tab" horiz-adv-x="614" 
d="M225 -252l-178 76l180 506l277 -105z" />
    <glyph glyph-name="colon.tab" horiz-adv-x="614" 
d="M305 -18q-76 0 -128 52.5t-52 127.5q0 74 52 126t128 52q78 0 131 -52t53 -126q0 -75 -53 -127.5t-131 -52.5zM305 575q-76 0 -128 53t-52 128q0 74 52 126t128 52q78 0 131 -52t53 -126q0 -75 -53 -128t-131 -53z" />
    <glyph glyph-name="semicolon.tab" horiz-adv-x="614" 
d="M188 -252l-178 76l180 506l277 -105zM315 575q-76 0 -128 53t-52 128q0 74 52 126t128 52q78 0 131.5 -52t53.5 -126q0 -75 -53.5 -128t-131.5 -53z" />
    <glyph glyph-name="space.tab" horiz-adv-x="614" 
 />
    <glyph glyph-name="dollar.oldtab" 
d="M549 -268v250q-240 18 -361.5 140t-132.5 320h287q12 -98 57 -156.5t150 -74.5v385q-236 38 -345.5 136t-109.5 290q0 171 124.5 286t330.5 130v178h141v-180q412 -39 449 -414h-279q-14 79 -54 124t-116 60v-352q116 -19 198 -48t145.5 -77.5t94.5 -123t31 -175.5
q0 -183 -123.5 -308t-345.5 -142v-248h-141zM872 397q0 74 -38.5 112t-143.5 62v-362q85 15 133.5 65.5t48.5 122.5zM373 1047q0 -71 36.5 -109.5t139.5 -60.5v333q-84 -10 -130 -54t-46 -109z" />
    <glyph glyph-name="Euro.oldtab" 
d="M57 768v131h105q12 253 149.5 397t360.5 144q209 0 329.5 -115t135.5 -346h-269q-12 115 -58 169t-136 54q-107 0 -162 -74.5t-63 -228.5h344l-23 -131h-321v-121h296l-22 -133h-274q8 -153 61.5 -224t165.5 -71q96 0 147 58.5t64 185.5h264q-13 -241 -138 -363.5
t-345 -122.5q-225 0 -359 140t-147 397h-105v133h105v121h-105z" />
    <glyph glyph-name="sterling.oldtab" 
d="M76 590v198h102q-26 102 -26 211q0 136 68.5 238t179.5 152.5t247 50.5q225 0 346.5 -114.5t130.5 -326.5h-290q-14 104 -52.5 148.5t-124.5 44.5q-87 0 -135.5 -53.5t-48.5 -153.5q0 -96 16 -197h351v-198h-316q13 -86 13 -166q0 -56 -21 -121q29 -9 78 -27.5t82.5 -28
t60.5 -9.5q133 0 144 135h278q-8 -178 -106 -284.5t-260 -106.5q-77 0 -154 28t-137.5 56t-98.5 28q-92 0 -104 -94h-250q6 95 57 178t136 121q20 58 20 125q0 60 -26 166h-160z" />
    <glyph glyph-name="yen.oldtab" 
d="M158 592v133h288l-368 696h328l233 -499l225 499h287l-352 -696h297v-133h-316v-121h316v-133h-316v-338h-313v338h-309v133h309v121h-309z" />
    <glyph glyph-name="zero.oldtab" 
d="M618 229q222 0 222 318v180q0 317 -224 317q-227 0 -227 -315v-184q0 -316 229 -316zM612 -23q-245 0 -386.5 154t-141.5 414v182q0 257 146.5 410t383.5 153q239 0 385 -149t146 -408v-182q0 -262 -143.5 -418t-389.5 -156z" />
    <glyph glyph-name="one.oldtab" 
d="M580 0v958l-381 -260v271l417 299h275v-1268h-311z" />
    <glyph glyph-name="two.oldtab" 
d="M72 0v51l483 457q119 114 174 195.5t55 168.5q0 83 -47 131t-135 48q-184 0 -217 -250h-281q15 227 150.5 358t363.5 131q223 0 351.5 -109t128.5 -286q0 -65 -20 -125t-64.5 -120t-90.5 -108.5t-120 -117.5l-207 -191h514v-233h-1038z" />
    <glyph glyph-name="three.oldtab" 
d="M604 -215q-259 0 -397 130.5t-146 352.5h285q20 -248 254 -248q118 0 177 58.5t59 163.5q0 213 -234 213h-108v211h102q109 0 163 53.5t54 148.5q0 86 -50 137.5t-145 51.5q-101 0 -161.5 -59t-71.5 -167h-279q9 200 149.5 329.5t371.5 129.5q224 0 349.5 -108.5
t125.5 -284.5q0 -121 -60 -201t-168 -118q127 -30 200 -118t73 -224q0 -207 -145.5 -329t-397.5 -122z" />
    <glyph glyph-name="four.oldtab" 
d="M700 -193v289h-651v103l565 1067h383v-957h168v-213h-168v-289h-297zM334 309h373v709z" />
    <glyph glyph-name="five.oldtab" 
d="M604 -215q-246 0 -374.5 118t-137.5 326h281q13 -102 64.5 -154t164.5 -52q106 0 164.5 71.5t58.5 194.5q0 118 -62 186t-169 68q-172 0 -264 -119h-170l16 844h871v-246h-639l-7 -389q105 133 308 133q191 0 305 -126t114 -341q0 -236 -142 -375t-382 -139z" />
    <glyph glyph-name="six.oldtab" 
d="M641 -23q-274 0 -409.5 173.5t-135.5 474.5v133q0 345 155.5 536t418.5 191q201 0 323 -100.5t140 -299.5h-279q-29 164 -190 164q-264 0 -273 -495q113 178 328 178q196 0 316 -120.5t120 -334.5q0 -226 -139.5 -363t-374.5 -137zM641 211q101 0 166 69.5t65 182.5
q0 119 -64.5 189.5t-168.5 70.5q-103 0 -171.5 -68t-68.5 -178q0 -124 68 -195t174 -71z" />
    <glyph glyph-name="seven.oldtab" 
d="M246 -193l481 1205h-627v254h1037v-35l-559 -1424h-332z" />
    <glyph glyph-name="eight.oldtab" 
d="M616 -23q-111 0 -207 28.5t-167.5 82t-112.5 136.5t-41 186q0 132 70.5 225t193.5 139q-209 85 -209 307q0 125 66.5 218.5t173 139.5t235.5 46q130 0 236.5 -46.5t171 -139t64.5 -214.5q0 -218 -209 -309q125 -45 193.5 -136.5t68.5 -219.5q0 -138 -70 -239.5
t-188 -152.5t-269 -51zM616 211q102 0 166 61t64 166q0 104 -63.5 165t-164.5 61q-100 0 -166.5 -61t-66.5 -167q0 -103 65.5 -164t165.5 -61zM621 866q86 0 139 54t53 147q0 86 -56 140.5t-139 54.5q-84 0 -140 -54t-56 -143t58 -144t141 -55z" />
    <glyph glyph-name="nine.oldtab" 
d="M575 -217q-218 0 -343 107.5t-142 308.5h275q32 -179 215 -179q135 0 195 116.5t63 369.5q-100 -170 -320 -170q-195 0 -318.5 120.5t-123.5 334.5q0 224 142 361.5t376 137.5q272 0 406.5 -170.5t134.5 -470.5v-143q0 -350 -142.5 -536.5t-417.5 -186.5zM596 547
q103 0 170.5 68.5t67.5 177.5q0 125 -67 196.5t-173 71.5q-101 0 -167.5 -70.5t-66.5 -183.5q0 -118 66 -189t170 -71z" />
    <glyph glyph-name="zero.num" horiz-adv-x="811" 
d="M406 879q129 0 129 204v21q0 203 -132 203q-66 0 -96.5 -50t-30.5 -155v-19q0 -204 130 -204zM401 707q-165 0 -256.5 99t-91.5 275v21q0 174 97.5 273.5t255.5 99.5t255 -95.5t97 -273.5v-19q0 -177 -95.5 -278.5t-261.5 -101.5z" />
    <glyph glyph-name="one.num" horiz-adv-x="544" 
d="M211 721v528l-168 -100v182l199 133h194v-743h-225z" />
    <glyph glyph-name="two.num" horiz-adv-x="673" 
d="M12 721v29l262 274q66 68 97.5 115t31.5 90q0 37 -19.5 58.5t-57.5 21.5q-83 0 -97 -117h-202q6 136 87.5 209.5t221.5 73.5q138 0 211.5 -64t73.5 -168q0 -71 -37.5 -132.5t-110.5 -131.5l-100 -98h254v-160h-615z" />
    <glyph glyph-name="three.num" horiz-adv-x="718" 
d="M356 707q-156 0 -234 69t-83 189h197q5 -46 31.5 -73.5t76.5 -27.5q48 0 73 22.5t25 61.5q0 84 -102 84h-59v131h57q100 0 100 82q0 33 -21 53.5t-61 20.5q-41 0 -67.5 -24.5t-32.5 -67.5h-197q8 111 86 179.5t215 68.5q135 0 212 -55.5t77 -149.5q0 -123 -131 -160
q67 -12 108.5 -57t41.5 -111q0 -108 -81.5 -171.5t-230.5 -63.5z" />
    <glyph glyph-name="four.num" horiz-adv-x="749" 
d="M399 721v141h-370v82l317 520h268v-452h97v-150h-97v-141h-215zM231 1012h175v301z" />
    <glyph glyph-name="five.num" horiz-adv-x="702" 
d="M342 707q-147 0 -222.5 66t-78.5 175h203q7 -38 27.5 -58t66.5 -20q42 0 66 29t24 76q0 46 -25 73t-69 27q-74 0 -105 -53h-159l16 442h522v-159h-364l-6 -172q61 84 184 84q105 0 167 -63t62 -177q0 -125 -82.5 -197.5t-226.5 -72.5z" />
    <glyph glyph-name="six.num" horiz-adv-x="747" 
d="M389 707q-174 0 -255 97.5t-81 268.5v21q0 177 96.5 279t251.5 102q127 0 200.5 -57.5t84.5 -164.5h-203q-14 62 -80 62q-61 0 -93.5 -52t-35.5 -147q59 86 179 86q109 0 179 -60t70 -173q0 -119 -83.5 -190.5t-229.5 -71.5zM387 858q44 0 72 30.5t28 76.5q0 48 -27.5 77
t-72.5 29t-72.5 -29t-27.5 -73q0 -51 27.5 -81t72.5 -30z" />
    <glyph glyph-name="seven.num" horiz-adv-x="647" 
d="M133 721l215 567h-311v176h590v-22l-271 -721h-223z" />
    <glyph glyph-name="eight.num" horiz-adv-x="729" 
d="M365 707q-148 0 -234 57.5t-86 163.5q0 66 35.5 114.5t101.5 69.5q-106 43 -106 154q0 97 83 153t208 56q127 0 207.5 -55.5t80.5 -153.5q0 -109 -106 -152q66 -23 100.5 -69t34.5 -109q0 -108 -85 -168.5t-234 -60.5zM365 860q44 0 72 25.5t28 68.5q0 41 -28 67t-72 26
q-43 0 -72 -26t-29 -69t29 -67.5t72 -24.5zM367 1167q37 0 61.5 22t24.5 58t-25 58t-61 22t-62 -22t-26 -58t26 -58t62 -22z" />
    <glyph glyph-name="nine.num" horiz-adv-x="747" 
d="M354 707q-131 0 -208.5 59.5t-88.5 165.5h205q14 -64 90 -64q120 0 123 193q-30 -40 -68 -61t-102 -21q-115 0 -186.5 59t-71.5 174q0 119 83.5 191t227.5 72q168 0 254 -98t86 -265v-27q0 -181 -89 -279.5t-255 -98.5zM358 1112q45 0 74 28.5t29 71.5q0 51 -28 82
t-75 31q-44 0 -71 -30t-27 -78q0 -47 26.5 -76t71.5 -29z" />
    <glyph glyph-name="zero.den" horiz-adv-x="811" 
d="M406 160q129 0 129 205v18q0 203 -132 203q-66 0 -96.5 -50t-30.5 -153v-21q0 -202 130 -202zM401 -12q-165 0 -256.5 98.5t-91.5 273.5v21q0 174 97.5 273.5t255.5 99.5t255 -95.5t97 -271.5v-20q0 -175 -96 -277t-261 -102z" />
    <glyph glyph-name="one.den" horiz-adv-x="546" 
d="M211 0v528l-168 -100v184l199 131h194v-743h-225z" />
    <glyph glyph-name="two.den" horiz-adv-x="673" 
d="M12 0v31l262 274q66 66 97.5 113.5t31.5 91.5q0 37 -19.5 58.5t-57.5 21.5q-82 0 -97 -119h-202q6 136 87.5 209.5t221.5 73.5q138 0 211.5 -64t73.5 -168q0 -70 -37.5 -132t-110.5 -132l-100 -96h254v-162h-615z" />
    <glyph glyph-name="three.den" horiz-adv-x="718" 
d="M356 -12q-157 0 -234.5 68t-82.5 188h197q5 -46 31.5 -73.5t76.5 -27.5q48 0 73 22.5t25 63.5q0 84 -102 84h-59v131h57q100 0 100 80q0 33 -21 53.5t-61 20.5q-41 0 -67.5 -23.5t-32.5 -66.5h-197q8 111 86 178.5t215 67.5q135 0 212 -55.5t77 -149.5q0 -120 -131 -160
q68 -12 109 -56.5t41 -111.5q0 -108 -81 -170.5t-231 -62.5z" />
    <glyph glyph-name="four.den" horiz-adv-x="751" 
d="M399 0v141h-370v82l317 520h268v-450h97v-152h-97v-141h-215zM231 293h175v299z" />
    <glyph glyph-name="five.den" horiz-adv-x="704" 
d="M342 -12q-148 0 -223 65.5t-78 175.5h203q7 -39 27 -58t67 -19q42 0 66 28t24 76q0 46 -25 73t-69 27q-74 0 -105 -53h-159l16 440h522v-159h-364l-6 -172q61 84 184 84q105 0 167 -62.5t62 -175.5q0 -126 -82 -198t-227 -72z" />
    <glyph glyph-name="six.den" horiz-adv-x="749" 
d="M389 -12q-174 0 -255 97t-81 267v21q0 178 96 279.5t252 101.5q128 0 201.5 -57t83.5 -165h-203q-14 62 -80 62q-61 0 -93.5 -51.5t-35.5 -145.5q61 86 179 86q109 0 179 -60t70 -173q0 -120 -83.5 -191t-229.5 -71zM387 139q44 0 72 30t28 77q0 46 -27.5 76t-72.5 30
t-72.5 -29.5t-27.5 -74.5q0 -50 27.5 -79.5t72.5 -29.5z" />
    <glyph glyph-name="seven.den" horiz-adv-x="647" 
d="M133 0l215 567h-311v176h590v-22l-271 -721h-223z" />
    <glyph glyph-name="eight.den" horiz-adv-x="729" 
d="M365 -12q-149 0 -234.5 57t-85.5 164q0 65 35 113t102 69q-106 47 -106 154q0 97 83 153t208 56q127 0 207.5 -55t80.5 -152q0 -111 -106 -154q66 -21 100.5 -67.5t34.5 -110.5q0 -108 -85 -167.5t-234 -59.5zM365 139q44 0 72 25.5t28 68.5q0 42 -27.5 67.5t-72.5 25.5
q-43 0 -72 -26t-29 -69q0 -42 29 -67t72 -25zM367 446q37 0 61.5 23t24.5 59t-25 58t-61 22t-62 -23t-26 -59t26 -58t62 -22z" />
    <glyph glyph-name="nine.den" horiz-adv-x="749" 
d="M354 -12q-132 0 -209 59t-88 166h205q14 -66 90 -66q120 0 123 195q-30 -41 -68.5 -62.5t-101.5 -21.5q-114 0 -186 60.5t-72 175.5q0 119 83.5 190.5t227.5 71.5q168 0 254 -98t86 -267v-24q0 -182 -88.5 -280.5t-255.5 -98.5zM358 391q45 0 74 29t29 72q0 51 -28 81.5
t-75 30.5q-44 0 -71 -29.5t-27 -78.5q0 -45 26.5 -75t71.5 -30z" />
    <glyph glyph-name="zero.sub" horiz-adv-x="811" 
d="M406 -61q129 0 129 204v21q0 203 -132 203q-66 0 -96.5 -50t-30.5 -155v-19q0 -204 130 -204zM401 -233q-165 0 -256.5 99t-91.5 275v21q0 174 97.5 273.5t255.5 99.5t255 -95.5t97 -273.5v-19q0 -177 -95.5 -278.5t-261.5 -101.5z" />
    <glyph glyph-name="one.sub" horiz-adv-x="546" 
d="M211 -221v528l-168 -100v184l199 131h194v-743h-225z" />
    <glyph glyph-name="two.sub" horiz-adv-x="673" 
d="M12 -219v29l262 274q66 68 97.5 115t31.5 90q0 37 -19.5 58.5t-57.5 21.5q-83 0 -97 -117h-202q6 136 87.5 209.5t221.5 73.5q138 0 211.5 -64t73.5 -168q0 -71 -37.5 -132.5t-110.5 -131.5l-100 -98h254v-160h-615z" />
    <glyph glyph-name="three.sub" horiz-adv-x="718" 
d="M356 -233q-156 0 -234 69t-83 189h197q5 -46 31.5 -73.5t76.5 -27.5q48 0 73 22.5t25 61.5q0 84 -102 84h-59v131h57q100 0 100 82q0 33 -21 53.5t-61 20.5q-41 0 -67.5 -24.5t-32.5 -67.5h-197q8 111 86 179.5t215 68.5q135 0 212 -55.5t77 -149.5q0 -123 -131 -160
q67 -12 108.5 -57t41.5 -111q0 -108 -81.5 -171.5t-230.5 -63.5z" />
    <glyph glyph-name="four.sub" horiz-adv-x="751" 
d="M399 -219v141h-370v82l317 520h268v-452h97v-150h-97v-141h-215zM231 72h175v301z" />
    <glyph glyph-name="five.sub" horiz-adv-x="704" 
d="M342 -233q-147 0 -222.5 66t-78.5 175h203q7 -38 27.5 -58t66.5 -20q42 0 66 29t24 76q0 46 -25 73t-69 27q-74 0 -105 -53h-159l16 442h522v-159h-364l-6 -172q60 83 184 83q105 0 167 -62.5t62 -176.5q0 -125 -82.5 -197.5t-226.5 -72.5z" />
    <glyph glyph-name="six.sub" horiz-adv-x="749" 
d="M389 -233q-174 0 -255 97.5t-81 268.5v21q0 177 96.5 279t251.5 102q127 0 200.5 -57.5t84.5 -164.5h-203q-14 62 -80 62q-61 0 -93.5 -52t-35.5 -147q59 86 179 86q109 0 179 -60t70 -173q0 -119 -83.5 -190.5t-229.5 -71.5zM387 -82q44 0 72 30.5t28 76.5
q0 48 -27.5 77t-72.5 29t-72.5 -29t-27.5 -73q0 -51 27.5 -81t72.5 -30z" />
    <glyph glyph-name="seven.sub" horiz-adv-x="647" 
d="M133 -219l215 567h-311v176h590v-22l-271 -721h-223z" />
    <glyph glyph-name="eight.sub" horiz-adv-x="729" 
d="M365 -233q-148 0 -234 57.5t-86 163.5q0 66 35.5 114.5t101.5 69.5q-106 43 -106 154q0 97 83 153t208 56q127 0 207.5 -55.5t80.5 -153.5q0 -109 -106 -152q66 -23 100.5 -69t34.5 -109q0 -108 -85 -168.5t-234 -60.5zM365 -80q44 0 72 25.5t28 68.5q0 41 -28 66.5
t-72 25.5q-43 0 -72 -25.5t-29 -68.5t29 -67.5t72 -24.5zM367 227q37 0 61.5 22t24.5 58t-25 58t-61 22t-62 -22t-26 -58t26 -58t62 -22z" />
    <glyph glyph-name="nine.sub" horiz-adv-x="749" 
d="M354 -233q-131 0 -208.5 59.5t-88.5 165.5h205q14 -64 90 -64q120 0 123 193q-30 -40 -68 -61t-102 -21q-115 0 -186.5 59t-71.5 174q0 119 83.5 191t227.5 72q168 0 254 -98t86 -265v-27q0 -181 -89 -279.5t-255 -98.5zM358 172q45 0 74 28.5t29 71.5q0 51 -28 82
t-75 31q-44 0 -71 -30.5t-27 -78.5q0 -46 26.5 -75t71.5 -29z" />
    <glyph glyph-name="plus.sub" horiz-adv-x="718" 
d="M276 -129v207h-200v160h200v208h164v-208h203v-160h-203v-207h-164z" />
    <glyph glyph-name="minus.sub" horiz-adv-x="718" 
d="M76 78v160h567v-160h-567z" />
    <glyph glyph-name="zero.sup" horiz-adv-x="811" 
d="M406 997q129 0 129 205v21q0 103 -32.5 152.5t-99.5 49.5q-66 0 -96.5 -49.5t-30.5 -154.5v-19q0 -205 130 -205zM401 825q-165 0 -256.5 99.5t-91.5 275.5v21q0 174 97.5 273t255.5 99t255 -95.5t97 -272.5v-19q0 -177 -95.5 -279t-261.5 -102z" />
    <glyph glyph-name="one.sup" horiz-adv-x="546" 
d="M211 840v528l-168 -100v182l199 133h194v-743h-225z" />
    <glyph glyph-name="two.sup" horiz-adv-x="673" 
d="M12 840v28l262 275q66 68 97.5 115t31.5 90q0 37 -19.5 58t-57.5 21q-83 0 -97 -116h-202q6 136 87.5 209t221.5 73q138 0 211.5 -63.5t73.5 -167.5q0 -71 -37.5 -132.5t-110.5 -131.5l-100 -99h254v-159h-615z" />
    <glyph glyph-name="three.sup" horiz-adv-x="718" 
d="M356 825q-156 0 -234 69t-83 189h197q11 -100 108 -100q48 0 73 22.5t25 61.5q0 84 -102 84h-59v131h57q100 0 100 82q0 33 -21 53.5t-61 20.5q-41 0 -67.5 -24.5t-32.5 -67.5h-197q8 111 86 179t215 68q136 0 212.5 -55t76.5 -149q0 -123 -131 -160q67 -12 108.5 -57
t41.5 -111q0 -108 -81.5 -172t-230.5 -64z" />
    <glyph glyph-name="four.sup" horiz-adv-x="751" 
d="M399 840v141h-370v82l317 520h268v-453h97v-149h-97v-141h-215zM231 1130h175v302z" />
    <glyph glyph-name="five.sup" horiz-adv-x="704" 
d="M342 825q-147 0 -222.5 66.5t-78.5 175.5h203q7 -38 27.5 -58t66.5 -20q42 0 66 29t24 76q0 46 -25 73t-69 27q-74 0 -105 -53h-159l16 442h522v-160h-364l-6 -172q61 84 184 84q105 0 167 -62.5t62 -176.5q0 -125 -82.5 -198t-226.5 -73z" />
    <glyph glyph-name="six.sup" horiz-adv-x="749" 
d="M389 825q-174 0 -255 98t-81 269v20q0 177 96.5 279t251.5 102q128 0 201.5 -57t83.5 -164h-203q-14 62 -80 62q-61 0 -93.5 -52t-35.5 -147q59 86 179 86q109 0 179 -60.5t70 -173.5q0 -119 -83.5 -190.5t-229.5 -71.5zM387 977q44 0 72 30t28 76q0 48 -27.5 77.5
t-72.5 29.5t-72.5 -29.5t-27.5 -73.5q0 -50 27.5 -80t72.5 -30z" />
    <glyph glyph-name="seven.sup" horiz-adv-x="647" 
d="M133 840l215 567h-311v176h590v-22l-271 -721h-223z" />
    <glyph glyph-name="eight.sup" horiz-adv-x="729" 
d="M365 825q-148 0 -234 58t-86 164q0 66 35.5 114.5t101.5 69.5q-106 43 -106 153q0 97 83 153t208 56q127 0 207.5 -55.5t80.5 -153.5q0 -108 -106 -151q135 -47 135 -178q0 -108 -85 -169t-234 -61zM365 979q44 0 72 25.5t28 68.5q0 41 -28 66.5t-72 25.5
q-43 0 -72 -25.5t-29 -68.5t29 -67.5t72 -24.5zM367 1286q37 0 61.5 22t24.5 58t-25 58t-61 22t-62 -22t-26 -58t26 -58t62 -22z" />
    <glyph glyph-name="nine.sup" horiz-adv-x="749" 
d="M354 825q-131 0 -208.5 60t-88.5 166h205q14 -64 90 -64q120 0 123 193q-30 -40 -68 -61t-102 -21q-115 0 -186.5 59t-71.5 174q0 119 83.5 190.5t227.5 71.5q168 0 254 -97.5t86 -264.5v-27q0 -181 -89 -280t-255 -99zM358 1231q45 0 74 28.5t29 71.5q0 51 -28 82
t-75 31q-44 0 -71 -30.5t-27 -78.5q0 -46 26.5 -75t71.5 -29z" />
    <glyph glyph-name="plus.sup" horiz-adv-x="718" 
d="M276 930v207h-200v159h200v209h164v-209h203v-159h-203v-207h-164z" />
    <glyph glyph-name="minus.sup" horiz-adv-x="718" 
d="M76 1137v159h567v-159h-567z" />
    <glyph glyph-name="a.alt" horiz-adv-x="1284" 
d="M524 -23q-93 0 -174.5 35.5t-144.5 102t-100 171t-37 234.5v17q0 129 37 235.5t100.5 176.5t147.5 108.5t179 38.5q224 0 326 -183v158h295v-1071h-295v174q-45 -84 -135 -140.5t-199 -56.5zM610 209q114 0 185 82t71 239v17q0 159 -65 240t-180 81q-117 0 -183.5 -84
t-66.5 -241v-17q0 -154 66 -235.5t173 -81.5z" />
    <glyph glyph-name="t.alt" horiz-adv-x="745" 
d="M193 0v860h-154v211h154v232h296v-232h209v-211h-209v-860h-296z" />
    <glyph glyph-name="germandbls.alt" horiz-adv-x="1359" 
d="M913 -18q-186 0 -290 88t-109 243h260q5 -62 36.5 -95.5t88.5 -33.5q119 0 119 123q0 38 -26 69.5t-52 47t-94 49.5q-10 5 -15 8q-43 21 -72 38t-65.5 44.5t-58.5 55.5t-37.5 67.5t-15.5 83.5q0 54 26 106t63.5 92t75 77.5t63.5 78t26 78.5q0 146 -179 146
q-108 0 -169.5 -62.5t-61.5 -181.5v-1104h-295v1098q0 220 148 347.5t383 127.5q207 0 334.5 -88.5t127.5 -245.5q0 -67 -27 -124.5t-66 -96.5t-78 -72.5t-66 -66t-27 -62.5q0 -10 3 -18.5t12.5 -17.5t18.5 -16t29 -19t36.5 -20.5t48.5 -26t57 -31.5q51 -29 89 -59
t74.5 -70.5t55.5 -93t19 -113.5q0 -167 -107.5 -258.5t-282.5 -91.5z" />
    <glyph glyph-name="aacute.alt" horiz-adv-x="1284" 
d="M522 1217l117 325h311l-213 -325h-215zM524 -23q-93 0 -174.5 35.5t-144.5 102t-100 171t-37 234.5v17q0 129 37 235.5t100.5 176.5t147.5 108.5t179 38.5q224 0 326 -183v158h295v-1071h-295v174q-45 -84 -135 -140.5t-199 -56.5zM610 209q114 0 185 82t71 239v17
q0 159 -65 240t-180 81q-117 0 -183.5 -84t-66.5 -241v-17q0 -154 66 -235.5t173 -81.5z" />
    <glyph glyph-name="abreve.alt" horiz-adv-x="1284" 
d="M524 -23q-93 0 -174.5 35.5t-144.5 102t-100 171t-37 234.5v17q0 129 37 235.5t100.5 176.5t147.5 108.5t179 38.5q224 0 326 -183v158h295v-1071h-295v174q-45 -84 -135 -140.5t-199 -56.5zM610 209q114 0 185 82t71 239v17q0 159 -65 240t-180 81q-117 0 -183.5 -84
t-66.5 -241v-17q0 -154 66 -235.5t173 -81.5zM641 1225q-134 0 -219 82.5t-92 222.5h194q13 -111 117 -111q105 0 125 111h190q-7 -139 -95 -222t-220 -83z" />
    <glyph glyph-name="acircumflex.alt" horiz-adv-x="1284" 
d="M295 1219l240 319h223l233 -319h-209l-141 129l-143 -129h-203zM524 -23q-93 0 -174.5 35.5t-144.5 102t-100 171t-37 234.5v17q0 129 37 235.5t100.5 176.5t147.5 108.5t179 38.5q224 0 326 -183v158h295v-1071h-295v174q-45 -84 -135 -140.5t-199 -56.5zM610 209
q114 0 185 82t71 239v17q0 159 -65 240t-180 81q-117 0 -183.5 -84t-66.5 -241v-17q0 -154 66 -235.5t173 -81.5z" />
    <glyph glyph-name="adieresis.alt" horiz-adv-x="1284" 
d="M436 1229q-63 0 -107 43t-44 104q0 62 44 105t107 43t107.5 -43.5t44.5 -104.5t-44.5 -104t-107.5 -43zM854 1229q-63 0 -107.5 43t-44.5 104t44.5 104.5t107.5 43.5t107.5 -43.5t44.5 -104.5t-44.5 -104t-107.5 -43zM524 -23q-93 0 -174.5 35.5t-144.5 102t-100 171
t-37 234.5v17q0 129 37 235.5t100.5 176.5t147.5 108.5t179 38.5q224 0 326 -183v158h295v-1071h-295v174q-45 -84 -135 -140.5t-199 -56.5zM610 209q114 0 185 82t71 239v17q0 159 -65 240t-180 81q-117 0 -183.5 -84t-66.5 -241v-17q0 -154 66 -235.5t173 -81.5z" />
    <glyph glyph-name="agrave.alt" horiz-adv-x="1284" 
d="M524 -23q-93 0 -174.5 35.5t-144.5 102t-100 171t-37 234.5v17q0 129 37 235.5t100.5 176.5t147.5 108.5t179 38.5q224 0 326 -183v158h295v-1071h-295v174q-45 -84 -135 -140.5t-199 -56.5zM610 209q114 0 185 82t71 239v17q0 159 -65 240t-180 81q-117 0 -183.5 -84
t-66.5 -241v-17q0 -154 66 -235.5t173 -81.5zM547 1217l-213 325h311l117 -325h-215z" />
    <glyph glyph-name="amacron.alt" horiz-adv-x="1284" 
d="M524 -23q-93 0 -174.5 35.5t-144.5 102t-100 171t-37 234.5v17q0 129 37 235.5t100.5 176.5t147.5 108.5t179 38.5q224 0 326 -183v158h295v-1071h-295v174q-45 -84 -135 -140.5t-199 -56.5zM610 209q114 0 185 82t71 239v17q0 159 -65 240t-180 81q-117 0 -183.5 -84
t-66.5 -241v-17q0 -154 66 -235.5t173 -81.5zM344 1280v178h596v-178h-596z" />
    <glyph glyph-name="aogonek.alt" horiz-adv-x="1284" 
d="M1004 -373q-105 0 -167.5 44.5t-62.5 121.5q0 124 170 207h-86v174q-45 -84 -135 -140.5t-199 -56.5q-93 0 -174.5 35.5t-144.5 102t-100 171t-37 234.5v17q0 129 37 235.5t100.5 176.5t147.5 108.5t179 38.5q224 0 326 -183v158h295v-1053q-70 -47 -100.5 -85.5
t-30.5 -77.5q0 -31 18 -47.5t50 -16.5q45 0 77 14v-147q-68 -31 -163 -31zM610 209q114 0 185 82t71 239v17q0 159 -65 240t-180 81q-117 0 -183.5 -84t-66.5 -241v-17q0 -154 66 -235.5t173 -81.5z" />
    <glyph glyph-name="aring.alt" horiz-adv-x="1284" 
d="M635 1317q43 0 70.5 30.5t27.5 77.5q0 46 -28 77.5t-70 31.5t-70 -31.5t-28 -77.5q0 -47 27.5 -77.5t70.5 -30.5zM635 1198q-97 0 -165.5 66.5t-68.5 160.5q0 93 69 159.5t165 66.5t164.5 -66.5t68.5 -159.5q0 -94 -68 -160.5t-165 -66.5zM524 -23q-93 0 -174.5 35.5
t-144.5 102t-100 171t-37 234.5v17q0 129 37 235.5t100.5 176.5t147.5 108.5t179 38.5q224 0 326 -183v158h295v-1071h-295v174q-45 -84 -135 -140.5t-199 -56.5zM610 209q114 0 185 82t71 239v17q0 159 -65 240t-180 81q-117 0 -183.5 -84t-66.5 -241v-17q0 -154 66 -235.5
t173 -81.5z" />
    <glyph glyph-name="aringacute.alt" horiz-adv-x="1284" 
d="M635 1294q43 0 70.5 31t27.5 78q0 46 -28 77t-70 31t-70 -31t-28 -77q0 -47 27.5 -78t70.5 -31zM635 1176q-97 0 -165.5 66.5t-68.5 160.5q0 92 68.5 158.5t165.5 66.5q96 0 164.5 -66t68.5 -159q0 -94 -68 -160.5t-165 -66.5zM524 -23q-93 0 -174.5 35.5t-144.5 102
t-100 171t-37 234.5v17q0 129 37 235.5t100.5 176.5t147.5 108.5t179 38.5q224 0 326 -183v158h295v-1071h-295v174q-45 -84 -135 -140.5t-199 -56.5zM610 209q114 0 185 82t71 239v17q0 159 -65 240t-180 81q-117 0 -183.5 -84t-66.5 -241v-17q0 -154 66 -235.5t173 -81.5z
M535 1696l108 284h322l-207 -284h-223z" />
    <glyph glyph-name="atilde.alt" horiz-adv-x="1284" 
d="M524 -23q-93 0 -174.5 35.5t-144.5 102t-100 171t-37 234.5v17q0 129 37 235.5t100.5 176.5t147.5 108.5t179 38.5q224 0 326 -183v158h295v-1071h-295v174q-45 -84 -135 -140.5t-199 -56.5zM610 209q114 0 185 82t71 239v17q0 159 -65 240t-180 81q-117 0 -183.5 -84
t-66.5 -241v-17q0 -154 66 -235.5t173 -81.5zM764 1225q-45 0 -90 19.5t-81.5 39t-60.5 19.5q-26 0 -45.5 -21.5t-25.5 -54.5h-170q10 138 71 213.5t154 75.5q54 0 130.5 -38t105.5 -38q27 0 45 20.5t24 55.5h172q-12 -138 -75 -214.5t-154 -76.5z" />
    <glyph glyph-name="tbar.alt" horiz-adv-x="745" 
d="M39 512v174h154v174h-154v211h154v232h296v-232h209v-211h-209v-174h209v-174h-209v-512h-296v512h-154z" />
    <glyph glyph-name="tcaron.alt" horiz-adv-x="745" 
d="M193 0v860h-154v211h154v232h296v-232h209v-211h-209v-860h-296zM590 1200l20 356h244l-100 -356h-164z" />
    <glyph glyph-name="tcommaaccent.alt" horiz-adv-x="745" 
d="M297 -467l-168 55l96 349l267 -43zM193 0v860h-154v211h154v232h296v-232h209v-211h-209v-860h-296z" />
    <glyph glyph-name="f.short" horiz-adv-x="737" 
d="M180 0v860h-141v211h141v123q0 185 100 280t281 95q81 0 146 -19v-223q-43 16 -101 16q-66 0 -98.5 -38t-32.5 -103v-131h232v-211h-232v-860h-295z" />
    <glyph glyph-name="f_f.short" horiz-adv-x="1382" 
d="M180 0v860h-141v211h141v111q0 183 100 278.5t281 95.5q78 0 152 -22v-221q-58 16 -107 16q-67 0 -99 -37.5t-32 -103.5v-117h350v123q0 185 99.5 280t281.5 95q81 0 146 -19v-223q-46 16 -101 16q-67 0 -99 -38t-32 -103v-131h232v-211h-232v-860h-295v860h-350v-860
h-295z" />
    <glyph glyph-name="questiondown.uc" horiz-adv-x="1089" 
d="M735 1008v-62q0 -46 -13.5 -90.5t-28.5 -74.5t-49.5 -71.5t-51.5 -58.5t-60 -59q-70 -66 -104.5 -114.5t-34.5 -104.5q0 -73 39 -112.5t119 -39.5q84 0 138 57t65 154h284q-9 -211 -147 -331.5t-359 -120.5t-338.5 100t-117.5 268q0 96 44 170t124 152q13 13 48 45.5
t50.5 47.5t41.5 43.5t38.5 48.5t24 47.5t14.5 53.5v52h274zM600 1483q78 0 132 -51t54 -125q0 -75 -54 -127t-132 -52q-77 0 -131.5 52t-54.5 127q0 73 54.5 124.5t131.5 51.5z" />
    <glyph glyph-name="exclamdown.uc" horiz-adv-x="649" 
d="M158 0l45 1008h241l45 -1008h-331zM326 1128q-77 0 -133 52.5t-56 126.5q0 73 56 124.5t133 51.5t131.5 -51.5t54.5 -124.5q0 -75 -54.5 -127t-131.5 -52z" />
    <glyph glyph-name="hyphen.uc" horiz-adv-x="798" 
d="M111 547v244h577v-244h-577z" />
    <glyph glyph-name="endash.uc" horiz-adv-x="1095" 
d="M92 578v188h912v-188h-912z" />
    <glyph glyph-name="emdash.uc" horiz-adv-x="1892" 
d="M92 578v188h1708v-188h-1708z" />
    <glyph glyph-name="guilsinglleft.uc" horiz-adv-x="638" 
d="M344 223l-260 393l260 394h219l-250 -394l250 -393h-219z" />
    <glyph glyph-name="guilsinglright.uc" horiz-adv-x="638" 
d="M78 223l248 393l-248 394h219l258 -394l-258 -393h-219z" />
    <glyph glyph-name="guillemotleft.uc" horiz-adv-x="997" 
d="M344 223l-260 393l260 394h211l-250 -394l250 -393h-211zM711 223l-260 393l260 394h211l-250 -394l250 -393h-211z" />
    <glyph glyph-name="guillemotright.uc" horiz-adv-x="997" 
d="M78 223l248 393l-248 394h211l258 -394l-258 -393h-211zM444 223l248 393l-248 394h211l258 -394l-258 -393h-211z" />
    <glyph glyph-name="parenleft.uc" horiz-adv-x="702" 
d="M430 -201q-66 79 -121.5 168t-106 202.5t-79.5 251t-29 281.5t29 281.5t79.5 251t106 203t121.5 168.5h244q-127 -180 -210 -411t-83 -493t83 -492.5t210 -410.5h-244z" />
    <glyph glyph-name="parenright.uc" horiz-adv-x="702" 
d="M31 -201q126 181 208.5 411.5t82.5 491.5q0 263 -82.5 492.5t-208.5 411.5h241q67 -79 122.5 -167.5t106.5 -202t80 -251.5t29 -283q0 -144 -29 -281.5t-80 -251t-107 -202.5t-122 -168h-241z" />
    <glyph glyph-name="bracketleft.uc" horiz-adv-x="798" 
d="M152 -184v1783h565v-219h-268v-1345h268v-219h-565z" />
    <glyph glyph-name="bracketright.uc" horiz-adv-x="798" 
d="M84 -184v219h266v1345h-266v219h563v-1783h-563z" />
    <glyph glyph-name="braceleft.uc" horiz-adv-x="829" 
d="M745 -188q-284 0 -405.5 103.5t-85.5 332.5l25 160q13 87 -35.5 140.5t-173.5 53.5v211q125 0 173.5 53.5t35.5 139.5l-25 159q-36 234 85 335.5t406 101.5v-218q-130 -5 -173.5 -48.5t-28.5 -164.5l22 -190q12 -106 -42.5 -175.5t-164.5 -96.5q110 -25 164.5 -95
t42.5 -176l-22 -190q-15 -123 29 -168.5t173 -50.5v-217z" />
    <glyph glyph-name="braceright.uc" horiz-adv-x="829" 
d="M82 -188v217q131 5 175.5 50.5t27.5 168.5l-23 190q-12 106 43.5 176t165.5 95q-111 27 -166 96.5t-43 175.5l23 190q17 121 -27 164.5t-176 48.5v218q286 0 407.5 -101.5t85.5 -335.5l-24 -159q-13 -86 35 -139.5t172 -53.5v-211q-124 0 -172 -53.5t-35 -140.5l24 -160
q35 -229 -87 -332.5t-406 -103.5z" />
    <glyph glyph-name="slash.uc" horiz-adv-x="866" 
d="M12 -172l590 1763h244l-590 -1763h-244z" />
    <glyph glyph-name="backslash.uc" horiz-adv-x="866" 
d="M608 -172l-588 1763h242l590 -1763h-244z" />
    <glyph glyph-name="bar.uc" horiz-adv-x="536" 
d="M162 -172v1763h213v-1763h-213z" />
    <glyph glyph-name="at.uc" horiz-adv-x="1882" 
d="M942 -147q-198 0 -362 65.5t-271.5 178t-166 261t-58.5 316.5q0 189 73 354t195 278t283.5 177.5t337.5 64.5q237 0 424.5 -92.5t293 -260t105.5 -380.5q0 -114 -24.5 -206.5t-65 -152.5t-95 -101t-112.5 -58.5t-119 -17.5q-124 0 -188.5 41.5t-83.5 123.5
q-41 -80 -114.5 -127t-166.5 -47q-148 0 -236.5 98.5t-88.5 266.5q0 206 114 338.5t281 132.5q175 0 229 -127l15 111h252l-64 -535q-19 -141 88 -141q93 0 156 100t63 303q0 267 -178.5 429.5t-482.5 162.5q-153 0 -285.5 -52.5t-229 -147t-151.5 -233t-55 -302.5
q0 -143 44 -266t128.5 -216.5t218 -146.5t301.5 -53q311 0 500 170h176q-93 -141 -275 -225t-405 -84zM903 467q79 0 137 74.5t58 195.5q0 82 -41 126t-117 44q-78 0 -129 -72t-51 -190q0 -81 38 -129.5t105 -48.5z" />
    </font>
</defs>
</svg>
